<svg xmlns="http://www.w3.org/2000/svg" id="icon-robud-logo" viewBox="0 0 68 32">
<path fill="#fff" style="fill: var(--color1, #fff)" d="M12.261 19.458c-0.52-0.004-0.974-0-1.273 0.015-0.626 0.031-0.657 0.042-0.659 0.213-0.006 0.68 0 2.139 0.011 2.336l0.012 0.239 1.599 0.012c2.667 0.020 3.281 0.065 3.716 0.274 0.662 0.318 0.955 0.92 0.87 1.791-0.028 0.286-0.109 0.456-0.352 0.736-0.466 0.537-0.706 0.593-2.58 0.598-0.857 0.003-1.586 0.031-1.62 0.064s0.085 0.259 0.265 0.503c0.419 0.566 0.387 0.522 1.137 1.573 0.841 1.178 1.199 1.672 2.192 3.029l0.832 1.136 0.655-0.026c0.36-0.014 0.817-0.022 1.015-0.017 1.216 0.028 1.69 0.022 1.804-0.029l0.030-0.035c-0.006-0.050-0.115-0.212-0.247-0.365-0.234-0.272-1.772-2.192-2.601-3.247-0.22-0.28-0.401-0.527-0.402-0.548 0-0.022 0.143-0.070 0.32-0.108 1.233-0.263 2.355-1.597 2.559-3.043 0.099-0.702-0.052-1.998-0.296-2.543-0.569-1.271-1.498-2.025-2.925-2.373-0.345-0.084-2.503-0.17-4.064-0.183zM19.997 31.773c-0.003 0.004-0.006 0.008-0.010 0.011zM12.261 19.458c-0.52-0.004-0.974 0-1.273 0.015-0.626 0.031-0.658 0.042-0.659 0.213-0.006 0.68 0 2.139 0.011 2.336l0.012 0.239 1.599 0.012c2.667 0.020 3.281 0.065 3.716 0.274 0.662 0.318 0.955 0.92 0.87 1.791-0.028 0.286-0.109 0.456-0.352 0.736-0.466 0.537-0.705 0.593-2.58 0.599-0.857 0.003-1.586 0.031-1.62 0.064s0.085 0.259 0.265 0.503c0.419 0.566 0.387 0.522 1.137 1.573 0.841 1.178 1.199 1.673 2.192 3.029l0.832 1.136 0.655-0.026c0.36-0.014 0.817-0.022 1.015-0.017 1.435 0.033 1.839 0.020 1.834-0.060-0.003-0.047-0.114-0.213-0.247-0.368-0.234-0.272-1.772-2.192-2.601-3.247-0.22-0.28-0.401-0.527-0.402-0.548 0-0.022 0.143-0.070 0.32-0.108 1.233-0.263 2.355-1.597 2.559-3.043 0.099-0.702-0.052-1.998-0.296-2.543-0.569-1.271-1.498-2.025-2.924-2.373-0.345-0.084-2.503-0.17-4.064-0.183zM26.59 19.557c-0.346 0.005-0.575 0.046-0.982 0.146-1.596 0.392-2.767 1.228-3.759 2.685-0.799 1.173-1.108 3.367-0.693 4.924 0.824 3.096 4.114 5.136 7.289 4.521 1.508-0.292 2.599-0.917 3.541-2.029 0.645-0.761 1.112-1.655 1.322-2.535 0.167-0.696 0.127-2.237-0.078-3.037-0.188-0.733-0.708-1.781-1.131-2.278-1.317-1.549-2.803-2.282-4.825-2.379-0.21-0.010-0.38-0.017-0.527-0.018-0.055 0-0.107 0-0.157 0zM45.997 19.562c-0.527 0-0.956 0.014-0.994 0.039s-0.045 0.593-0.017 1.259c0.029 0.666 0.061 1.84 0.071 2.608 0.034 2.511 0.148 4.735 0.266 5.185 0.282 1.072 1.281 2.272 2.28 2.741 0.99 0.464 2.004 0.528 7.518 0.477l1.209-0.011-0.047-1.867c-0.168-6.605-0.285-10.231-0.333-10.3-0.058-0.084-2.799-0.146-4.005-0.091l-0.694 0.032 0.045 1.336c0.025 0.735 0.058 1.353 0.074 1.375s0.376 0.031 0.8 0.021c0.424-0.009 0.858-0.003 0.963 0.015l0.191 0.032 0.060 2.17c0.058 2.087 0.098 4.48 0.075 4.491-0.060 0.027-3.035 0.014-3.509-0.016-0.749-0.047-1.12-0.26-1.408-0.805-0.179-0.34-0.193-0.462-0.277-2.431-0.048-1.14-0.097-2.986-0.108-4.101s-0.050-2.055-0.087-2.087c-0.050-0.044-1.198-0.071-2.076-0.069zM36.32 19.589c-0.885-0.003-1.571 0.021-1.615 0.076-0.029 0.036-0.044 0.662-0.032 1.392l0.021 1.326 0.776 0.011c0.427 0.006 1.442 0.014 2.255 0.016 1.626 0.005 1.92 0.052 2.174 0.343s0.27 0.913 0.031 1.179c-0.269 0.298-0.599 0.343-2.538 0.342-0.972-0-1.969 0.011-2.215 0.024l-0.447 0.024 0.021 1.257c0.011 0.692 0.047 1.282 0.079 1.313s1.099 0.056 2.373 0.058c2.59 0.003 2.771 0.015 3.135 0.209 0.527 0.282 0.641 1.156 0.207 1.586-0.246 0.243-0.882 0.456-1.25 0.417-0.245-0.026-1.209-0.028-3.197-0.008l-1.295 0.013 0.038 1.229c0.021 0.676 0.043 1.3 0.049 1.388 0.011 0.151 0.1 0.16 1.69 0.17 0.923 0.006 2.307-0.011 3.074-0.039 1.277-0.046 1.439-0.067 1.904-0.257 0.654-0.266 1.485-0.948 1.769-1.45 0.33-0.584 0.486-1.31 0.447-2.073-0.062-1.199-0.496-1.981-1.382-2.492-0.28-0.161-0.511-0.311-0.513-0.333s0.134-0.146 0.303-0.276c0.92-0.709 1.197-2.405 0.58-3.552-0.488-0.907-1.333-1.508-2.417-1.718-0.524-0.102-2.549-0.172-4.024-0.175zM57.74 19.597l0.024 1.348c0.013 0.741 0.049 1.369 0.080 1.395s1.117 0.050 2.414 0.054c1.494 0.004 2.506 0.042 2.762 0.104 1.257 0.304 1.986 1.24 2.157 2.769 0.188 1.686-0.233 2.897-1.203 3.461-0.349 0.203-0.447 0.22-1.651 0.282-0.704 0.036-1.973 0.071-2.818 0.077l-1.537 0.011 0.072 1.389 0.072 1.389 1.738 0.005c4.001 0.011 5.068-0.16 6.397-1.027 0.662-0.432 1.249-1.119 1.578-1.827v0c0-0 0-0 0 0v-5.985c-0-0 0-0 0 0h-0l-0.248-0.446c-0.427-0.769-0.901-1.316-1.605-1.852-1.169-0.889-2.178-1.105-5.216-1.118-0.813-0.003-1.824-0.011-2.246-0.017zM27.137 22.25c0.553 0.003 1.114 0.152 1.617 0.462 1.725 1.060 2.154 3.729 0.858 5.342-0.537 0.668-1.135 0.999-1.966 1.088-1.115 0.119-1.985-0.219-2.738-1.063-0.725-0.812-1.051-2.134-0.806-3.268 0.154-0.714 0.189-0.79 0.643-1.396 0.571-0.763 1.47-1.169 2.391-1.165z"></path>
<path fill="#ffce00" style="fill: var(--color2, #ffce00)" d="M8.777 0.024l-0.334 0.043c-1.83 0.233-3.212 0.851-4.698 2.103-0.242 0.204-0.439 0.39-0.438 0.414 0 0.024 0.887 0.938 1.967 2.031s2.235 2.262 2.564 2.597c1.092 1.11 1.36 1.365 1.39 1.325s0.018-4.778-0.018-7.218l-0.019-1.294zM10.393 0.089c-0.239 0.011-0.256 0.032-0.28 0.353-0.014 0.188-0.009 1.76 0.011 3.495s0.031 3.208 0.024 3.275c-0.028 0.263 0.023 1.357 0.063 1.355 0.034-0.003 1.686-1.625 2.317-2.277 0.442-0.456 0.946-0.958 1.441-1.432 0.314-0.302 0.742-0.723 0.951-0.936s0.525-0.531 0.703-0.705 0.321-0.359 0.318-0.41c-0.008-0.165-1.183-1.117-1.959-1.588-0.977-0.593-2.798-1.166-3.589-1.129zM2.598 3.191l-0.484 0.532c-0.686 0.754-1.202 1.644-1.576 2.721-0.213 0.614-0.443 1.821-0.427 2.246l0.013 0.361 1.621 0.059c0.892 0.032 2.503 0.082 3.581 0.111s2.221 0.063 2.541 0.075c0.319 0.012 0.579-0.003 0.578-0.032-0.003-0.061-0.41-0.488-2.792-2.932-0.35-0.36-1.012-1.048-1.47-1.53s-1.002-1.041-1.209-1.244zM16.731 3.542c-0.098-0.032-0.612 0.462-2.391 2.297-0.229 0.237-0.604 0.617-0.832 0.845s-0.638 0.645-0.911 0.927c-0.273 0.282-0.616 0.633-0.762 0.78-0.755 0.76-0.85 0.888-0.696 0.936 0.081 0.025 1.046 0.042 2.144 0.036s2.105-0.004 2.237 0.004 0.833 0.006 1.558-0.004c0.725-0.010 1.512-0.006 1.75 0.008l0.433 0.026-0.088-0.825c-0.138-1.295-0.465-2.248-1.203-3.501-0.354-0.601-1.059-1.472-1.24-1.531zM0.423 10.047c-0.17 0-0.28 0.003-0.29 0.014-0.019 0.021-0.033 0.502-0.030 1.070s0.003 2.237 0.003 3.709c-0.003 3.035-0 3.275 0.027 3.277v0c0.011 0 0.83 0.012 1.819 0.026 6.889 0.095 7.29 0.089 7.306-0.099 0.006-0.066-0.003-0.821-0.017-1.677-0.029-1.638-0.043-4.279-0.030-5.439l0.008-0.687-1.182-0.034c-0.65-0.018-2.279-0.047-3.621-0.064s-2.845-0.051-3.343-0.075c-0.249-0.012-0.479-0.019-0.649-0.020zM10.268 10.224l-0.013 0.669c-0.014 0.762 0.035 5.689 0.067 6.666l0.021 0.647 0.58 0.021c0.319 0.012 1.498 0.028 2.619 0.036s2.877 0.029 3.903 0.046c1.026 0.017 1.875 0.018 1.888 0.003s0.013-0.675 0-1.466c-0.012-0.79-0.026-2.156-0.031-3.035s-0.020-2.010-0.033-2.515l-0.023-0.918-0.64-0.023c-0.578-0.021-2.473-0.048-5.837-0.084-0.66-0.007-1.493-0.021-1.851-0.030zM0.125 19.295l0.021 3.184c0.011 1.751 0.006 3.201-0.012 3.221s-0.003 0.415 0.033 0.877l0.066 0.84 1.359 0.021c0.748 0.011 1.737 0.021 2.198 0.022s1.878 0.006 3.147 0.012 2.334-0.020 2.365-0.057c0.031-0.037 0.048-0.661 0.039-1.385s-0.030-2.234-0.045-3.353-0.023-2.309-0.017-2.643l0.011-0.607-1.54-0.016c-0.847-0.009-2.331-0.028-3.299-0.041s-2.065-0.027-2.438-0.031c-0.374-0.003-0.951-0.014-1.284-0.024z"></path>
</svg>



