<svg xmlns="http://www.w3.org/2000/svg" id="icon-montage-icon" viewBox="0 0 32 32">
<path d="M4.683 31.983c-1.242-0.182-2.227-0.652-3.071-1.462-0.77-0.739-1.29-1.684-1.52-2.76-0.071-0.331-0.076-0.409-0.077-1.041-0.001-0.603 0.007-0.721 0.065-1.008 0.405-1.999 1.84-3.555 3.792-4.112 0.749-0.214 1.697-0.247 2.473-0.087l0.213 0.044 5.186-5.182 0.37 0.43c0.528 0.614 1.574 1.655 2.107 2.097 0.251 0.208 0.703 0.565 1.006 0.793l0.55 0.415-5.333 5.333 0.044 0.212c0.385 1.862-0.302 3.853-1.754 5.086-0.683 0.579-1.476 0.968-2.379 1.164-0.29 0.063-0.415 0.074-0.96 0.081-0.345 0.005-0.665 0.003-0.712-0.004zM7.247 28.659l1.12-1.121-0.101-0.381c-0.395-1.489-0.719-2.679-0.733-2.693-0.009-0.009-0.699-0.2-1.533-0.423l-1.516-0.407-0.655 0.648c-0.36 0.357-0.871 0.86-1.136 1.118l-0.481 0.47 0.406 1.521c0.223 0.836 0.418 1.533 0.432 1.549 0.023 0.025 2.942 0.829 3.038 0.837 0.021 0.002 0.543-0.501 1.159-1.118zM27.902 31.927c-0.048-0.041-0.464-0.576-0.923-1.189-2.028-2.705-3.983-5.050-6.070-7.278-1.528-1.632-2.244-2.25-4.368-3.772-1.78-1.275-2.385-1.786-3.273-2.762-0.674-0.741-1.338-1.574-1.86-2.336l-0.216-0.315 0.4-0.438-0.351-0.366c-0.193-0.201-0.812-0.842-1.376-1.425l-1.025-1.060-0.551 0.564c-0.303 0.31-0.585 0.586-0.626 0.614-0.118 0.078-0.342 0.066-0.476-0.025-0.156-0.106-0.314-0.156-0.499-0.157-0.283-0.002-0.47 0.137-0.619 0.459-0.083 0.178-0.115 0.324-0.218 0.968-0.057 0.356-0.154 0.676-0.262 0.86-0.107 0.182-1.164 1.274-1.28 1.322-0.122 0.051-0.228 0.048-0.355-0.012-0.116-0.055-3.818-3.851-3.903-4.002-0.070-0.124-0.065-0.348 0.010-0.474 0.033-0.055 0.318-0.357 0.633-0.671 0.72-0.718 0.75-0.734 1.67-0.892 0.562-0.097 0.748-0.163 0.936-0.332 0.271-0.243 0.307-0.574 0.103-0.939-0.118-0.211-0.14-0.395-0.065-0.538 0.061-0.117 5.002-5.209 5.122-5.279 0.114-0.066 0.303-0.080 0.404-0.029 0.034 0.017 0.122 0.090 0.196 0.161l0.134 0.129 0.128-0.111c0.693-0.603 0.985-0.831 1.498-1.165 1.227-0.799 2.407-1.259 3.615-1.408 0.342-0.042 1.129-0.036 1.481 0.012 1.398 0.189 2.635 0.853 3.839 2.062 1.029 1.033 1.127 1.392 0.3 1.088-1.040-0.381-1.879-0.456-2.886-0.256-0.855 0.17-1.816 0.611-2.664 1.223-0.621 0.449-1.355 1.127-1.826 1.688l-0.212 0.253 0.141 0.146c0.078 0.080 0.157 0.176 0.177 0.214 0.048 0.094 0.044 0.317-0.008 0.418-0.024 0.046-0.289 0.336-0.589 0.645s-0.542 0.574-0.537 0.588c0.005 0.015 0.624 0.662 1.375 1.438l1.366 1.411 0.206-0.205c0.243-0.241 0.183-0.251 0.666 0.112 0.736 0.552 1.321 1.050 2.030 1.724 0.99 0.942 1.47 1.541 2.722 3.394 1.402 2.076 1.898 2.711 3.055 3.92 2.104 2.197 5.394 5.119 8.466 7.518 0.379 0.296 0.466 0.392 0.465 0.514-0 0.139-0.082 0.247-0.551 0.728-0.238 0.244-1.039 1.069-1.779 1.832s-1.382 1.413-1.427 1.445c-0.111 0.079-0.234 0.073-0.341-0.016zM20.411 14.829c-0.984-1.409-1.708-2.262-2.788-3.284l-0.542-0.512 4.474-4.475-0.043-0.211c-0.072-0.352-0.103-0.675-0.103-1.065 0.002-1.425 0.552-2.744 1.563-3.745 0.359-0.355 0.626-0.563 1.045-0.813 0.517-0.307 1.104-0.527 1.762-0.659 0.366-0.073 1.482-0.074 1.851-0.001 0.141 0.028 0.275 0.058 0.299 0.067 0.029 0.011-0.638 0.691-2.129 2.17l-2.172 2.154 0.411 1.532c0.226 0.843 0.418 1.539 0.426 1.547s0.673 0.191 1.476 0.407c0.804 0.215 1.491 0.401 1.527 0.413 0.059 0.019 0.293-0.206 2.227-2.143 1.189-1.19 2.167-2.155 2.174-2.144s0.036 0.142 0.064 0.29c0.040 0.21 0.051 0.415 0.052 0.938 0.001 0.762-0.040 1.041-0.239 1.648-0.839 2.552-3.44 4.069-6.078 3.544l-0.225-0.045-4.766 4.766z"></path>
</svg>




