<svg xmlns="http://www.w3.org/2000/svg" width="30" height="30" viewBox="0 0 45.554 45.554">
  <path id="Icon_awesome-phone-square" data-name="Icon awesome-phone-square" d="M40.674,2.25H4.881A4.881,4.881,0,0,0,0,7.131V42.924A4.881,4.881,0,0,0,4.881,47.8H40.674a4.881,4.881,0,0,0,4.881-4.881V7.131A4.881,4.881,0,0,0,40.674,2.25ZM9.558,41.3a1.526,1.526,0,0,1-1.486-1.182L6.547,33.5a1.525,1.525,0,0,1,.885-1.745l7.118-3.05a1.525,1.525,0,0,1,1.781.436L19.483,33A23.574,23.574,0,0,0,30.748,21.733L26.9,18.582a1.525,1.525,0,0,1-.436-1.781L29.51,9.683A1.525,1.525,0,0,1,31.255,8.8l6.609,1.525a1.525,1.525,0,0,1,1.182,1.486A29.487,29.487,0,0,1,9.558,41.3Z" transform="translate(0 -2.25)"/>
</svg>
