<svg xmlns="http://www.w3.org/2000/svg" id="icon-sell-icon" viewBox="0 0 29 32">
<path d="M1.565 31.956c-0.503-0.122-0.953-0.552-1.085-1.038-0.017-0.062-0.127-1.402-0.244-2.978-0.179-2.411-0.209-2.894-0.184-3.047 0.082-0.505 0.506-0.964 1.043-1.126 0.142-0.043 0.452-0.074 1.405-0.14 0.672-0.046 1.331-0.084 1.465-0.084 0.459-0 0.789 0.157 1.082 0.516l0.089 0.109 0.375-0.161c0.758-0.326 1.582-0.555 2.384-0.664 0.352-0.048 1.579-0.048 1.981-0.001 0.556 0.066 1.109 0.173 1.782 0.345 1.082 0.277 1.047 0.274 3.612 0.305 4.434 0.054 4.114 0.046 4.312 0.113 0.997 0.336 1.283 1.556 0.533 2.275-0.175 0.167-0.434 0.297-0.673 0.336-0.1 0.016-1.605 0.163-3.343 0.326s-3.191 0.303-3.228 0.311c-0.037 0.008-0.11 0.057-0.162 0.109-0.081 0.081-0.094 0.113-0.094 0.233 0 0.096 0.017 0.161 0.055 0.21 0.108 0.138 0.164 0.144 1.050 0.125 2.921-0.064 6.421-0.481 7.478-0.892 0.279-0.108 0.734-0.351 0.843-0.448 0.208-0.187 1.68-1.093 2.669-1.643 1.564-0.869 2.416-1.258 2.984-1.361 0.201-0.037 0.483 0.010 0.683 0.111 0.364 0.185 0.617 0.629 0.617 1.080 0 0.282-0.202 0.704-0.439 0.916-0.142 0.127-0.015 0.052-4.618 2.753-2.14 1.256-4.024 2.35-4.186 2.431-0.53 0.265-1.225 0.47-1.857 0.547-0.165 0.020-0.492 0.028-0.843 0.020-0.514-0.012-10.525-0.444-11.179-0.483l-0.267-0.016-0.084 0.144c-0.179 0.305-0.546 0.554-0.905 0.613-0.189 0.031-2.601 0.201-2.789 0.197-0.054-0.001-0.171-0.020-0.261-0.042zM3.298 30.584c0.492-0.241 0.592-0.878 0.201-1.269-0.412-0.412-1.133-0.286-1.374 0.239-0.092 0.2-0.082 0.479 0.024 0.673 0.1 0.183 0.256 0.322 0.447 0.397 0.202 0.080 0.49 0.064 0.702-0.040zM21.802 25.262c0-0.184-0.019-0.35-0.056-0.496-0.031-0.121-0.056-0.23-0.056-0.243 0-0.030 1.387-0.724 2.203-1.103 0.819-0.38 1.258-0.566 1.462-0.619 0.194-0.050 0.569-0.057 0.732-0.012 0.147 0.040 0.379 0.14 0.379 0.162-0 0.010-0.079 0.048-0.176 0.084-0.634 0.241-2.86 1.462-3.842 2.106-0.346 0.227-0.618 0.398-0.636 0.398-0.006 0-0.011-0.124-0.011-0.276zM21.084 23.541c-0.061-0.063-0.196-0.178-0.301-0.256s-0.189-0.149-0.189-0.16c0.001-0.038 0.668-0.31 1.742-0.709l0.857-0.319 0.351-0.001c0.329-0.001 0.362 0.004 0.527 0.080 0.176 0.081 0.206 0.111 0.14 0.138-2.027 0.807-2.312 0.931-2.764 1.203-0.126 0.076-0.234 0.137-0.24 0.137s-0.061-0.052-0.123-0.114zM14.413 22.39c-0.144-0.066-0.294-0.2-0.356-0.317-0.032-0.061-0.234-0.701-0.234-0.741 0-0.004-0.028-0.008-0.063-0.008-0.102-0-0.363-0.135-0.481-0.247-0.272-0.261-0.327-0.444-0.327-1.085 0.001-0.537 0.023-0.627 0.2-0.794 0.195-0.185 0.095-0.177 2.334-0.177l2.031 0 0.142 0.066c0.165 0.077 0.269 0.19 0.336 0.365 0.040 0.105 0.046 0.205 0.038 0.626-0.009 0.471-0.015 0.511-0.084 0.659-0.134 0.287-0.384 0.502-0.665 0.574l-0.126 0.032-0.090 0.308c-0.107 0.364-0.15 0.454-0.281 0.585-0.202 0.202-0.172 0.197-1.263 0.205-0.941 0.007-0.989 0.005-1.11-0.051zM8.199 18.447c-0.367-0.098-0.554-0.503-0.389-0.844 0.036-0.074 0.364-0.421 0.92-0.973 0.725-0.72 0.883-0.864 0.98-0.892 0.182-0.052 0.323-0.040 0.486 0.041 0.257 0.128 0.38 0.408 0.309 0.702-0.031 0.128-0.091 0.195-0.893 1.003-0.473 0.476-0.904 0.889-0.958 0.916-0.139 0.070-0.301 0.087-0.455 0.046zM22.49 18.459c-0.046-0.010-0.116-0.035-0.155-0.055s-0.459-0.423-0.934-0.897c-0.762-0.759-0.869-0.877-0.909-0.998-0.054-0.162-0.038-0.331 0.045-0.494 0.14-0.275 0.516-0.387 0.817-0.244 0.119 0.056 1.71 1.677 1.785 1.819 0.034 0.064 0.052 0.157 0.052 0.281 0.001 0.157-0.012 0.205-0.084 0.322-0.125 0.202-0.392 0.317-0.618 0.267zM13.532 18.161c-0.261-0.063-0.532-0.221-0.711-0.415-0.19-0.206-0.306-0.44-0.363-0.738-0.084-0.437-0.132-0.619-0.239-0.895-0.189-0.49-0.426-0.861-0.865-1.357-0.932-1.052-1.43-2.134-1.578-3.433-0.041-0.355-0.020-1.083 0.042-1.447 0.269-1.597 1.165-2.98 2.506-3.871 2.204-1.463 5.152-1.197 7.089 0.642 1.654 1.57 2.221 3.938 1.452 6.059-0.269 0.742-0.643 1.355-1.217 1.995-0.645 0.72-0.945 1.298-1.121 2.164-0.089 0.438-0.192 0.651-0.436 0.895-0.204 0.205-0.484 0.36-0.75 0.415-0.24 0.050-3.597 0.038-3.808-0.014zM17.18 16.929c0.061-0.026 0.101-0.064 0.109-0.105 0.007-0.036 0.039-0.21 0.072-0.387 0.172-0.925 0.611-1.744 1.387-2.585 0.543-0.589 0.934-1.35 1.122-2.184 0.085-0.377 0.091-1.353 0.011-1.721-0.299-1.377-1.135-2.482-2.346-3.101-0.388-0.199-0.666-0.301-1.087-0.4-0.316-0.075-0.371-0.079-0.981-0.079-0.601-0-0.668 0.005-0.955 0.074-1.148 0.275-2.072 0.908-2.715 1.862-0.569 0.843-0.827 1.81-0.754 2.828s0.475 1.937 1.195 2.722c0.135 0.147 0.298 0.336 0.363 0.421 0.493 0.642 0.853 1.421 1.036 2.243 0.073 0.327 0.101 0.388 0.2 0.428 0.031 0.013 0.775 0.024 1.652 0.025 1.325 0.001 1.612-0.005 1.692-0.038zM15.096 14.918c-0.099-0.040-0.121-0.119-0.121-0.433 0-0.366-0.016-0.388-0.313-0.438-0.363-0.061-0.816-0.228-0.954-0.353-0.076-0.068-0.067-0.167 0.053-0.585 0.113-0.396 0.148-0.445 0.279-0.391 0.043 0.018 0.159 0.066 0.257 0.107 0.316 0.132 0.696 0.219 0.974 0.222 0.233 0.002 0.269-0.005 0.444-0.091 0.305-0.15 0.42-0.392 0.316-0.665-0.078-0.204-0.234-0.315-0.7-0.499-0.837-0.331-1.131-0.509-1.377-0.837-0.157-0.209-0.239-0.423-0.261-0.684-0.036-0.43 0.112-0.865 0.393-1.152 0.16-0.163 0.313-0.261 0.617-0.394 0.341-0.149 0.312-0.107 0.328-0.491 0.019-0.463 0.022-0.466 0.477-0.466 0.428 0 0.421-0.005 0.442 0.383 0.008 0.16 0.027 0.307 0.042 0.325s0.124 0.054 0.242 0.079c0.299 0.063 0.589 0.15 0.713 0.213 0.174 0.089 0.18 0.126 0.077 0.505-0.102 0.375-0.166 0.503-0.252 0.503-0.032 0-0.13-0.030-0.218-0.068-0.633-0.267-1.389-0.226-1.582 0.085-0.074 0.119-0.065 0.327 0.019 0.44 0.093 0.125 0.404 0.309 0.837 0.495 0.566 0.242 0.782 0.371 1.015 0.605 0.32 0.321 0.463 0.66 0.463 1.097 0 0.646-0.361 1.172-1.004 1.464-0.343 0.156-0.356 0.163-0.393 0.237-0.022 0.043-0.035 0.189-0.036 0.378-0 0.17-0.010 0.324-0.022 0.342s-0.057 0.047-0.1 0.063c-0.094 0.036-0.569 0.037-0.656 0.002zM5.198 11.277c-0.407-0.176-0.493-0.722-0.16-1.014 0.056-0.049 0.15-0.103 0.208-0.119 0.066-0.018 0.554-0.030 1.302-0.030l1.196-0 0.149 0.074c0.355 0.177 0.441 0.622 0.176 0.915-0.2 0.222-0.171 0.218-1.551 0.217-1.029-0-1.238-0.007-1.32-0.043zM23.197 11.294c-0.349-0.105-0.512-0.565-0.314-0.885 0.062-0.1 0.126-0.158 0.235-0.216l0.15-0.079h1.209c0.824 0 1.243 0.010 1.316 0.032 0.14 0.042 0.304 0.179 0.352 0.295 0.021 0.051 0.039 0.169 0.039 0.263 0 0.191-0.058 0.332-0.187 0.455-0.171 0.162-0.179 0.163-1.505 0.161-0.669-0.001-1.252-0.013-1.295-0.026zM9.651 5.664c-0.183-0.087-1.786-1.687-1.853-1.849-0.091-0.221-0.036-0.507 0.131-0.673 0.183-0.183 0.475-0.23 0.711-0.115 0.121 0.059 1.748 1.686 1.82 1.82 0.114 0.213 0.059 0.568-0.111 0.722-0.092 0.084-0.3 0.162-0.431 0.162-0.076 0-0.183-0.026-0.267-0.067zM20.88 5.7c-0.145-0.042-0.306-0.222-0.358-0.401-0.050-0.171-0.037-0.308 0.044-0.466 0.066-0.128 1.696-1.749 1.824-1.814 0.061-0.031 0.162-0.050 0.268-0.050 0.33-0.001 0.574 0.221 0.597 0.545 0.022 0.303 0.012 0.316-0.943 1.27-0.708 0.707-0.886 0.871-0.987 0.906-0.136 0.048-0.306 0.052-0.447 0.011zM15.231 3.368c-0.156-0.079-0.273-0.241-0.313-0.433-0.021-0.101-0.028-0.529-0.023-1.297 0.009-1.122 0.010-1.149 0.071-1.263 0.238-0.445 0.845-0.445 1.083 0 0.062 0.116 0.062 0.129 0.062 1.367v1.25l-0.079 0.134c-0.114 0.195-0.264 0.284-0.494 0.295-0.149 0.007-0.21-0.003-0.308-0.053z"></path>
</svg>