<svg xmlns="http://www.w3.org/2000/svg" width="30" height="30" viewBox="0 0 48.525 48.525">
  <path id="Subtraction_1" data-name="Subtraction 1" d="M43.326,48.525H5.2a5.205,5.205,0,0,1-5.2-5.2V5.2A5.2,5.2,0,0,1,5.2,0H43.326a5.205,5.205,0,0,1,5.2,5.2V43.326A5.206,5.206,0,0,1,43.326,48.525ZM34.519,13.782a.1.1,0,0,1,.077.028c.1.1-.042.323-.141.44l-13.317,15a1.26,1.26,0,0,0-.126,1.5l5.1,8.184a.66.66,0,0,0,.6.366.648.648,0,0,0,.6-.382L39.241,10.061a.646.646,0,0,0-.04-.629.656.656,0,0,0-.848-.243L9.495,21.766a.651.651,0,0,0-.375.6.658.658,0,0,0,.4.6l7.806,4.41a1.271,1.271,0,0,0,.62.162,1.252,1.252,0,0,0,.818-.3L34.155,13.968A.743.743,0,0,1,34.519,13.782Z"/>
</svg>
