<svg xmlns="http://www.w3.org/2000/svg" id="icon-service-icon" viewBox="0 0 34 32">
<path d="M15.333 0.13c-0.842 0.003-0.826 0.205-0.91 1.433-0.043 0.622-0.098 0.688-0.737 0.878-0.38 0.113-1.030 0.38-1.446 0.593l-0.755 0.388-0.633-0.619c-0.348-0.34-0.75-0.619-0.892-0.619-0.327 0-1.885 1.569-1.885 1.898 0 0.135 0.282 0.534 0.626 0.887l0.626 0.642-0.352 0.574c-0.194 0.316-0.485 0.982-0.646 1.481l-0.294 0.906-0.8 0.003c-1.196 0.004-1.255 0.085-1.196 1.652l0.051 1.366 2.012 0.173 0.34 1.012c0.187 0.556 0.465 1.202 0.617 1.434 0.267 0.407 0.254 0.444-0.354 1.067-0.347 0.355-0.63 0.762-0.63 0.904 0 0.327 1.569 1.885 1.898 1.885 0.135 0 0.534-0.282 0.887-0.626l0.642-0.626 0.574 0.352c0.316 0.194 0.982 0.484 1.481 0.646l0.906 0.294v0.924c0 0.736 0.068 0.96 0.334 1.102 0.426 0.228 2.076 0.223 2.471-0.008 0.229-0.133 0.302-0.403 0.302-1.11v-0.934l0.734-0.194c0.404-0.106 1.078-0.384 1.498-0.616l0.764-0.422 0.624 0.609c0.343 0.335 0.74 0.609 0.882 0.609 0.327 0 1.885-1.569 1.885-1.898 0-0.135-0.274-0.527-0.609-0.87l-0.609-0.624 0.422-0.764c0.232-0.42 0.509-1.095 0.616-1.498l0.194-0.734h0.937c1.115 0 1.294-0.215 1.294-1.554 0-1.335-0.18-1.554-1.281-1.554h-0.923l-0.292-0.906c-0.161-0.498-0.446-1.171-0.634-1.494l-0.341-0.587 0.614-0.629c0.338-0.346 0.614-0.745 0.614-0.887 0-0.327-1.569-1.885-1.898-1.885-0.135 0-0.527 0.274-0.87 0.609l-0.624 0.609-0.764-0.422c-0.42-0.232-1.091-0.508-1.49-0.614l-0.725-0.191-0.052-0.988-0.052-0.988-1.419-0.050c-0.298-0.011-0.538-0.020-0.732-0.020zM16.014 4.812c0.306-0.001 0.61 0.063 1.128 0.191 2.566 0.633 4.145 2.623 4.135 5.21-0.009 2.383-1.483 4.325-3.88 5.114-0.845 0.278-2.789 0.063-3.723-0.413-4.468-2.275-3.69-8.701 1.2-9.908 0.526-0.13 0.834-0.195 1.139-0.195zM6.208 20.355c-0.251-0.006-0.391 0.058-0.392 0.194-0.001 0.083 0.639 0.413 1.422 0.733s1.502 0.661 1.597 0.756c0.245 0.245 0.354 0.219 0.704-0.168s0.497-0.296-1.86-1.153c-0.639-0.232-1.147-0.355-1.471-0.362zM3.373 21.147c-0.194-0.001-0.304 0.043-0.304 0.141 0 0.086 0.663 0.485 1.473 0.887s1.984 1.041 2.607 1.42c1.271 0.772 1.27 0.772 1.274 0.473 0.001-0.119 0.046-0.377 0.098-0.573 0.084-0.313-0.149-0.473-1.858-1.278-1.373-0.647-2.708-1.064-3.29-1.069zM23.701 21.772c-1.189-0.010-2.439 0.125-3.542 0.407-1.291 0.331-1.93 0.376-5.322 0.377l-3.854 0.001-0.505 0.505c-0.659 0.659-0.67 1.379-0.030 2.088l0.475 0.527 3.798 0.35c4.652 0.428 4.575 0.413 4.575 0.877 0 0.366-0.023 0.368-2.805 0.261-2.667-0.102-5.472-0.432-6.84-0.805-0.345-0.094-1.418-0.666-2.385-1.27-2.389-1.493-4.829-2.707-5.668-2.819-0.844-0.113-1.413 0.281-1.568 1.085-0.084 0.436-0.010 0.641 0.388 1.074 0.66 0.717 10.426 6.349 11.627 6.705 0.88 0.261 1.474 0.259 8.169-0.023l7.219-0.305 0.416 0.391c0.486 0.456 1.509 0.658 3.415 0.672 1.27 0.010 1.382-0.020 1.856-0.494 0.278-0.278 0.505-0.687 0.505-0.91s0.117-1.841 0.261-3.595c0.291-3.559 0.231-3.966-0.651-4.422-0.329-0.17-1.214-0.3-2.454-0.361-1.784-0.088-1.968-0.068-2.287 0.251l-0.347 0.347-1.274-0.446c-0.855-0.299-1.982-0.455-3.171-0.466zM30.769 28.426c0.365 0 0.957 0.621 0.957 1.003 0 0.508-0.504 0.997-1.087 1.055-0.076 0.008-0.328-0.177-0.561-0.41s-0.424-0.509-0.424-0.612c0-0.283 0.81-1.036 1.114-1.036z"></path>
<path d="M18.275 7.231l1.279 1.309-2.115 2.11c-1.163 1.16-2.159 2.11-2.214 2.11s-0.616-0.536-1.249-1.192c-0.633-0.655-1.15-1.262-1.15-1.347s0.279-0.423 0.619-0.75l0.619-0.595 1.188 1.364 1.511-1.504z"></path>
</svg>