<svg xmlns="http://www.w3.org/2000/svg" id="icon-win-logo" viewBox="0 0 34 32">
<path fill="#ffd700" style="fill: var(--color1, #ffd700)" d="M21.616 31.251l-3.757-0.070-0.083-2.617c-0.046-1.439-0.091-4.451-0.101-6.694l-0.018-4.077 7.481 0.097c4.115 0.053 7.524 0.137 7.576 0.187s0.137 3.063 0.189 6.697l0.094 6.608-3.812-0.030c-2.097-0.017-5.503-0.062-7.57-0.101zM6.587 31.124l-5.904-0.077-0.035-6.701c-0.019-3.686 0.011-6.74 0.067-6.788 0.106-0.090 11.429 0.092 13.803 0.221l1.355 0.074 0.075 6.53c0.041 3.592 0.035 6.571-0.013 6.62-0.157 0.16-3.298 0.2-9.348 0.121zM19.070 16.225c-0.081-0.131 8.349-8.856 9.078-9.395l0.402-0.297 0.341 0.314c1.1 1.015 2.696 3.738 3.253 5.548 0.24 0.78 0.666 3.172 0.675 3.791 0.002 0.132-1.453 0.168-6.833 0.168-4.219 0-6.866-0.049-6.915-0.129zM6.251 16.010c-2.546-0.092-4.865-0.173-5.153-0.18l-0.523-0.013 0.081-1.040c0.234-2.982 1.531-5.943 3.575-8.16l0.575-0.623 0.798 0.785c1.524 1.501 8.9 9.177 8.945 9.308 0.056 0.165-2.168 0.145-8.297-0.077zM15.704 14.786c-0.078-0.027-2.305-2.256-4.949-4.954l-4.807-4.906 0.508-0.425c2.785-2.331 5.5-3.551 8.462-3.802l0.951-0.081 0.078 6.492c0.077 6.423 0.034 7.77-0.242 7.676zM17.461 8.248c-0.054-3.646-0.056-6.825-0.004-7.063l0.095-0.434 0.958 0.074c1.211 0.093 3.306 0.758 4.783 1.517 1.379 0.709 3.808 2.563 3.864 2.949 0.029 0.204-1.147 1.449-4.655 4.93-2.582 2.561-4.75 4.657-4.818 4.657-0.073 0-0.165-2.73-0.223-6.63z"></path>
</svg>