<?xml version="1.0" encoding="UTF-8" standalone="no"?>
<svg
   xmlns:dc="http://purl.org/dc/elements/1.1/"
   xmlns:cc="http://creativecommons.org/ns#"
   xmlns:rdf="http://www.w3.org/1999/02/22-rdf-syntax-ns#"
   xmlns:svg="http://www.w3.org/2000/svg"
   xmlns="http://www.w3.org/2000/svg"
   xmlns:sodipodi="http://sodipodi.sourceforge.net/DTD/sodipodi-0.dtd"
   xmlns:inkscape="http://www.inkscape.org/namespaces/inkscape"
   width="400"
   height="250"
   viewBox="0 0 105.83333 66.145837"
   version="1.1"
   id="svg2104"
   inkscape:version="1.0.2-2 (e86c870879, 2021-01-15)"
   sodipodi:docname="map-pl.svg">
  <defs
     id="defs2098" />
  <sodipodi:namedview
     id="base"
     pagecolor="#ffffff"
     bordercolor="#666666"
     borderopacity="1.0"
     inkscape:pageopacity="0.0"
     inkscape:pageshadow="2"
     inkscape:zoom="0.49497475"
     inkscape:cx="304.34484"
     inkscape:cy="-191.88311"
     inkscape:document-units="mm"
     inkscape:current-layer="layer1"
     inkscape:document-rotation="0"
     showgrid="false"
     units="px"
     inkscape:window-width="1366"
     inkscape:window-height="705"
     inkscape:window-x="-8"
     inkscape:window-y="-8"
     inkscape:window-maximized="1" />
  <metadata
     id="metadata2101">
    <rdf:RDF>
      <cc:Work
         rdf:about="">
        <dc:format>image/svg+xml</dc:format>
        <dc:type
           rdf:resource="http://purl.org/dc/dcmitype/StillImage" />
        <dc:title></dc:title>
      </cc:Work>
    </rdf:RDF>
  </metadata>
  <g
     inkscape:label="Warstwa 1"
     inkscape:groupmode="layer"
     id="layer1">
    <path
       style="fill:#000000;stroke-width:0.0444139"
       d="m 84.353549,7.0438635 c -0.243192,-0.147113 -0.481883,-0.3980009 -0.512863,-0.5390578 -0.04933,-0.2246943 0.02336,-0.6522648 0.127324,-0.7491613 0.0732,-0.068154 0.09364,-0.1402901 0.09364,-0.329226 0,-0.2026522 -0.01963,-0.2623807 -0.120548,-0.3677732 -0.107732,-0.1124554 -0.12056,-0.159002 -0.12056,-0.4376624 0,-0.2751902 -0.01309,-0.3240835 -0.111033,-0.4161388 -0.142579,-0.133963 -0.140062,-0.2015448 0.01108,-0.2977516 0.06716,-0.042832 0.138088,-0.098167 0.157581,-0.1231588 0.07481,-0.095851 -0.04561,-1.0765834 -0.16777,-1.3670002 -0.02598,-0.061727 0.003,-0.092427 0.138591,-0.1475006 0.398708,-0.161775 0.723635,-0.3267718 0.806317,-0.4094561 0.04863,-0.048638 0.175571,-0.1016898 0.281974,-0.1177991 0.398436,-0.060334 0.444651,-0.075747 0.420083,-0.1396868 -0.06726,-0.1753822 0.512794,-0.316904 1.461104,-0.3564422 0.75086,-0.031287 1.07192,0.010454 1.432337,0.186574 0.268806,0.1313142 0.695142,0.5045008 0.793389,0.694467 0.07229,0.1399033 0.04712,0.3900234 -0.03937,0.3900234 -0.02718,0 -0.256169,-0.2034343 -0.508836,-0.4520601 -0.415411,-0.408789 -0.465984,-0.445446 -0.528388,-0.38303 -0.06242,0.062423 -0.06192,0.082761 0.005,0.2130612 0.04098,0.079238 0.142699,0.2390072 0.226065,0.3550402 0.121686,0.1693723 0.151953,0.2537069 0.153524,0.4277417 0.002,0.278381 0.100482,0.5538967 0.227222,0.6386953 0.07773,0.052045 0.249304,0.066686 0.782626,0.066686 0.663496,0 0.685496,0.0031 0.768026,0.1044788 0.09364,0.1150807 0.08326,0.2141377 -0.05407,0.5173186 -0.126136,0.2784976 -0.108396,0.5212368 0.05085,0.6955737 0.0733,0.080244 0.133245,0.1882931 0.133245,0.2401298 0,0.1362325 0.126952,0.2311296 0.390674,0.2919967 0.127122,0.029274 0.231119,0.077534 0.231119,0.1071737 0,0.083668 -0.345889,0.3758892 -0.55367,0.4678052 -0.144331,0.063816 -0.202757,0.1227645 -0.255909,0.258059 -0.05024,0.1279916 -0.11784,0.2003214 -0.250168,0.2678411 -0.151731,0.07745 -0.191279,0.1268606 -0.242468,0.3032036 -0.08417,0.289983 -0.195216,0.2984874 -0.568037,0.043529 C 88.668928,6.4459339 88.512285,6.387135 88.105945,6.3404256 87.888507,6.3154898 87.744712,6.2705684 87.627908,6.1913141 87.33807,5.9946256 86.935143,5.9806843 86.771341,6.16173 c -0.0438,0.048403 -0.135793,0.086286 -0.209363,0.086286 -0.09676,0 -0.183032,0.05259 -0.328289,0.1998634 -0.183113,0.1857299 -0.21337,0.1999111 -0.428148,0.2004758 -0.343704,7.744e-4 -0.425319,0.036246 -0.522337,0.2264604 -0.09243,0.1810827 -0.124778,0.1956045 -0.530423,0.2378134 -0.199877,0.020833 -0.272531,0.00805 -0.399724,-0.068699 z"
       id="path1458" />
    <path
       style="fill:#000000;stroke-width:0.0444139"
       d="M 92.436899,8.8629623 C 92.351419,8.8405771 92.112724,8.8051115 91.906526,8.7841275 91.482113,8.7409093 91.402553,8.6839403 91.355514,8.3898595 91.320879,8.1730345 91.272552,8.1311193 90.726954,7.8441173 90.144539,7.5377691 90.127514,7.5215902 90.126688,7.273623 90.125914,7.022225 90.103531,6.9863114 89.894188,6.8991434 89.647786,6.7965474 89.683639,6.6709721 90.019782,6.459297 90.141428,6.3827024 90.214585,6.2975061 90.242605,6.1998209 90.273716,6.0915087 90.335134,6.0279777 90.483421,5.9508847 90.72334,5.826177 91.001197,5.543668 91.041371,5.3836122 91.080738,5.2265853 90.97351,5.1154304 90.721377,5.051938 90.570623,5.0139889 90.502984,4.9678677 90.446521,4.8646206 90.405342,4.7893433 90.326676,4.6591106 90.271713,4.5753189 90.152967,4.3942908 90.143945,4.2390141 90.24624,4.1367277 c 0.0443,-0.0443 0.08256,-0.1717501 0.09434,-0.3146118 0.01802,-0.2168024 0.03121,-0.242469 0.136507,-0.2638449 0.436353,-0.088601 0.643591,-0.2062382 0.720684,-0.4090063 0.04158,-0.1092645 0.04833,-0.1107051 0.385309,-0.081755 0.188655,0.016185 0.832683,0.1024022 1.431168,0.1914916 1.0577,0.1574456 1.122926,0.1619067 2.331734,0.1594827 0.927518,-0.00235 1.480636,-0.026412 2.176281,-0.096455 0.512988,-0.051659 1.052084,-0.1055619 1.198024,-0.1196886 l 0.2653,-0.025716 -0.25421,0.2665247 c -0.29426,0.3085012 -0.31659,0.4202753 -0.12748,0.637983 0.18602,0.2141461 0.22859,0.3162848 0.22859,0.5485538 0,0.1809123 0.0207,0.2281327 0.15544,0.3552416 0.0855,0.080655 0.15526,0.1729348 0.15501,0.2051148 -1.7e-4,0.032219 -0.0478,0.1584289 -0.10582,0.2805658 -0.10481,0.2208675 -0.36009,0.4945793 -0.63988,0.6861095 -0.0805,0.055141 -0.248567,0.2231765 -0.373254,0.3733184 -0.124688,0.1501494 -0.262615,0.2984253 -0.306513,0.3295053 -0.126852,0.089809 -1.558321,0.5356345 -1.889988,0.5886173 -0.16564,0.026488 -0.36172,0.084674 -0.435748,0.1294095 -0.074,0.044687 -0.254493,0.095347 -0.401062,0.1126257 -0.18143,0.021378 -0.329165,0.072567 -0.462864,0.1605584 -0.107999,0.071099 -0.237914,0.1293315 -0.288692,0.1294171 -0.124452,1.628e-4 -0.381009,0.160946 -0.381009,0.2387044 0,0.080748 -0.09716,0.1164441 -0.316724,0.1164441 -0.248922,0 -0.422223,0.1050593 -0.532664,0.3229063 -0.05236,0.1033243 -0.117539,0.2025289 -0.144782,0.2204812 -0.0636,0.0419 -0.230153,0.0357 -0.427072,-0.015799 z"
       id="path1456" />
    <path
       style="fill:#000000;stroke-width:0.0444139"
       d="m 77.424972,10.87394 c 0,-0.02339 -0.118314,-0.173005 -0.262916,-0.332572 -0.236153,-0.260592 -0.266087,-0.315604 -0.294228,-0.54084 -0.03171,-0.2536046 -0.005,-0.4041886 0.195739,-1.0877976 0.04652,-0.1587927 0.150604,-0.4333167 0.231271,-0.6100548 L 77.441515,7.9813105 77.3656,7.6586743 C 77.323816,7.4812163 77.251001,7.0839513 77.203771,6.7758528 77.156551,6.4677619 77.08735,6.1279945 77.050026,6.0208132 c -0.07632,-0.2191718 -0.09132,-0.6700085 -0.02638,-0.7914323 0.02809,-0.052431 0.117266,-0.089809 0.2591,-0.108668 0.311193,-0.04128 1.212937,-0.3533672 1.533717,-0.5308101 0.34171,-0.1890214 0.440289,-0.2205117 1.202125,-0.3840755 0.434852,-0.093333 0.688847,-0.1735238 0.865255,-0.2731153 0.189567,-0.1070025 0.331955,-0.1492508 0.591185,-0.1754057 0.187817,-0.018895 0.431159,-0.074119 0.540774,-0.1226085 0.254095,-0.1123857 0.578317,-0.4094249 0.766465,-0.702165 0.165916,-0.2581597 0.396402,-0.4218946 0.607124,-0.4312808 0.133646,-0.00621 0.147208,0.00806 0.217818,0.2204959 0.04138,0.1247697 0.0889,0.3765016 0.105436,0.5593889 0.02557,0.2824243 0.01873,0.3419431 -0.04521,0.3949493 -0.204902,0.1697986 -0.246596,0.2274279 -0.246596,0.3407894 0,0.067533 0.04994,0.1964569 0.111034,0.2863358 0.09102,0.1339319 0.111034,0.2168326 0.111034,0.4596884 0,0.2658661 0.01369,0.3118632 0.133247,0.4480411 0.155585,0.1772022 0.17096,0.3348567 0.04108,0.4210959 -0.074,0.0491 -0.100884,0.1356586 -0.136345,0.4384602 -0.02426,0.2074851 -0.08276,0.452811 -0.129892,0.5451684 -0.04712,0.092327 -0.08568,0.2188085 -0.08568,0.2810071 0,0.1342726 -0.20905,0.3593772 -0.360721,0.388405 -0.415924,0.07954 -0.461242,0.097563 -0.47413,0.1877125 -0.01289,0.090514 0.257389,0.3830536 0.459814,0.4976468 0.08065,0.045618 0.07179,0.063741 -0.132973,0.2724256 -0.12063,0.122934 -0.284281,0.2543564 -0.36367,0.2920278 -0.07934,0.037639 -0.156644,0.1072198 -0.171657,0.1545483 -0.04108,0.1292544 -0.447922,0.476674 -0.627813,0.536046 -0.215212,0.07094 -0.260863,0.01402 -0.260863,-0.326245 0,-0.2744084 -2.62e-4,-0.2752449 -0.135731,-0.2884805 -0.07471,-0.00696 -0.189586,0.00696 -0.255385,0.032219 -0.09887,0.037638 -0.119642,0.072802 -0.119642,0.2031397 0,0.1866668 -0.06635,0.2227738 -0.495506,0.2697778 -0.167326,0.01836 -0.355463,0.0735 -0.463296,0.135922 -0.09988,0.05778 -0.206714,0.105059 -0.237463,0.105059 -0.03071,0 -0.144662,0.07813 -0.253148,0.173625 -0.231866,0.2041 -0.539797,0.295326 -0.843228,0.249825 -0.194189,-0.02912 -0.208727,-0.02323 -0.373879,0.150336 -0.104006,0.1093336 -0.183668,0.2437536 -0.201831,0.3405336 -0.03494,0.186078 -0.317144,0.506917 -0.445938,0.506917 -0.04722,0 -0.130245,0.03114 -0.184533,0.06916 -0.05427,0.03802 -0.09867,0.05003 -0.09867,0.02664 z"
       id="path1454" />
    <path
       style="fill:#000000;stroke-width:0.0444139"
       d="m 100.56101,12.460104 c -0.0824,-0.06413 -0.22021,-0.09898 -0.48856,-0.123685 -0.416533,-0.03826 -0.606343,-0.117545 -0.970043,-0.405026 -0.21488,-0.169868 -0.23243,-0.197332 -0.20781,-0.325199 0.0148,-0.07683 0.0799,-0.182772 0.1445,-0.23546 l 0.1176,-0.09575 -0.12522,-0.213681 c -0.0689,-0.117521 -0.1489,-0.294258 -0.17784,-0.392757 -0.0507,-0.172301 -0.0608,-0.179929 -0.26829,-0.20129 -0.18513,-0.01905 -0.21931,-0.03795 -0.24154,-0.133242 -0.0227,-0.09717 -0.05613,-0.114337 -0.26824,-0.137525 -0.258193,-0.02819 -0.551189,-0.15537 -0.670054,-0.2907886 -0.115894,-0.132043 -0.216317,-0.357093 -0.216317,-0.484782 0,-0.088 -0.08348,-0.200189 -0.327992,-0.44076 L 96.533221,8.6574447 96.50654,8.307656 c -0.01468,-0.1923826 -0.03205,-0.4686576 -0.03843,-0.6139356 l -0.01166,-0.264147 0.266483,-0.053597 c 0.146561,-0.029508 0.356418,-0.085883 0.466347,-0.1253579 0.10992,-0.039501 0.289791,-0.09273 0.39972,-0.1184192 0.170741,-0.039887 0.261348,-0.1109997 0.621793,-0.4884066 0.232062,-0.24298 0.444382,-0.4414422 0.471792,-0.4410395 0.0746,7.744e-4 0.3973,-0.3649457 0.50106,-0.5682952 0.11965,-0.2345528 0.18005,-0.5112776 0.13078,-0.5993056 -0.0215,-0.038335 -0.0951,-0.1259545 -0.16374,-0.1946438 -0.0894,-0.089507 -0.14031,-0.2043563 -0.17981,-0.4054748 -0.0409,-0.208476 -0.0931,-0.3226429 -0.2029,-0.4441833 l -0.14781,-0.1635948 0.39357,-0.4107876 c 0.44242,-0.4617566 0.52256,-0.4916133 0.7611,-0.2835242 0.14341,0.1250869 0.279383,0.2072527 0.781693,0.4723284 0.21691,0.1144615 0.27085,0.1700075 0.38288,0.3942059 0.1052,0.2105366 0.13427,0.3349112 0.15048,0.6435902 0.0119,0.2266307 0.0424,0.4008904 0.0749,0.4274548 0.0992,0.081151 0.15499,0.3409295 0.15642,0.7287537 7.7e-4,0.2681424 0.0211,0.4081463 0.0678,0.4697106 0.0364,0.048252 0.10674,0.2234777 0.15617,0.3894269 0.0494,0.1659499 0.15885,0.4456944 0.24318,0.6216656 0.0844,0.1759704 0.15333,0.3552491 0.15333,0.3984036 0,0.043059 0.068,0.2435757 0.15091,0.4453839 0.28975,0.7044958 0.49405,1.6460709 0.46035,2.1216515 -0.0307,0.432101 -0.10585,0.540646 -0.52635,0.759415 -0.28327,0.147377 -0.41483,0.25146 -0.62183,0.491962 -0.14439,0.167769 -0.26253,0.346334 -0.26253,0.3968 0,0.05042 -0.0411,0.144891 -0.0913,0.209832 -0.0503,0.06498 -0.13518,0.186466 -0.18876,0.270079 -0.12071,0.18834 -0.15685,0.198733 -0.30095,0.08649 z"
       id="path1452" />
    <path
       style="fill:#000000;stroke-width:0.0444139"
       d="m 89.596084,12.623327 c -0.03997,-0.04825 -0.143796,-0.06235 -0.409944,-0.05545 -0.389012,0.01007 -0.358071,0.02711 -0.582849,-0.322992 -0.07904,-0.123089 -0.138157,-0.161054 -0.291449,-0.187224 -0.114991,-0.01968 -0.232358,-0.07613 -0.291963,-0.140383 -0.17672,-0.190687 -0.523536,-0.207269 -0.570605,-0.02726 -0.03182,0.121742 -0.124788,0.109133 -0.316046,-0.04291 -0.09011,-0.07156 -0.222241,-0.14304 -0.293595,-0.158708 -0.07138,-0.01572 -0.175249,-0.08669 -0.230867,-0.157739 -0.05568,-0.0711 -0.149143,-0.191369 -0.207822,-0.267291 -0.0879,-0.113695 -0.130949,-0.134606 -0.244269,-0.118535 -0.07571,0.01076 -0.171192,0.03416 -0.212241,0.05204 -0.06031,0.02625 -0.07732,0.0039 -0.0888,-0.115367 -0.014,-0.14555 -0.01742,-0.147734 -0.214047,-0.136635 -0.43716,0.02463 -0.505091,-0.07729 -0.235469,-0.353399 0.271272,-0.277824 0.209381,-0.562501 -0.180618,-0.8308226 -0.227937,-0.156841 -0.265411,-0.26317 -0.223457,-0.634079 0.02537,-0.22382 0.05809,-0.2994635 0.201649,-0.4653119 0.219753,-0.2538999 0.218606,-0.3654877 -0.006,-0.6094359 -0.19736,-0.2141142 -0.220557,-0.3121644 -0.09031,-0.381853 0.04802,-0.025632 0.108154,-0.121339 0.133618,-0.2125267 0.02547,-0.091219 0.101419,-0.2657344 0.168766,-0.3878704 0.110924,-0.2011497 0.137041,-0.2219608 0.277213,-0.220954 0.08508,5.269e-4 0.211003,0.016344 0.27975,0.034853 0.127817,0.034543 0.170628,0.00235 0.485688,-0.3668747 0.04581,-0.053672 0.131544,-0.091017 0.208678,-0.091017 0.07813,0 0.179287,-0.044846 0.250762,-0.1110307 0.156061,-0.1446354 0.368615,-0.1466255 0.536887,-0.00545 0.13394,0.1127029 0.402493,0.2042473 0.600388,0.20465 0.289768,5.345e-4 0.57571,0.099979 0.769154,0.267446 0.199494,0.1726722 0.352937,0.2223006 0.893236,0.2889536 l 0.227847,0.028116 0.02124,0.2211469 c 0.02839,0.2957228 0.184342,0.4518285 0.743237,0.7441037 0.449101,0.2348557 0.489736,0.2761198 0.489736,0.497182 0,0.07125 0.03856,0.1681876 0.08578,0.2153383 0.08468,0.084674 0.08447,0.086587 -0.02034,0.1552768 -0.143757,0.09424 -0.230678,0.386105 -0.160702,0.539694 0.06514,0.142892 0.0439,0.177171 -0.149153,0.240888 -0.118062,0.03896 -0.162978,0.08417 -0.190766,0.191995 -0.02396,0.09293 -0.06746,0.1456026 -0.127566,0.1544246 -0.195206,0.02874 -0.252838,0.41102 -0.09937,0.65932 l 0.09283,0.15022 -0.126158,0.130353 c -0.296947,0.306829 -0.303964,0.321064 -0.300612,0.609328 0.002,0.15918 0.02809,0.304628 0.06242,0.346033 0.05095,0.06142 0.03967,0.09162 -0.08095,0.216059 -0.07712,0.07954 -0.140191,0.187208 -0.140191,0.239231 0,0.106081 -0.192901,0.27869 -0.311446,0.27869 -0.04259,0 -0.101519,-0.02912 -0.131,-0.06451 z"
       id="path1450" />
    <path
       style="fill:#000000;stroke-width:0.0444139"
       d="m 79.00166,16.66662 c -0.05507,-0.04183 -0.186506,-0.06792 -0.345597,-0.06885 -0.184996,-7.74e-4 -0.263841,-0.01983 -0.282045,-0.06722 -0.01389,-0.03625 -0.142176,-0.10849 -0.285066,-0.160589 -0.367617,-0.134041 -0.429065,-0.212961 -0.361767,-0.4646 0.100483,-0.37551 0.0738,-0.51903 -0.146767,-0.789752 -0.109927,-0.134947 -0.199867,-0.26915 -0.199867,-0.298231 0,-0.02912 0.09313,-0.183352 0.206915,-0.342819 0.196081,-0.274803 0.206493,-0.304126 0.198992,-0.560821 -0.01611,-0.551637 -0.104209,-1.168251 -0.211457,-1.480276 l -0.11038,-0.321126 0.117821,-0.201049 c 0.136184,-0.232385 0.16648,-0.564779 0.06826,-0.748626 -0.03463,-0.06482 -0.05437,-0.12649 -0.0438,-0.137023 0.01047,-0.01045 0.118324,-0.056 0.239527,-0.100969 0.230303,-0.08548 0.402463,-0.277042 0.448677,-0.499165 0.03524,-0.169163 0.130637,-0.325199 0.257458,-0.420934 0.109605,-0.08277 0.117942,-0.08287 0.290473,-0.0046 0.176892,0.07974 0.178624,0.07964 0.412965,-0.035 0.129429,-0.06335 0.343625,-0.195945 0.475992,-0.294707 0.132379,-0.09877 0.274344,-0.179565 0.315493,-0.179565 0.04118,0 0.128604,-0.04229 0.194329,-0.09404 0.08105,-0.06374 0.222311,-0.105617 0.439023,-0.130098 0.477231,-0.05382 0.481269,-0.05669 0.528762,-0.3718 0.01571,-0.1038817 0.104156,-0.1412896 0.136274,-0.057624 0.03081,0.080244 -0.04782,0.8131173 -0.107278,0.9997853 -0.02567,0.08055 -0.124717,0.2366283 -0.220155,0.3469083 -0.09545,0.110271 -0.173528,0.236466 -0.173528,0.280426 0,0.04399 -0.04692,0.149011 -0.104188,0.233446 -0.147865,0.217901 -0.171213,0.350865 -0.0886,0.504593 0.0443,0.08236 0.08186,0.30847 0.100584,0.604688 0.01843,0.292516 0.05286,0.500861 0.09001,0.545711 0.04994,0.0601 0.05105,0.158313 0.007,0.572865 -0.06504,0.608545 -0.04893,0.662148 0.310318,1.03631 0.14567,0.151698 0.29458,0.346946 0.330907,0.433898 0.06494,0.155378 0.07048,0.158073 0.323446,0.158073 0.151097,0 0.292679,0.02579 0.342829,0.06242 0.07873,0.05746 0.08095,0.07944 0.02819,0.277577 -0.09978,0.374866 -0.274284,0.536456 -0.274284,0.253992 0,-0.06118 -0.02064,-0.149987 -0.04601,-0.197238 -0.09937,-0.185606 -0.631418,-0.05189 -0.991745,0.249377 -0.166943,0.139547 -0.208053,0.204124 -0.232137,0.364698 -0.02265,0.151033 -0.0732,0.238395 -0.223569,0.38667 -0.106864,0.105361 -0.194309,0.220652 -0.194309,0.256193 0,0.09978 -0.160701,0.223067 -0.252192,0.193552 -0.0445,-0.01441 -0.115152,-0.08649 -0.157007,-0.160218 -0.04188,-0.07381 -0.107832,-0.146302 -0.146605,-0.161187 -0.0879,-0.03369 -0.288057,0.14634 -0.288057,0.259066 0,0.045 -0.06494,0.152404 -0.144351,0.238767 -0.13421,0.146021 -0.150571,0.152318 -0.233172,0.08961 z"
       id="path1448" />
    <path
       style="fill:#000000;stroke-width:0.0444139"
       d="m 86.248247,18.161937 c -0.06987,-0.138083 -0.141169,-0.433596 -0.204681,-0.848311 -0.02376,-0.155114 -0.06565,-0.309074 -0.09313,-0.342137 -0.02749,-0.03299 -0.157984,-0.09152 -0.290111,-0.129943 -0.214497,-0.06235 -0.234825,-0.07843 -0.189869,-0.150452 0.127525,-0.204201 -0.14409,-0.672131 -0.39015,-0.672131 -0.06061,0 -0.191108,0.0649 -0.28998,0.144342 -0.162413,0.130423 -0.208233,0.144325 -0.474845,0.144109 -0.230757,-1.71e-4 -0.348336,-0.02649 -0.539362,-0.120549 -0.341843,-0.168358 -0.573123,-0.372669 -0.6653,-0.587727 -0.04329,-0.101048 -0.193212,-0.312746 -0.333112,-0.470432 -0.13989,-0.157693 -0.304497,-0.393353 -0.365795,-0.523692 l -0.111446,-0.236962 -0.250381,0.0091 c -0.348849,0.0127 -0.344096,0.01433 -0.408212,-0.140476 -0.03162,-0.07644 -0.193978,-0.286103 -0.3607,-0.465916 -0.345829,-0.372977 -0.347037,-0.378267 -0.231251,-1.009171 0.07179,-0.391333 0.07179,-0.393122 -0.02739,-0.527263 -0.09102,-0.123089 -0.09464,-0.149251 -0.04299,-0.305961 0.05115,-0.154944 0.0447,-0.207749 -0.06695,-0.551101 -0.110661,-0.340194 -0.116591,-0.387701 -0.05689,-0.456134 0.03665,-0.04198 0.09978,-0.178442 0.140373,-0.303181 0.04058,-0.124739 0.124988,-0.27464 0.187584,-0.333114 0.160107,-0.149554 0.246192,-0.3332926 0.277907,-0.5931476 0.02668,-0.218476 0.03151,-0.224687 0.204973,-0.261894 0.413992,-0.0888 0.756366,-0.306386 0.890638,-0.5660328 0.03544,-0.06854 0.135581,-0.1583593 0.222542,-0.1996242 0.196504,-0.093233 0.552351,-0.521632 0.552351,-0.6649434 0,-0.067533 -0.0442,-0.133405 -0.12214,-0.1817873 -0.163208,-0.1013493 -0.322006,-0.243986 -0.322006,-0.2892548 0,-0.020137 0.05074,-0.036632 0.112806,-0.036632 0.266278,0 0.642231,-0.3009735 0.642231,-0.5141278 0,-0.1736632 0.08175,-0.1659567 0.300571,0.028267 0.276196,0.2452026 0.436234,0.3081371 0.783532,0.3081371 0.158125,0 0.300099,0.020447 0.315503,0.045307 0.01541,0.024936 -0.02336,0.1064144 -0.08619,0.1810751 -0.06283,0.07474 -0.114216,0.1851569 -0.114216,0.2455667 0,0.1526514 0.107369,0.3447395 0.242004,0.4329613 0.153009,0.1002803 0.144843,0.236048 -0.01983,0.3296371 -0.157441,0.089507 -0.206967,0.2257237 -0.245459,0.675244 -0.03675,0.429057 0.0091,0.542063 0.288641,0.714161 0.301558,0.1855516 0.326417,0.2980926 0.117024,0.5298566 -0.116048,0.128465 -0.160337,0.218042 -0.160337,0.324317 0,0.235839 0.0886,0.314295 0.3844,0.340588 0.241631,0.02145 0.260559,0.03129 0.273346,0.141979 0.02255,0.195202 0.121737,0.245164 0.298125,0.150165 0.184522,-0.09937 0.267084,-0.07125 0.346061,0.117629 0.07843,0.187596 0.13275,0.230356 0.437812,0.344492 0.137938,0.05166 0.274607,0.122532 0.303713,0.1576 0.126419,0.152311 0.576968,0.117986 0.576968,-0.04399 0,-0.09978 0.05961,-0.08286 0.207862,0.05878 0.07964,0.07606 0.203744,0.137789 0.311949,0.155092 0.143315,0.02285 0.190514,0.05476 0.232912,0.157127 0.0292,0.07055 0.113078,0.185691 0.186285,0.255736 0.122895,0.11759 0.159262,0.127357 0.47422,0.127357 h 0.341128 l 0.01369,0.141521 c 0.0144,0.14888 -0.07873,0.374015 -0.21792,0.526659 -0.04551,0.04996 -0.109978,0.169861 -0.143184,0.266485 -0.04611,0.134056 -0.09404,0.186853 -0.202193,0.222828 -0.238459,0.07924 -0.338357,0.214045 -0.336072,0.453438 10e-4,0.115523 0.01822,0.273913 0.03806,0.351959 0.03292,0.129563 0.02306,0.150095 -0.113339,0.235807 -0.118192,0.07427 -0.194673,0.08901 -0.365976,0.07048 -0.40353,-0.0436 -0.448254,0.0426 -0.516397,0.995254 -0.0585,0.817455 -0.07531,0.90299 -0.170639,0.866094 -0.232137,-0.08981 -0.294751,-0.07489 -0.496795,0.11872 -0.110288,0.105687 -0.238922,0.213619 -0.28585,0.239835 -0.08357,0.04663 -0.08337,0.05042 0.0091,0.180216 0.05185,0.07288 0.127284,0.214788 0.167507,0.315309 0.04017,0.100482 0.101549,0.193676 0.136296,0.207012 0.0732,0.02812 0.08558,0.115856 0.01641,0.115856 -0.02578,0 -0.120297,0.04996 -0.210167,0.111038 -0.225653,0.153333 -0.432256,0.148864 -0.513205,-0.01107 z"
       id="path1446" />
    <path
       style="fill:#000000;stroke-width:0.0444139"
       d="m 96.162086,18.654859 c -0.03264,-0.03927 -0.199897,-0.135535 -0.371721,-0.213835 -0.217023,-0.09887 -0.328705,-0.178117 -0.365773,-0.259477 -0.0714,-0.156671 -0.230741,-0.189524 -0.472153,-0.09736 -0.230296,0.088 -0.319015,0.06808 -0.555183,-0.124817 -0.09546,-0.07793 -0.234927,-0.175219 -0.309978,-0.216228 -0.07602,-0.04151 -0.165531,-0.144148 -0.202088,-0.231596 -0.04237,-0.101496 -0.104769,-0.166862 -0.176354,-0.184831 -0.19911,-0.04996 -0.188949,-0.161883 0.02718,-0.299416 0.139857,-0.089 0.165582,-0.303189 0.05403,-0.450581 -0.03583,-0.0474 -0.06528,-0.130826 -0.06528,-0.18535 0,-0.0546 -0.04992,-0.158514 -0.111037,-0.2311 -0.148809,-0.176839 -0.144857,-0.274509 0.01108,-0.274827 0.246052,-5.33e-4 0.452847,-0.0884 0.521798,-0.22168 0.07837,-0.151513 0.0884,-0.493612 0.01661,-0.565383 -0.02752,-0.0275 -0.07392,-0.156431 -0.103133,-0.286475 l -0.05303,-0.236428 -0.500084,-0.02223 c -0.577778,-0.02563 -0.626072,-0.05669 -0.626072,-0.401587 0,-0.287141 -0.06897,-0.44931 -0.235397,-0.553308 -0.07811,-0.04887 -0.178075,-0.168777 -0.222023,-0.266486 -0.04388,-0.09766 -0.104878,-0.227621 -0.135427,-0.28869 l -0.05554,-0.111038 h -0.708422 c -0.593761,0 -0.7317,-0.0127 -0.852178,-0.07853 -0.181854,-0.09937 -0.455845,-0.338381 -0.455845,-0.397629 0,-0.02478 0.06001,-0.113354 0.133245,-0.196805 0.143333,-0.163254 0.16186,-0.259352 0.08326,-0.431877 -0.0741,-0.162541 -0.01178,-0.397862 0.167438,-0.632647 0.183324,-0.240169 0.207016,-0.423706 0.08417,-0.651855 -0.09565,-0.177535 -0.07028,-0.282269 0.08236,-0.340293 0.05971,-0.0227 0.135178,-0.09736 0.167699,-0.16588 0.03252,-0.06854 0.122512,-0.1525346 0.199998,-0.1866516 0.158628,-0.06986 0.190757,-0.149746 0.191622,-0.476588 7.75e-4,-0.264045 0.02729,-0.293507 0.351306,-0.389063 0.216871,-0.06389 0.264671,-0.0642 0.502543,-0.0031 0.147878,0.03834 0.392152,0.06242 0.558379,0.05507 l 0.295496,-0.01309 0.136199,-0.2442649 0.136208,-0.2442804 0.309348,-0.034157 c 0.276065,-0.03044 0.324644,-0.050727 0.451438,-0.1887655 0.07811,-0.085077 0.183864,-0.1546416 0.234944,-0.1546416 0.08206,0 0.238308,-0.072257 0.550585,-0.2547137 0.05168,-0.030205 0.169466,-0.055141 0.261801,-0.055451 0.09233,-2.786e-4 0.282206,-0.048252 0.421937,-0.1063448 0.139715,-0.058086 0.36678,-0.1145462 0.50459,-0.1253898 l 0.250541,-0.019751 0.0318,0.5086128 c 0.01745,0.2797369 0.04892,0.5684655 0.06989,0.6416159 0.02165,0.075512 0.153567,0.237442 0.305321,0.374774 0.213205,0.192941 0.280839,0.287776 0.334796,0.469463 0.126878,0.4272446 0.354203,0.6517926 0.768749,0.7593216 0.127876,0.03322 0.263336,0.10279 0.308476,0.158537 0.05773,0.07125 0.149145,0.107793 0.322892,0.129068 0.23805,0.02912 0.24289,0.0326 0.26909,0.193893 0.0147,0.09031 0.0523,0.195048 0.0836,0.232711 0.0466,0.05607 0.0424,0.121733 -0.0226,0.361979 -0.0768,0.283849 -0.0768,0.29851 0.003,0.446523 0.0961,0.178465 0.58003,0.516017 0.8436,0.588439 0.0977,0.02687 0.27757,0.04926 0.399723,0.04972 0.12214,5.34e-4 0.27203,0.02966 0.33311,0.0649 0.061,0.03524 0.16053,0.08618 0.22106,0.113129 l 0.11004,0.04902 -0.13548,0.06568 c -0.0771,0.03733 -0.20624,0.176668 -0.29981,0.323573 -0.0904,0.141886 -0.21426,0.304861 -0.275273,0.362173 -0.1,0.09394 -0.1254,0.09897 -0.25752,0.05111 -0.27844,-0.100692 -0.5006,-0.05964 -0.56285,0.10413 -0.0283,0.07427 -0.0883,0.108977 -0.22978,0.132615 -0.10533,0.01766 -0.20439,0.05236 -0.22012,0.07714 -0.0157,0.02478 -0.21754,0.05731 -0.448437,0.07226 -0.2309,0.01503 -0.447864,0.04941 -0.482146,0.07659 -0.03432,0.02718 -0.122187,0.06374 -0.195334,0.08125 -0.250952,0.06018 -0.320943,0.222014 -0.168761,0.390171 0.06578,0.07257 0.06763,0.09656 0.01502,0.18099 -0.03339,0.0536 -0.0761,0.265594 -0.09484,0.471313 -0.03792,0.416116 -0.119234,0.574212 -0.333168,0.64782 -0.20682,0.07117 -0.240121,0.107607 -0.240121,0.262853 0,0.108598 0.04774,0.20074 0.184049,0.355667 0.178452,0.202731 0.185332,0.222178 0.225865,0.639146 0.02299,0.236528 0.03012,0.63992 0.01577,0.896399 -0.02979,0.535425 -0.05705,0.577 -0.378719,0.578045 -0.188362,7.75e-4 -0.240977,0.01867 -0.481089,0.164959 -0.07383,0.045 -0.09998,0.04198 -0.148902,-0.01697 z"
       id="path1444" />
    <path
       style="fill:#000000;stroke-width:0.0444139"
       d="m 91.287351,19.559623 c -0.06655,-0.124337 -0.222249,-0.209616 -0.38275,-0.209616 -0.08387,0 -0.125795,-0.04283 -0.194753,-0.198678 -0.109473,-0.24748 -0.309623,-0.377919 -0.582475,-0.379592 -0.305133,-0.0015 -0.526456,-0.06792 -0.640733,-0.191252 -0.134281,-0.144882 -0.421663,-0.188378 -0.804373,-0.121725 -0.292405,0.05096 -0.293785,0.05065 -0.442041,-0.07954 -0.08941,-0.07845 -0.225461,-0.143334 -0.341067,-0.162557 -0.105799,-0.01766 -0.246322,-0.05956 -0.312281,-0.09333 -0.06595,-0.03377 -0.165897,-0.06188 -0.222078,-0.0625 -0.150019,-0.0023 -0.390824,-0.402927 -0.390824,-0.651142 0,-0.23429 0.112604,-0.324781 0.404165,-0.324781 0.135581,0 0.227112,-0.02455 0.265896,-0.07125 0.03937,-0.04756 0.07561,-0.3311 0.108457,-0.849705 0.05558,-0.87792 0.05457,-0.875635 0.415552,-0.923614 0.276236,-0.03671 0.421321,-0.09646 0.539111,-0.221782 0.0887,-0.09444 0.09515,-0.130842 0.06353,-0.36284 -0.01933,-0.141816 -0.03051,-0.29782 -0.02497,-0.346683 0.01238,-0.108947 0.163681,-0.244265 0.273023,-0.244265 0.114045,0 0.220317,-0.120169 0.220317,-0.249114 0,-0.07141 0.06957,-0.177101 0.199867,-0.303761 0.146737,-0.142606 0.199868,-0.228651 0.199868,-0.323712 0,-0.145333 0.130104,-0.290239 0.327857,-0.365178 0.155898,-0.05909 0.26064,-0.02951 0.499251,0.140848 0.232538,0.16605 0.411655,0.188711 1.01299,0.128193 0.580958,-0.05847 0.662117,-0.02718 0.740885,0.285646 0.04724,0.187674 0.156537,0.317656 0.374817,0.445825 0.06184,0.03625 0.08861,0.129208 0.114032,0.395167 0.01963,0.20513 0.05974,0.374224 0.09776,0.412329 0.0448,0.04484 0.209388,0.07203 0.537295,0.0887 0.269898,0.01378 0.486283,0.04523 0.504372,0.07319 0.05303,0.08226 0.186322,0.531647 0.187019,0.630673 8.39e-4,0.153418 -0.137726,0.240052 -0.384584,0.240052 -0.383317,0 -0.479721,0.234662 -0.235129,0.572308 0.07409,0.102247 0.14683,0.250151 0.161697,0.328661 0.01493,0.07853 0.04699,0.168226 0.07148,0.199352 0.0245,0.03114 0.03667,0.06211 0.0271,0.06901 -0.01007,0.007 -0.07241,0.0467 -0.139564,0.08881 -0.06712,0.04198 -0.122506,0.100923 -0.122959,0.130896 -5.2e-4,0.02997 -0.06041,0.142452 -0.133237,0.249935 -0.07291,0.107491 -0.132432,0.231045 -0.132432,0.274571 0,0.04353 -0.06133,0.122795 -0.136333,0.176188 -0.07501,0.05336 -0.153508,0.142272 -0.1745,0.197517 -0.03314,0.08699 -0.0766,0.102883 -0.325383,0.118713 -0.357198,0.02277 -0.429715,0.07834 -0.429715,0.329452 0,0.1474 0.02098,0.204062 0.0888,0.240401 0.09555,0.05119 0.121717,0.240911 0.04019,0.291299 -0.02676,0.01649 -0.106355,-0.01254 -0.176892,-0.06475 -0.125938,-0.09313 -0.12978,-0.09333 -0.212508,-0.01053 -0.04631,0.04631 -0.11696,0.182748 -0.156931,0.30311 -0.03994,0.120378 -0.127792,0.284849 -0.195117,0.365496 l -0.122421,0.146649 z"
       id="path1442" />
    <path
       style="fill:#000000;stroke-width:0.0444139"
       d="m 99.898437,21.901567 c -0.23204,-0.05909 -0.49187,-0.108085 -0.57737,-0.108805 -0.22393,-0.0015 -0.37752,-0.09172 -0.37752,-0.220822 0,-0.07737 0.066,-0.157655 0.23666,-0.288008 0.30718,-0.234717 0.34051,-0.296915 0.25138,-0.469246 -0.0917,-0.177428 -0.31304,-0.309531 -0.51888,-0.309749 -0.10701,-8.4e-5 -0.20538,-0.0357 -0.28288,-0.102363 -0.1028,-0.08841 -0.1219,-0.145294 -0.14168,-0.421925 l -0.0228,-0.319747 h -0.252034 c -0.152837,0 -0.285956,0.02563 -0.338236,0.06529 -0.144145,0.109025 -0.23382,0.07988 -0.329124,-0.106956 -0.207567,-0.406838 -0.289322,-1.624981 -0.13208,-1.967738 0.04631,-0.100978 0.04229,-0.196271 -0.02374,-0.555183 -0.09716,-0.527984 -0.164365,-0.701887 -0.342155,-0.885579 -0.163593,-0.16904 -0.142919,-0.26898 0.05974,-0.288621 0.218381,-0.02114 0.33024,-0.217545 0.367778,-0.645651 0.0167,-0.190059 0.06142,-0.413614 0.09947,-0.496779 0.05529,-0.120719 0.0594,-0.183057 0.02072,-0.309082 -0.05093,-0.166096 -0.01728,-0.22598 0.127817,-0.227443 0.03734,-2.64e-4 0.11201,-0.0316 0.165984,-0.06947 0.06091,-0.04267 0.245759,-0.07863 0.48734,-0.09484 0.21405,-0.01441 0.41724,-0.0484 0.45153,-0.07559 0.0343,-0.02718 0.17419,-0.05948 0.3109,-0.07172 0.24011,-0.02145 0.24813,-0.02641 0.23576,-0.144341 -0.015,-0.14342 0.0675,-0.161086 0.23623,-0.05058 0.23817,0.15606 0.492053,0.0055 0.775423,-0.460927 0.0782,-0.128643 0.17895,-0.253552 0.22386,-0.2776 0.12104,-0.06475 0.3429,-0.05298 0.46113,0.02447 0.0572,0.03749 0.16923,0.08689 0.24893,0.10973 0.0796,0.02285 0.26115,0.117094 0.40325,0.20942 l 0.25834,0.167871 0.002,0.579602 c 7.8e-4,0.368183 0.0201,0.597865 0.0519,0.62965 0.0372,0.03718 0.0246,0.09132 -0.0487,0.209862 -0.10839,0.175391 -0.16483,0.581842 -0.11654,0.83928 0.0162,0.08669 0.0988,0.240425 0.18343,0.341712 0.14161,0.169497 0.15389,0.207741 0.15411,0.479772 2.7e-4,0.400502 0.0545,0.567466 0.26833,0.825858 0.20782,0.25122 0.51401,0.759763 0.58416,0.970199 0.0262,0.07853 0.0928,0.192817 0.14809,0.253893 0.11102,0.122741 0.28718,0.437693 0.28718,0.513454 0,0.02664 -0.0499,0.09535 -0.11103,0.152752 -0.13586,0.127635 -0.14005,0.252498 -0.0164,0.489684 0.20436,0.392068 0.004,1.167554 -0.36161,1.398235 -0.1842,0.116266 -0.42755,0.343756 -0.66163,0.618474 -0.13979,0.164034 -0.15496,0.17078 -0.24988,0.111028 -0.51369,-0.323416 -0.52961,-0.330107 -0.78592,-0.330107 -0.24681,0 -0.26034,0.0062 -0.44819,0.21097 -0.2325,0.253239 -0.31827,0.261937 -0.962843,0.09766 z"
       id="path1440" />
    <path
       style="fill:#000000;stroke-width:0.0444139"
       d="m 93.467708,22.522667 c -0.171253,-0.119937 -0.283146,-0.403934 -0.309256,-0.784963 -0.03667,-0.53466 -0.05043,-0.544511 -0.759763,-0.544511 -0.64073,0 -0.73335,-0.03121 -0.610927,-0.206006 0.135292,-0.193172 0.06779,-0.433681 -0.190761,-0.679488 -0.07786,-0.07404 -0.137208,-0.175863 -0.137208,-0.235382 0,-0.121703 0.105702,-0.341154 0.227109,-0.471469 0.07853,-0.08427 0.171799,-0.334129 0.172361,-0.461803 1.77e-4,-0.03872 0.0888,-0.05545 0.29428,-0.05545 h 0.294028 l -0.01972,-0.272449 c -0.01351,-0.186481 -0.04321,-0.289642 -0.09414,-0.326902 -0.09394,-0.06862 -0.09615,-0.182284 -0.0042,-0.217561 0.03868,-0.01479 0.169861,-0.02703 0.291612,-0.02703 0.265232,0 0.373987,-0.0508 0.409209,-0.191081 0.01443,-0.05747 0.07669,-0.127573 0.138339,-0.155664 0.06158,-0.02812 0.11211,-0.08699 0.11211,-0.130981 0,-0.146789 0.132071,-0.283516 0.259594,-0.268747 0.08629,0.01007 0.138633,0.05809 0.195871,0.180107 0.05538,0.117969 0.134353,0.192909 0.271081,0.257176 0.106128,0.04996 0.249635,0.149855 0.318896,0.222146 0.120652,0.125931 0.142165,0.131454 0.51225,0.131454 0.355369,0 0.391724,0.0084 0.454014,0.103332 0.03725,0.05684 0.181338,0.146819 0.320239,0.199972 0.138892,0.05321 0.30329,0.136565 0.365328,0.185358 0.145,0.114058 0.409495,0.115971 0.551877,0.0039 0.09937,-0.07811 0.267406,-0.116103 0.441185,-0.09957 0.03885,0.0039 0.09374,0.05739 0.12191,0.119309 0.0888,0.194892 0.273833,0.898071 0.273833,1.040624 0,0.145045 -0.147476,0.411437 -0.306572,0.553773 -0.05277,0.04725 -0.138531,0.157182 -0.190484,0.24428 -0.139865,0.234507 -0.287047,0.383751 -0.66022,0.669513 -0.311966,0.238906 -0.534694,0.460014 -0.641485,0.636828 -0.02735,0.04538 -0.256683,0.131384 -0.599584,0.22481 -0.305355,0.08315 -0.710596,0.213085 -0.900551,0.288619 -0.394082,0.156741 -0.462278,0.164448 -0.600239,0.06777 z"
       id="path1438" />
    <path
       style="fill:#ffd700;fill-opacity:1;stroke-width:0.0444139"
       d="m 82.649808,22.857981 c -0.06454,-0.07659 -0.130084,-0.19277 -0.14575,-0.258083 -0.05205,-0.216987 -0.182692,-0.425928 -0.50058,-0.80084 -0.173126,-0.204178 -0.314768,-0.395948 -0.314768,-0.426153 0,-0.06475 0.107521,-0.159583 0.276921,-0.244288 0.212705,-0.106385 0.219723,-0.506298 0.01279,-0.729583 -0.147954,-0.159652 -0.307719,-0.188959 -0.491235,-0.09011 -0.134062,0.07218 -0.176106,0.0752 -0.363661,0.02618 -0.252303,-0.06591 -0.41378,-0.174399 -0.489626,-0.328885 -0.04551,-0.09262 -0.09797,-0.118319 -0.291187,-0.142459 -0.510014,-0.06374 -1.038926,-0.448451 -1.143213,-0.831567 -0.0289,-0.106128 -0.05961,-0.217948 -0.06826,-0.248478 -0.0091,-0.03052 -0.07692,-0.05545 -0.151801,-0.05545 -0.07481,0 -0.207811,-0.03005 -0.295506,-0.0666 -0.33115,-0.138362 -0.440342,-0.07567 -0.524816,0.301329 -0.04813,0.21482 -0.06212,0.232648 -0.193161,0.245551 -0.18104,0.01781 -0.183074,-0.05096 -0.01007,-0.33296 0.165021,-0.268576 0.623585,-1.402789 0.623585,-1.542382 0,-0.05731 -0.03131,-0.130052 -0.06947,-0.161767 -0.04692,-0.03896 -0.06021,-0.09474 -0.04098,-0.171998 0.0592,-0.237163 0.25921,-0.344987 0.37692,-0.203164 0.07692,0.09273 0.305888,0.08286 0.475188,-0.02037 0.09937,-0.06064 0.156633,-0.140631 0.190473,-0.266315 0.02658,-0.09877 0.06826,-0.179681 0.09263,-0.179681 0.02426,0 0.08548,0.07002 0.135912,0.155447 0.07511,0.12721 0.118072,0.155456 0.236788,0.155456 0.184312,0 0.358535,-0.136156 0.4226,-0.330272 0.02749,-0.08317 0.117197,-0.202537 0.199435,-0.265278 0.09374,-0.07148 0.160419,-0.168134 0.178694,-0.258903 0.05296,-0.263264 0.07219,-0.300316 0.155244,-0.300316 0.05477,0 0.09182,-0.04329 0.110732,-0.129463 0.03172,-0.144341 0.211869,-0.252699 0.461495,-0.27756 0.167517,-0.01673 0.191037,0.01007 0.280676,0.31819 0.04883,0.168087 0.07581,0.199872 0.169148,0.199872 0.09212,0 0.13837,-0.05197 0.271222,-0.3048 l 0.160188,-0.304814 0.275834,0.327012 c 0.151709,0.179866 0.28712,0.382673 0.300914,0.450712 0.03252,0.160342 0.314636,0.400139 0.679574,0.577651 0.244533,0.118954 0.339638,0.140585 0.621794,0.14146 0.280555,7.75e-4 0.370647,-0.01858 0.571048,-0.124011 0.261989,-0.137696 0.321282,-0.133281 0.429538,0.03191 0.06685,0.102078 0.06715,0.12003 0.003,0.212133 -0.138581,0.197842 -0.05809,0.305914 0.307066,0.412057 0.134332,0.03903 0.245567,0.07544 0.247168,0.08085 0.02749,0.09253 0.11328,0.81857 0.09958,0.842626 -0.01037,0.01836 -0.09424,0.0333 -0.186235,0.0333 -0.185821,0 -0.360427,0.14156 -0.360427,0.292198 0,0.04763 -0.03997,0.16121 -0.0888,0.252359 -0.04883,0.09112 -0.0888,0.193993 -0.0888,0.228528 0,0.03454 -0.08498,0.167398 -0.188762,0.29525 -0.385266,0.474427 -0.431561,0.547965 -0.526253,0.83588 -0.146566,0.445616 -0.29,0.703466 -0.428008,0.769413 -0.06846,0.03268 -0.128956,0.101954 -0.136738,0.156432 -0.0081,0.05375 -0.112615,0.18037 -0.233174,0.281309 -0.120569,0.100946 -0.219662,0.206656 -0.220205,0.234917 -5.34e-4,0.02827 -0.04007,0.101349 -0.0878,0.16241 -0.14429,0.184467 -0.113309,0.312335 0.134886,0.556791 0.272038,0.26795 0.275018,0.366209 0.01349,0.443099 -0.201348,0.05925 -0.404417,0.185932 -0.619568,0.386686 l -0.138138,0.12889 z"
       id="path1436" />
    <path
       style="fill:#ffd700;fill-opacity:1;stroke-width:0.0444139"
       d="m 86.112364,23.498295 c -0.088,-0.09051 -0.159916,-0.187898 -0.159916,-0.216299 0,-0.02834 -0.07491,-0.118039 -0.16655,-0.199213 -0.15588,-0.138122 -0.161106,-0.150731 -0.08165,-0.196929 0.183054,-0.10636 0.248176,-0.205215 0.248176,-0.376648 0,-0.164059 -0.007,-0.173082 -0.166551,-0.19936 -0.09162,-0.0151 -0.272119,-0.02781 -0.401145,-0.02804 -0.31816,-7.74e-4 -0.512411,-0.09143 -0.816133,-0.381078 -0.224455,-0.214097 -0.408474,-0.322974 -0.830873,-0.491618 -0.103141,-0.04121 -0.101661,-0.04423 0.08125,-0.165183 0.105466,-0.06978 0.213318,-0.188014 0.248629,-0.272542 0.03433,-0.08206 0.101238,-0.161604 0.148729,-0.176684 0.116018,-0.03687 0.252375,-0.277877 0.387865,-0.685699 0.1296,-0.39007 0.154238,-0.432884 0.437259,-0.759671 0.116049,-0.133994 0.247542,-0.324107 0.292204,-0.422474 0.0447,-0.09837 0.13223,-0.226762 0.194563,-0.285329 0.120991,-0.113664 0.149001,-0.249245 0.05779,-0.279938 -0.09615,-0.03229 0.04813,-0.160954 0.215915,-0.192436 0.169049,-0.03176 0.283738,0.03338 0.283738,0.161224 0,0.167366 0.537722,0.163974 0.815065,-0.0055 0.163622,-0.09978 0.427302,-0.110844 0.597287,-0.0251 0.06595,0.0333 0.206835,0.07156 0.313056,0.08518 0.217598,0.02781 0.406461,0.175553 0.406461,0.317942 0,0.05104 0.03695,0.162511 0.08216,0.247642 0.09172,0.17292 0.08246,0.234383 -0.06152,0.407574 -0.05467,0.06575 -0.123871,0.225646 -0.153815,0.355319 -0.0299,0.129672 -0.102174,0.319267 -0.1605,0.421336 -0.106161,0.185745 -0.143786,0.458434 -0.06323,0.458434 0.04239,0 0.26808,0.30408 0.26808,0.361236 0,0.01626 -0.06997,0.07102 -0.155445,0.121432 -0.08548,0.05042 -0.155456,0.118481 -0.155456,0.151203 0,0.03268 -0.05195,0.128341 -0.115354,0.212473 -0.111024,0.147222 -0.114366,0.169094 -0.0889,0.582195 l 0.02648,0.429228 -0.293483,0.164129 c -0.161427,0.09031 -0.372652,0.174747 -0.469408,0.187728 -0.220618,0.02958 -0.320276,0.162449 -0.280577,0.374046 0.02124,0.1134 0.003,0.184645 -0.07662,0.30315 -0.05739,0.08517 -0.136667,0.161137 -0.176094,0.168722 -0.03947,0.0084 -0.143667,-0.06033 -0.231614,-0.150848 z"
       id="path1434" />
    <path
       style="fill:#000000;stroke-width:0.0444139"
       d="m 89.549981,26.332232 c 0,-0.02249 -0.120317,-0.172101 -0.267376,-0.332589 -0.233828,-0.255182 -0.273145,-0.324259 -0.313368,-0.550502 -0.06887,-0.387403 -0.0732,-0.395122 -0.270175,-0.483941 -0.332709,-0.150043 -0.392073,-0.221259 -0.397922,-0.477498 -0.01007,-0.421341 -0.03977,-0.488052 -0.239114,-0.528736 -0.09766,-0.01997 -0.240544,-0.06586 -0.317517,-0.1019 -0.07702,-0.03616 -0.18118,-0.06561 -0.231552,-0.06561 -0.118345,0 -0.664796,-0.510117 -0.701011,-0.654404 -0.03111,-0.124119 0.03564,-0.187704 0.198245,-0.188788 0.134565,-7.76e-4 0.72288,-0.274231 0.804746,-0.373899 0.05306,-0.0646 0.05487,-0.120178 0.01108,-0.332295 -0.06595,-0.319088 -0.06736,-0.568106 -0.004,-0.607497 0.02688,-0.01665 0.07672,-0.09686 0.110783,-0.178263 0.03927,-0.09404 0.134816,-0.190772 0.261958,-0.265277 0.110058,-0.06451 0.20011,-0.126164 0.20011,-0.13703 0,-0.05367 -0.18684,-0.375634 -0.287321,-0.495036 l -0.113904,-0.135373 0.08508,-0.148152 c 0.04682,-0.08148 0.116218,-0.258074 0.154277,-0.392424 0.03806,-0.134351 0.120026,-0.313118 0.182148,-0.39725 0.09474,-0.128286 0.112967,-0.201335 0.112967,-0.452726 0,-0.367339 0.07048,-0.438027 0.436927,-0.438027 0.219501,0 0.252093,0.01379 0.390181,0.164501 0.146755,0.160211 0.160781,0.165152 0.538959,0.189866 0.213551,0.01402 0.433173,0.05049 0.488045,0.08122 0.05487,0.03075 0.144804,0.150157 0.199858,0.265386 0.08759,0.183228 0.121172,0.212813 0.268171,0.236055 0.09243,0.01464 0.208144,0.06955 0.257116,0.122137 0.04893,0.05251 0.108245,0.09555 0.131725,0.09555 0.02346,0 0.04269,0.120766 0.04269,0.268375 0,0.258245 0.0081,0.276778 0.207208,0.489918 l 0.207214,0.221526 -0.09615,0.130091 c -0.124511,0.168411 -0.123269,0.331735 0.0034,0.420329 0.07971,0.05592 0.08981,0.08488 0.05118,0.146866 -0.07845,0.125537 -0.245386,0.186922 -0.510314,0.187619 -0.280606,7.75e-4 -0.462603,0.105315 -0.761693,0.437653 -0.184787,0.205308 -0.212393,0.34192 -0.07773,0.384663 0.04883,0.01549 0.0888,0.05375 0.0888,0.08508 0,0.03129 -0.139961,0.214819 -0.311023,0.407837 -0.171071,0.193009 -0.352212,0.434812 -0.402554,0.537339 -0.10318,0.210162 -0.08639,0.27256 0.131826,0.490799 0.09353,0.09353 0.13835,0.191222 0.159754,0.348204 0.04712,0.345964 0.06262,0.372494 0.277304,0.475744 0.272632,0.131114 0.382609,0.287953 0.386153,0.550619 0.003,0.192615 -0.0091,0.217047 -0.148942,0.300345 -0.195347,0.116684 -0.445686,0.367594 -0.559439,0.560687 -0.06786,0.115232 -0.124012,0.155111 -0.233174,0.165674 -0.07904,0.0084 -0.143766,-0.0042 -0.143766,-0.02685 z"
       id="path1432" />
    <path
       style="fill:#000000;stroke-width:0.0444139"
       d="m 92.374131,27.227992 c -0.129898,-0.114208 -0.169508,-0.117061 -0.46414,-0.03356 -0.09716,0.0276 -0.101027,0.02249 -0.05219,-0.06905 0.02912,-0.05429 0.05479,-0.228751 0.05722,-0.387696 0.005,-0.316002 -0.03029,-0.368601 -0.246506,-0.369776 -0.291741,-0.0017 -0.537943,-0.246144 -0.604052,-0.600045 -0.02114,-0.113327 -0.08085,-0.245449 -0.132499,-0.293625 -0.05538,-0.05168 -0.09404,-0.142324 -0.09404,-0.220857 0,-0.243779 -0.156866,-0.473076 -0.411525,-0.601522 -0.27691,-0.139664 -0.297541,-0.166354 -0.298417,-0.386103 -7.74e-4,-0.199579 -0.05326,-0.313888 -0.229751,-0.500587 l -0.129589,-0.137072 0.302735,-0.351487 c 0.576426,-0.669227 0.618551,-0.751183 0.470285,-0.91501 -0.06997,-0.07737 -0.06675,-0.08991 0.05548,-0.220086 0.163058,-0.173593 0.526435,-0.34792 0.726384,-0.348493 0.195822,-5.19e-4 0.523789,-0.15884 0.559003,-0.269785 0.03457,-0.108962 0.169869,-0.142134 0.603301,-0.147934 0.445119,-0.0062 0.471951,0.02021 0.521521,0.509222 0.0412,0.406025 0.139991,0.67131 0.288985,0.775672 0.121768,0.08528 0.573776,0.0819 0.805985,-0.0062 0.362207,-0.137238 1.037941,-0.364605 1.169416,-0.393485 0.128069,-0.02812 0.138355,-0.02021 0.181372,0.139709 0.02509,0.09323 0.06486,0.42304 0.08821,0.732897 0.02349,0.309849 0.06603,0.607141 0.09464,0.660655 0.04019,0.07509 0.03943,0.120794 -0.0034,0.20035 -0.08021,0.149859 -0.02408,0.399955 0.128824,0.574103 0.08699,0.09908 0.150026,0.238216 0.185047,0.408303 0.0292,0.14193 0.110827,0.416786 0.181355,0.610769 0.192976,0.530776 0.207122,0.508046 -0.325676,0.522922 l -0.453904,0.01267 -0.04573,0.162099 c -0.105365,0.373341 -0.397715,0.46633 -0.642383,0.204311 l -0.134789,-0.144337 -0.554848,-0.01468 -0.554839,-0.01468 -0.145378,0.156881 c -0.07996,0.08629 -0.19884,0.176766 -0.264175,0.201081 -0.07887,0.02928 -0.180432,0.149766 -0.301755,0.357483 -0.100583,0.172302 -0.187078,0.312638 -0.192104,0.311882 -0.005,-7.71e-4 -0.06737,-0.05252 -0.138531,-0.115147 z"
       id="path1430" />
    <path
       style="fill:#000000;stroke-width:0.0444139"
       d="m 99.965067,27.700447 c -0.2687,-0.09363 -0.70377,-0.27864 -0.96682,-0.411122 -0.41161,-0.207306 -0.49609,-0.269 -0.60628,-0.442754 -0.14617,-0.230472 -0.504039,-0.522813 -0.642881,-0.525137 -0.05143,-7.8e-4 -0.143516,-0.03012 -0.20458,-0.06503 -0.06695,-0.03826 -0.23767,-0.0641 -0.430151,-0.06502 -0.429053,-0.0017 -0.522512,-0.04514 -0.651487,-0.299649 -0.100758,-0.198883 -0.274713,-0.722477 -0.38439,-1.157058 -0.02626,-0.104148 -0.106901,-0.256675 -0.179158,-0.338983 -0.154221,-0.175642 -0.164088,-0.25154 -0.04262,-0.327446 0.110919,-0.0693 0.112345,-0.160724 0.005,-0.338178 -0.05571,-0.09222 -0.100582,-0.3018 -0.134487,-0.62703 -0.02802,-0.268708 -0.06259,-0.564322 -0.07694,-0.656928 -0.03843,-0.249129 0.192053,-0.569293 0.705637,-0.979955 0.500739,-0.400371 0.524005,-0.426208 0.894258,-0.993248 0.273204,-0.418401 0.310993,-0.457574 0.48395,-0.501759 0.103175,-0.02634 0.253973,-0.08197 0.335081,-0.123539 0.14141,-0.07249 0.15011,-0.07211 0.210973,0.01053 0.03633,0.04941 0.0635,0.187682 0.0635,0.324015 0,0.311831 0.11695,0.438839 0.44407,0.482234 0.21669,0.02874 0.48863,0.188238 0.48863,0.286583 0,0.02122 -0.0882,0.09031 -0.19609,0.153519 -0.2661,0.155935 -0.30727,0.216074 -0.30727,0.448831 0,0.292885 0.0956,0.368071 0.52903,0.416338 0.19351,0.02153 0.44995,0.07048 0.56987,0.108791 0.129968,0.04144 0.376438,0.06962 0.610278,0.06962 h 0.39225 l 0.10039,-0.154254 c 0.1186,-0.182297 0.29521,-0.267506 0.46577,-0.224692 0.13383,0.03361 0.54506,0.328922 0.54506,0.391446 0,0.02122 -0.0871,0.152048 -0.19353,0.290665 -0.30241,0.393803 -1.0368,1.494585 -1.16219,1.742031 -0.0623,0.1229 -0.17744,0.307653 -0.25593,0.410577 -0.0785,0.102915 -0.2203,0.33493 -0.31514,0.515572 l -0.172438,0.32847 0.10454,0.293198 c 0.0867,0.24299 0.104768,0.382016 0.105818,0.811798 0.002,0.582879 0.0477,0.699328 0.33627,0.846359 0.16601,0.08457 0.23846,0.221645 0.19943,0.37725 -0.0333,0.132566 -0.0864,0.126517 -0.667658,-0.07601 z"
       id="path837" />
    <path
       style="fill:#000000;stroke-width:0.326276"
       d="m 26.968575,13.112871 c 0.306386,-0.975138 0.220853,-1.792957 -0.17915,-1.712964 -0.224311,0.04487 -0.407845,-0.115906 -0.407845,-0.357274 0,-0.528633 -0.938006,-1.4071613 -1.67277,-1.5667023 -0.917335,-0.199183 -0.150551,-1.583509 0.877113,-1.583509 0.572122,0 0.91148,-0.209293 1.021495,-0.629985 0.231905,-0.886805 0.91259,-1.05663 2.388683,-0.595948 1.093377,0.341246 1.24885,0.503664 1.089576,1.138273 -0.135439,0.53963 -0.04356,0.740219 0.339006,0.740219 0.576295,0 3.295134,2.5588623 3.015717,2.8382773 -0.09552,0.09552 -0.633128,0.01349 -1.194679,-0.182246 -1.144163,-0.398864 -3.933745,0.146325 -3.866655,0.755675 0.09325,0.846747 -0.08481,1.156184 -0.665184,1.156184 -0.343954,0 -0.686947,0.110117 -0.762223,0.244705 -0.07529,0.13459 -0.06762,0.02451 0.01692,-0.244705 z"
       id="path1344" />
    <path
       style="fill:#000000;stroke-width:0.326276"
       d="m 40.656238,15.1719 c -0.314044,-0.08204 -0.570985,-0.285271 -0.570985,-0.451564 0,-0.166294 -0.29365,-0.302353 -0.65256,-0.302353 -0.358902,0 -0.652551,0.126466 -0.652551,0.281033 0,0.438459 -1.749386,0.02626 -2.179975,-0.513698 -0.211983,-0.265827 -0.31643,-0.66313 -0.232098,-0.882909 0.08434,-0.219772 -0.22768,-0.573188 -0.693366,-0.785364 -0.465679,-0.212187 -0.756341,-0.531983 -0.645901,-0.710671 0.110431,-0.178689 -0.101524,-0.324893 -0.471015,-0.324893 -0.369499,0 -0.671816,-0.187822 -0.671816,-0.41739 0,-0.229554 -0.293649,-0.62904 -0.652559,-0.88772 -0.845925,-0.6097113 -0.822738,-0.7965543 0.154122,-1.2416353 0.443675,-0.202153 1.015992,-0.86851 1.271824,-1.480793 0.255831,-0.612291 0.598344,-1.195566 0.76115,-1.296195 0.471061,-0.291124 2.627358,0.303243 3.208518,0.884402 0.291495,0.291494 0.66499,0.44657 0.829971,0.3446 0.322164,-0.199106 0.439226,0.463995 0.330802,1.873747 -0.05809,0.7553983 0.106629,0.9317923 1.174333,1.2574063 2.077738,0.633618 2.740369,2.937665 1.268235,4.409799 -0.481939,0.481938 -0.597752,0.499881 -1.576129,0.244198 z"
       id="path1336" />
    <path
       style="fill:#000000;stroke-width:0.326276"
       d="m 25.501185,19.888273 c -0.675821,-0.362233 -1.410251,-0.896979 -1.632056,-1.188347 -0.488541,-0.641729 -0.548779,-1.671722 -0.09777,-1.671722 0.577976,0 0.347857,-0.844808 -0.428877,-1.574511 -0.415338,-0.390189 -0.993971,-0.709431 -1.285855,-0.709431 -1.3849,0 -0.580234,-1.595616 0.817467,-1.621012 0.334381,-0.0064 0.570984,-0.260605 0.570984,-0.614242 0,-0.995617 0.688973,-2.6589163 1.101378,-2.6589163 0.442796,0 1.508842,1.1552593 1.508842,1.6351193 0,0.177401 0.237122,0.322553 0.526943,0.322553 0.481494,0 0.480329,0.07112 -0.0136,0.824909 -0.297275,0.4537 -0.452323,0.967585 -0.344547,1.141972 0.23406,0.37872 1.136275,0.426526 1.136275,0.06021 0,-0.141255 0.310242,-0.28021 0.689433,-0.30877 0.858495,-0.06465 0.964218,-0.17039 1.028885,-1.028884 0.04828,-0.641019 0.463431,-0.843575 1.462896,-0.713798 0.224311,0.02912 0.407846,-0.07842 0.407846,-0.238931 0,-0.160541 0.513882,-0.131057 1.14197,0.06558 1.262676,0.395209 1.498336,1.007287 0.48942,1.27113 -0.35891,0.09386 -0.65256,0.387736 -0.65256,0.653078 0,0.265345 -0.380922,0.732035 -0.846498,1.037088 -0.548271,0.359242 -0.792431,0.761462 -0.693006,1.141646 0.125156,0.478599 -0.03486,0.578912 -0.866456,0.543278 -0.998291,-0.04283 -1.018648,-0.01424 -0.958189,1.342965 0.03395,0.762675 -0.07899,1.386683 -0.250919,1.386683 -0.171982,0 -0.229918,0.33035 -0.128754,0.734125 0.152394,0.608186 0.04337,0.742079 -0.635283,0.780489 -0.450575,0.02554 -1.372182,-0.249996 -2.048011,-0.612215 z"
       id="path1314" />
    <path
       style="fill:#000000;stroke-width:0.326276"
       d="m 29.073375,21.806459 c -1.876521,-0.330997 -2.174786,-0.676266 -0.867603,-1.004349 0.584719,-0.146762 0.786279,-0.366153 0.653725,-0.711558 -0.1054,-0.27467 -0.03172,-0.798174 0.163704,-1.163345 0.256479,-0.479226 0.256146,-0.763129 -9.23e-4,-1.02045 -0.729296,-0.729297 -0.409111,-1.296925 0.615899,-1.091916 0.749671,0.149933 1.048816,0.0517 1.305998,-0.428831 0.231701,-0.432937 0.225384,-0.690182 -0.02071,-0.84227 -0.210938,-0.130362 0.05272,-0.466437 0.65168,-0.830692 0.553403,-0.336461 1.006069,-0.834152 1.006069,-1.105965 0,-0.271814 0.220241,-0.494212 0.489418,-0.494212 0.269179,0 0.489421,-0.204527 0.489421,-0.454505 0,-0.249986 0.220233,-0.539019 0.489411,-0.642321 0.269186,-0.103291 0.48942,-0.04246 0.48942,0.135227 0,0.17767 0.349457,0.482251 0.776567,0.676857 0.715499,0.326003 0.764148,0.498621 0.618783,2.195382 -0.08676,1.012859 -0.13691,2.208619 -0.111401,2.657251 0.197028,3.465672 -0.126875,4.466458 -1.12314,3.470193 -0.723674,-0.723671 -1.105439,-0.671112 -1.455755,0.200434 -0.16229,0.403767 -0.304387,0.639464 -0.315755,0.52377 -0.01138,-0.115686 -0.497864,-0.110495 -1.081095,0.01155 -0.583212,0.122037 -1.831229,0.08593 -2.77336,-0.08029 z"
       id="path1310" />
    <path
       style="fill:#000000;stroke-width:0.326276"
       d="m 36.496192,23.28958 c 0,-0.363154 -0.173239,-0.718023 -0.384982,-0.788601 -0.25585,-0.08527 -0.28947,-0.340633 -0.100211,-0.761317 0.15662,-0.348142 0.297035,-0.779813 0.312038,-0.95926 0.01498,-0.179455 0.138176,-0.503348 0.273727,-0.719761 0.13556,-0.216423 0.05753,-0.877128 -0.173509,-1.468249 -0.230988,-0.59112 -0.373181,-1.551954 -0.315985,-2.135175 0.105955,-1.080438 0.533573,-1.270188 2.428157,-1.07747 0.314044,0.03191 0.570985,-0.09797 0.570985,-0.288702 0,-0.190728 0.146826,-0.346783 0.326281,-0.346783 0.179455,0 0.32628,0.220233 0.32628,0.48941 0,0.328814 0.328869,0.48942 1.002137,0.48942 1.59138,0 1.979432,0.639622 1.772564,2.921704 -0.112613,1.242329 -0.0554,1.972467 0.15464,1.972467 0.183386,0 0.33344,0.513883 0.33344,1.141972 0,0.978829 -0.108767,1.141967 -0.761317,1.141967 -0.418732,0 -0.850744,0.08944 -0.960046,0.198732 -0.109303,0.109302 -0.978018,0.236122 -1.93048,0.281821 -0.952461,0.04569 -1.98869,0.192207 -2.302734,0.325596 -0.435582,0.184994 -0.570985,0.08593 -0.570985,-0.417771 z"
       id="path1302" />
    <path
       style="fill:#000000;stroke-width:0.326276"
       d="m 47.291157,25.159305 c -0.433341,-0.360392 -0.974475,-0.583657 -1.202514,-0.496154 -0.228047,0.08749 -0.926323,-0.309836 -1.551748,-0.882985 -1.120291,-1.026676 -1.139371,-1.088754 -1.289174,-4.194675 -0.0836,-1.733911 -0.264535,-3.334558 -0.402,-3.556984 -0.143903,-0.23283 -0.04116,-0.557102 0.242255,-0.764313 0.270711,-0.197945 0.476673,-0.707035 0.457695,-1.131297 -0.04726,-1.056754 0.941799,-1.685865 1.506541,-0.958269 0.229139,0.295221 1.074547,0.753398 1.878669,1.018173 1.523026,0.501481 1.807207,0.801263 2.10198,2.217359 0.207976,0.99913 2.397166,2.575712 3.576543,2.575712 0.615222,0 0.756242,0.137281 0.631409,0.61465 -0.100386,0.383872 -0.368482,0.56032 -0.714059,0.46995 -0.469551,-0.122787 -0.533498,0.06316 -0.422405,1.228096 0.121705,1.276172 0.08086,1.359706 -0.580395,1.186781 -0.482112,-0.126072 -0.783759,-0.01018 -0.936133,0.359632 -0.12548,0.304546 -0.585238,0.545642 -1.040514,0.545642 -0.710784,0 -0.815696,0.143255 -0.815696,1.113855 0,1.346591 -0.39353,1.525492 -1.440454,0.654827 z"
       id="path1292" />
    <path
       style="fill:#000000;stroke-width:0.326276"
       d="m 15.614408,26.998931 c 0,-0.279768 -0.228899,-0.508668 -0.508665,-0.508668 -0.279778,0 -0.411896,-0.156602 -0.293606,-0.347985 0.389616,-0.630409 -0.883445,-1.21402 -2.248749,-1.030902 -1.236268,0.16582 -1.283586,0.139148 -1.082979,-0.610532 0.11537,-0.431174 0.211769,-0.909975 0.214212,-1.064023 0.0028,-0.15404 0.349724,-0.193429 0.77171,-0.08749 0.955522,0.239822 1.309709,-0.07436 0.789896,-0.7007 -1.222304,-1.472789 -1.286186,-4.315297 -0.09698,-4.315297 0.427722,0 0.67956,-0.804609 0.536128,-1.712955 -0.02126,-0.134589 0.179871,-0.244705 0.44693,-0.244705 0.309069,0 0.457326,-0.266854 0.407856,-0.734123 -0.0677,-0.639734 0.07537,-0.735569 1.113253,-0.745289 1.273192,-0.01194 2.870463,1.041074 2.637828,1.739 -0.07205,0.216128 0.07381,0.392963 0.324096,0.392963 0.528274,0 1.883236,-1.182896 1.883236,-1.644099 0,-0.509932 1.841421,-0.357355 2.295882,0.190231 0.602061,0.725441 0.642478,4.015625 0.05651,4.601583 -0.607297,0.607297 -1.126192,2.56765 -1.076803,4.06815 0.04337,1.316829 -0.678846,2.211292 -1.357163,1.680929 -0.224322,-0.175387 -0.856423,-0.469406 -1.404675,-0.653365 -1.225246,-0.41113 -2.755371,0.260694 -2.755371,1.20979 0,0.342589 -0.146825,0.713631 -0.326281,0.824534 -0.179455,0.110912 -0.326279,-0.02729 -0.326279,-0.307024 z"
       id="path1286" />
    <path
       style="fill:#000000;stroke-width:0.326276"
       d="m 29.154941,25.837706 c -0.110903,-0.179455 -0.04615,-0.326282 0.143883,-0.326282 0.190046,0 0.345537,-0.157304 0.345537,-0.349577 0,-0.542701 0.935425,-1.347147 1.302604,-1.120217 0.425528,0.262989 0.427453,1.143524 0.0028,1.143524 -0.179455,0 -0.326279,0.220234 -0.326279,0.48941 0,0.545405 -1.15283,0.67349 -1.468251,0.163142 z"
       id="path1278" />
    <path
       style="fill:#000000;stroke-width:0.326276"
       d="m 30.949471,26.000844 c 0,-0.269177 0.129696,-0.48942 0.288221,-0.48942 0.414504,0 0.65772,-1.156677 0.348439,-1.657101 -0.144207,-0.233331 -0.627689,-0.473189 -1.074416,-0.533012 -0.670262,-0.08971 -0.849041,0.05883 -1.022865,0.850273 -0.115859,0.527478 -0.438448,1.046467 -0.716866,1.153309 -0.408909,0.156917 -0.428757,0.287601 -0.103254,0.679806 0.539049,0.649529 2.280741,0.646569 2.280741,-0.0038 z"
       id="path1276" />
    <path
       style="fill:#000000;stroke-width:0.326276"
       d="m 27.991143,27.102036 c -0.281238,-0.52549 -0.273515,-0.875614 0.03191,-1.446246 0.57068,-1.066317 0.190211,-1.882006 -0.74256,-1.591982 -0.404654,0.125822 -0.785668,0.359171 -0.846702,0.518545 -0.06105,0.159376 -0.386897,-0.06105 -0.724155,-0.489771 -0.826881,-1.051213 -2.522847,-1.385741 -3.149409,-0.621226 -0.429773,0.52438 -0.451869,0.504153 -0.26643,-0.243871 0.111226,-0.448635 0.246833,-1.128449 0.301336,-1.510694 0.144708,-1.014744 1.298173,-2.13631 1.942714,-1.88898 0.296258,0.113697 0.538661,0.337823 0.538661,0.498078 0,0.160253 0.285326,0.291374 0.634062,0.291374 0.348727,0 0.848155,0.305682 1.109849,0.679289 0.309689,0.442158 0.971099,0.742302 1.894594,0.859763 0.780341,0.09926 1.579134,0.306188 1.775098,0.45985 0.195964,0.153659 0.463032,0.172656 0.59347,0.04218 0.130445,-0.130447 0.694642,-0.26018 1.25377,-0.288296 0.559128,-0.02811 1.19564,-0.295998 1.414486,-0.595282 0.361019,-0.493721 0.4882,-0.455866 1.372397,0.408456 0.91183,0.891356 0.964522,1.076184 0.819371,2.874516 -0.08537,1.057048 -0.215499,1.982465 -0.289285,2.056475 -0.07381,0.07399 -0.534897,-0.048 -1.024677,-0.271176 -0.786363,-0.358291 -0.95483,-0.326326 -1.440366,0.273283 -0.644863,0.796379 -1.984112,0.890782 -2.572874,0.181369 -0.370156,-0.446004 -0.47007,-0.446004 -0.962903,0 -0.751559,0.68015 -1.223304,0.624621 -1.662318,-0.195685 z"
       id="path1274" />
    <path
       style="fill:#000000;stroke-width:0.326276"
       d="m 56.072861,28.929261 c 0,-0.273618 -0.403765,-0.647297 -0.897263,-0.830388 -1.350105,-0.500895 -1.836835,-1.279007 -1.133984,-1.812824 0.532204,-0.40421 0.531772,-0.428163 -0.008,-0.437976 -0.381835,-0.0075 -0.570986,-0.26903 -0.570986,-0.791164 0,-0.429432 -0.217722,-0.864329 -0.483824,-0.966447 -0.627315,-0.240719 -0.625338,-3.473199 0.0024,-3.473199 0.226534,0 0.496392,-0.220242 0.599687,-0.489419 0.103295,-0.269179 0.386173,-0.48942 0.628626,-0.48942 0.48661,0 1.863455,-1.448171 1.863455,-1.960148 0,-0.178088 0.220238,-0.323795 0.489417,-0.323795 0.26918,0 0.489418,-0.142219 0.489418,-0.31604 0,-0.173814 0.228674,-0.228279 0.508169,-0.121029 0.279491,0.107248 0.437787,0.378396 0.351776,0.60255 -0.246766,0.643054 0.449454,1.120818 1.22072,0.837693 0.726933,-0.266846 2.665734,0.340941 2.289075,0.717599 -0.117454,0.117459 -0.0091,0.695991 0.240876,1.285632 0.249933,0.58964 0.452685,2.026435 0.450559,3.192878 l -0.0039,2.1208 -1.107758,0.10578 c -0.615598,0.05873 -1.214565,-0.06705 -1.348166,-0.283227 -0.172713,-0.279454 -0.430049,-0.199358 -0.913829,0.284428 -0.529706,0.529709 -0.632129,0.927861 -0.479938,1.865691 0.211678,1.304446 -0.165886,1.765774 -1.452323,1.774535 -0.442516,0.0028 -0.734123,-0.192624 -0.734123,-0.4925 z"
       id="path1263" />
    <path
       style="fill:#000000;stroke-width:0.326276"
       d="m 45.921842,28.86932 c -0.220077,-0.411231 -0.650997,-0.747676 -0.957606,-0.747676 -0.745556,0 -1.271657,-0.68308 -1.205232,-1.564861 0.03883,-0.515873 0.265054,-0.719089 0.800431,-0.719089 0.410443,0 0.746259,-0.146824 0.746259,-0.32627 0,-0.179455 0.367057,-0.32628 0.815701,-0.32628 0.448626,0 0.815689,0.123259 0.815689,0.273904 0,0.554364 1.608055,1.023928 2.432762,0.710376 0.754185,-0.286743 0.785337,-0.256695 0.503178,0.485452 -0.188059,0.494617 -0.183175,0.863794 0.01301,0.985053 0.630545,0.3897 0.277778,0.984445 -0.913475,1.540068 -1.564074,0.72952 -2.547633,0.629355 -3.050731,-0.310677 z"
       id="path1261" />
    <path
       style="fill:#000000;stroke-width:0.326276"
       d="m 35.762067,31.110457 c -1.031853,-0.249572 -1.876096,-0.625035 -1.876096,-0.834365 0,-0.209327 0.660708,-0.575681 1.468252,-0.814116 1.06919,-0.315699 1.468249,-0.601092 1.468249,-1.050065 0,-0.3391 -0.130112,-0.616546 -0.289136,-0.616546 -0.159024,0 -0.269142,-0.800476 -0.244706,-1.778827 l 0.04438,-1.778823 1.213501,-0.205823 c 0.667431,-0.113208 1.768615,-0.263953 2.44708,-0.335003 0.678476,-0.07104 1.676228,-0.217328 2.217228,-0.325069 0.719218,-0.143216 1.219579,-0.01026 1.861253,0.494451 0.96062,0.755621 0.903073,1.645153 -0.106436,1.645153 -0.617515,0 -0.777872,0.458576 -0.656046,1.876095 0.04098,0.476233 -0.116768,0.734125 -0.448911,0.734125 -0.281598,0 -0.609886,0.255064 -0.729519,0.566825 -0.370601,0.96576 -2.070108,2.297287 -3.310023,2.593324 -0.798062,0.190534 -1.793496,0.134781 -3.059112,-0.171336 z"
       id="path1257" />
    <path
       style="fill:#000000;stroke-width:0.326276"
       d="m 12.168446,32.109144 c -0.347876,-0.319214 -0.85274,-0.536005 -1.12192,-0.481762 -0.497705,0.100287 -1.0785124,-0.925148 -1.4916864,-2.63361 -0.250366,-1.035277 0.369769,-2.503517 1.0574004,-2.503517 0.238852,0 0.434286,-0.221963 0.434286,-0.49325 0,-0.778148 2.61022,-0.485581 3.486592,0.390791 0.682297,0.682295 0.688595,0.763084 0.219615,2.819098 -0.412219,1.80718 -0.603541,2.146974 -1.308487,2.323903 -0.547852,0.137503 -0.764239,0.367309 -0.643108,0.682979 0.236594,0.616535 0.134914,0.599711 -0.632692,-0.104632 z"
       id="path1249" />
    <path
       style="fill:#000000;stroke-width:0.326276"
       d="m 25.107426,33.542527 c -0.209672,-0.252641 -0.669476,-0.383973 -1.021792,-0.291836 -0.485045,0.126838 -0.640555,0.0028 -0.640555,-0.51162 0,-0.37352 -0.300707,-0.840069 -0.668236,-1.036763 -0.463681,-0.248154 -0.606538,-0.552015 -0.466685,-0.992657 0.110856,-0.349254 -0.02886,-1.097002 -0.310605,-1.661644 -0.578827,-1.160301 -0.675459,-2.744579 -0.185865,-3.047171 0.179456,-0.110902 0.326281,-0.486636 0.326281,-0.834947 0,-0.870119 1.011673,-1.807516 1.798276,-1.666241 0.356848,0.06409 0.959538,0.469545 1.339322,0.901011 0.737334,0.837667 1.620078,1.030809 1.830203,0.400438 0.07038,-0.211225 0.301252,-0.276975 0.512986,-0.146123 0.286325,0.176959 0.254545,0.436963 -0.124018,1.014726 -0.396997,0.605889 -0.428775,0.926667 -0.144429,1.457974 0.443507,0.828695 0.25424,1.176208 -0.991417,1.820363 -1.056013,0.546087 -1.217877,1.162087 -0.468731,1.783828 0.602255,0.499825 0.619439,1.922135 0.03264,2.695413 -0.370518,0.488197 -0.493416,0.505532 -0.817319,0.115249 z"
       id="path1245" />
    <path
       style="fill:#000000;stroke-width:0.326276"
       d="m 12.351637,34.12782 c 0,-0.208754 0.202495,-0.547613 0.449991,-0.753022 0.357292,-0.296526 0.479654,-0.218334 0.593952,0.379554 0.107701,0.563448 -0.0056,0.753013 -0.450002,0.753013 -0.326667,0 -0.593941,-0.170789 -0.593941,-0.379545 z"
       id="path1241" />
    <path
       style="fill:#000000;stroke-width:0.326276"
       d="m 23.295878,34.669745 c -0.103244,-0.167053 -0.03848,-0.395961 0.143883,-0.508676 0.182378,-0.112715 0.331599,0.02395 0.331599,0.303731 0,0.573123 -0.195789,0.657508 -0.475482,0.204945 z"
       id="path1239" />
    <path
       style="fill:#000000;stroke-width:0.326276"
       d="m 29.11876,35.632659 c -0.378805,-0.153058 -0.780656,-0.517822 -0.893002,-0.810593 -0.160023,-0.416994 -0.45741,-0.484817 -1.372839,-0.313085 l -1.16858,0.219236 0.673407,-1.256445 c 0.703151,-1.311916 0.643876,-2.154132 -0.220955,-3.139445 -0.44804,-0.510464 -0.421736,-0.593682 0.283291,-0.896488 0.427463,-0.183592 0.997431,-0.456226 1.266608,-0.605862 2.220226,-1.234201 2.632604,-1.355944 2.832091,-0.836077 0.246074,0.641258 2.331129,0.330738 2.887408,-0.430024 0.297193,-0.406439 0.505051,-0.430494 1.076599,-0.124619 0.389562,0.208496 0.708294,0.282515 0.708294,0.164508 0,-0.118012 0.220234,-0.03182 0.489419,0.19161 0.269179,0.223396 0.489411,0.517908 0.489411,0.654446 0,0.294891 -1.284965,0.744946 -1.901382,0.665951 -0.238221,-0.03052 -0.510507,0.240348 -0.605066,0.601959 -0.210957,0.806721 -1.616953,1.795659 -1.900541,1.336789 -0.109672,-0.177458 -0.42811,-0.322645 -0.707627,-0.322645 -0.361194,0 -0.454533,0.205279 -0.322655,0.709578 0.11734,0.448699 -0.0084,0.851484 -0.342235,1.095523 -0.485811,0.355239 -0.48596,0.490513 -0.0018,1.700555 0.679556,1.698396 0.357199,2.052562 -1.269863,1.395128 z"
       id="path1231" />
    <path
       style="fill:#000000;stroke-width:0.326276"
       d="m 5.3876256,35.569749 c -0.323206,-0.180869 -0.95513,-0.23663 -1.404281,-0.123897 l -0.8166359,0.204953 0.5955599,-0.817819 c 0.327557,-0.449807 0.705672,-0.82244 0.840263,-0.828084 0.13459,-0.0056 0.244715,-0.225502 0.244715,-0.488596 0,-0.427127 0.6134,-2.04544 1.312009,-3.461388 0.139425,-0.282609 0.434872,-1.67744 0.656537,-3.099642 0.221667,-1.422201 0.530133,-2.725303 0.685486,-2.895786 0.473233,-0.519302 0.315884,-1.588882 -0.408566,-2.777254 -0.440411,-0.722445 -0.557576,-1.173223 -0.325059,-1.25073 0.199949,-0.06668 0.363533,-0.319285 0.363533,-0.561422 0,-0.242132 0.293651,-0.533443 0.65256,-0.647351 0.358899,-0.113917 0.652551,-0.329546 0.652551,-0.479172 0,-0.149638 0.513893,-0.575268 1.141979,-0.94585 0.6280784,-0.370579 1.1419714,-0.531909 1.1419714,-0.358503 0,0.173406 0.284985,0.315273 0.633294,0.315273 0.737067,0 1.237502,0.629217 0.743337,0.934632 -0.341282,0.21092 -0.297302,1.560461 0.117248,3.59804 0.151364,0.743948 0.112243,1.036949 -0.119328,0.893834 -0.419667,-0.259364 -1.374551,1.558946 -1.374551,2.617437 0,0.421052 -0.150544,0.728851 -0.334549,0.683986 -0.184006,-0.04487 -0.5813264,0.316023 -0.8829394,0.801976 -0.454653,0.732513 -0.492416,1.156795 -0.220927,2.482113 0.401586,1.960418 0.270234,2.52775 -0.424408,1.833117 -0.27789,-0.277901 -0.697085,-0.43166 -0.931533,-0.341698 -0.234449,0.08999 -0.489391,-0.01175 -0.566555,-0.225948 -0.08796,-0.244199 -0.407253,-0.0888 -0.855895,0.416576 -0.635237,0.715571 -0.658489,0.847858 -0.207053,1.177947 0.39314,0.287482 0.461174,0.717394 0.299819,1.894614 -0.237278,1.731174 -0.38575,1.909131 -1.208582,1.448642 z"
       id="path1229" />
    <path
       style="fill:#000000;stroke-width:0.326276"
       d="m 63.778091,35.480515 c -0.534672,-0.641259 -1.300477,-1.166968 -1.782315,-1.223544 -0.636891,-0.07473 -0.919243,-0.360187 -1.147128,-1.159581 -0.193257,-0.677921 -0.520648,-1.075119 -0.90765,-1.101192 -0.718032,-0.04837 -0.913344,-0.09878 -1.663439,-0.429256 -0.423514,-0.186595 -0.514792,-0.470884 -0.357609,-1.113798 0.11608,-0.474779 0.371226,-0.967538 0.566999,-1.095015 0.470968,-0.306682 0.580447,-1.915385 0.164451,-2.416624 -0.409708,-0.493675 0.707583,-0.91765 1.639127,-0.621984 0.345729,0.10973 1.171198,-0.02719 1.834372,-0.304285 0.663172,-0.277094 1.334663,-0.503812 1.492196,-0.503812 0.443353,0 0.337981,1.229732 -0.121412,1.416955 -0.586763,0.23914 1.080992,1.557864 1.76639,1.396713 0.684518,-0.16094 0.991103,0.886388 0.577738,1.973624 -0.409718,1.077626 -0.388453,1.281823 0.19417,1.864443 0.576975,0.576966 0.330877,2.157766 -0.335924,2.157766 -0.463391,0 -0.946621,1.481858 -0.643281,1.972673 0.482529,0.780749 -0.434973,0.196418 -1.276685,-0.813083 z"
       id="path1223" />
    <path
       style="fill:#ffd700;fill-opacity:1;stroke-width:0.326276"
       d="m 42.042914,36.695949 c -1.178837,-0.211474 -1.304889,-0.439874 -0.996773,-1.806054 0.325123,-1.441559 0.136085,-1.629708 -1.24072,-1.234848 -1.135302,0.325606 -1.438886,-0.216071 -0.539457,-0.962524 0.267198,-0.221757 0.40472,-0.534425 0.3056,-0.694817 -0.09913,-0.160384 0.08602,-0.389756 0.411434,-0.509702 0.325419,-0.119949 0.906616,-0.550325 1.291551,-0.956394 0.384937,-0.406061 0.781562,-0.656619 0.881385,-0.556788 0.09982,0.09982 0.275523,-0.193114 0.390439,-0.650979 0.135034,-0.538012 0.37147,-0.770102 0.668432,-0.656149 0.252724,0.09699 0.459498,-0.0046 0.459498,-0.224811 0,-0.31421 0.102959,-0.315689 0.475132,-0.0064 0.261315,0.216873 0.606249,0.313275 0.766513,0.214222 0.160264,-0.09906 0.482095,0.176225 0.715167,0.611714 0.309316,0.577971 0.800988,0.848388 1.820531,1.001277 1.446344,0.216894 2.244711,-0.0056 1.918212,-0.533396 -0.103454,-0.167395 0.1878,-0.447265 0.647234,-0.621938 0.853423,-0.324477 1.110232,-1.10416 0.489945,-1.487525 -0.20352,-0.125783 -0.255585,-0.622268 -0.126767,-1.208792 0.194245,-0.884381 0.145238,-0.976149 -0.439648,-0.823199 -0.51353,0.134291 -0.694323,-0.01647 -0.822258,-0.685729 -0.184216,-0.963662 0.202578,-1.347051 1.117616,-1.107757 0.416668,0.10896 0.616438,-0.0097 0.616438,-0.366272 0,-0.828575 0.961213,-0.616295 1.305111,0.28822 0.170569,0.448632 0.47225,0.815699 0.670402,0.815699 0.230242,0 0.282998,0.351862 0.146167,0.974854 -0.154307,0.70256 -0.03515,1.226596 0.426569,1.876096 l 0.640685,0.90124 -1.186619,1.338815 c -0.65264,0.736345 -1.457505,1.434512 -1.788584,1.551472 -0.331081,0.11696 -0.675009,0.49199 -0.764288,0.83339 -0.08929,0.341413 -0.461477,0.698974 -0.827093,0.794588 -0.378136,0.09889 -0.593783,0.358826 -0.500137,0.602873 0.09055,0.235966 -0.0264,0.60748 -0.259897,0.825597 -0.306776,0.286575 -0.458582,0.294427 -0.547283,0.0283 -0.196631,-0.589898 -1.929616,0.0064 -2.118548,0.728512 -0.09175,0.350722 -0.387,0.637694 -0.656176,0.637694 -0.328778,0 -0.43341,0.214177 -0.31877,0.652552 0.149025,0.569868 0.01951,0.646928 -1.022348,0.608127 -0.656147,-0.02441 -1.560063,-0.110289 -2.008695,-0.190775 z"
       id="path1221" />
    <path
       style="fill:#000000;stroke-width:0.326276"
       d="m 20.005988,35.714945 c 0.249913,-0.802677 0.597641,-1.161392 1.318291,-1.359936 0.538355,-0.148325 1.108868,-0.152688 1.267819,-0.0097 0.318779,0.28676 -0.520477,1.28074 -1.081382,1.28074 -0.192272,0 -0.350724,0.110126 -0.35213,0.244716 -9.23e-4,0.134587 -0.337684,0.3999 -0.747296,0.589574 -0.724755,0.335611 -0.735641,0.315599 -0.405302,-0.74538 z"
       id="path1219" />
    <path
       style="fill:#000000;stroke-width:0.326276"
       d="m 13.885695,36.33604 c -1.286226,-0.780433 -1.399119,-1.38451 -0.214473,-1.147572 0.611116,0.122222 0.964357,0.05845 0.964357,-0.174196 0,-0.20189 -0.130909,-0.367065 -0.290904,-0.367065 -0.160004,0 -0.379607,-0.353417 -0.488033,-0.785384 -0.108416,-0.431955 -0.282377,-1.007576 -0.386592,-1.279147 -0.130518,-0.340126 0.0467,-0.527231 0.569599,-0.601295 0.417493,-0.05919 0.778842,-0.327768 0.803,-0.596956 0.02413,-0.269176 0.07075,-0.562828 0.103586,-0.65255 0.03284,-0.08971 0.124536,-0.664167 0.203837,-1.276531 0.07955,-0.614595 0.435147,-1.317208 0.793669,-1.568323 0.357226,-0.250207 0.649507,-0.710893 0.649507,-1.023725 0,-0.939596 0.642507,-1.312166 1.91459,-1.110227 1.618385,0.256922 2.653301,0.989975 2.653301,1.879397 0,0.407474 0.204741,1.135505 0.454976,1.617842 0.424818,0.818834 0.391865,0.941529 -0.496957,1.850789 -0.523566,0.535591 -0.872996,1.101525 -0.776512,1.257637 0.18063,0.292263 -0.227178,0.458103 -2.00261,0.814358 -1.149629,0.230685 -2.250323,1.249628 -1.922635,1.779834 0.117894,0.190756 -0.01451,0.34684 -0.294317,0.34684 -0.279767,0 -0.508676,0.157303 -0.508676,0.349577 0,0.192276 -0.194086,0.543675 -0.431311,0.780906 -0.357557,0.357559 -0.5794,0.34145 -1.297402,-0.0942 z"
       id="path1217" />
    <path
       style="fill:#ffd700;fill-opacity:1;stroke-width:0.326276"
       d="m 52.448889,36.569952 c -0.696499,-0.696491 -2.575303,-1.072077 -2.575303,-0.514806 0,0.166839 -0.220239,0.120576 -0.489418,-0.102831 -0.548957,-0.455588 -0.666537,-1.63139 -0.163141,-1.63139 0.179455,0 0.32628,-0.293648 0.32628,-0.65255 0,-0.358909 0.210346,-0.652559 0.467428,-0.652559 0.257087,0 0.555997,-0.279047 0.664252,-0.620114 0.174093,-0.54853 1.54869,-1.210016 2.212666,-1.0648 0.134591,0.02941 0.244708,-0.239006 0.244708,-0.596548 0,-0.741802 1.226362,-2.286427 1.815315,-2.286427 0.215886,0 0.463491,0.271387 0.550231,0.603076 0.09166,0.350532 0.568186,0.685171 1.137947,0.799117 0.827103,0.165426 0.956534,0.320074 0.828482,0.98993 -0.08347,0.436635 -0.50501,0.954837 -0.936755,1.151561 -0.568956,0.259227 -0.784995,0.620567 -0.784995,1.312944 0,0.775605 -0.115814,0.925001 -0.615732,0.79426 -0.79723,-0.208477 -1.189693,0.434972 -0.656879,1.076972 0.338525,0.4079 0.328675,0.554585 -0.05347,0.796403 -0.257641,0.16303 -0.594262,0.298665 -0.748053,0.301412 -0.153788,0.0028 -0.195105,0.225236 -0.09181,0.494413 0.271227,0.706816 -0.33253,0.601157 -1.131744,-0.198063 z"
       id="path1213" />
    <path
       style="fill:#000000;stroke-width:0.326276"
       d="m 71.621616,37.434652 c -0.116798,-0.304367 -0.594268,-0.503495 -1.207284,-0.503495 -0.959279,0 -1.008784,-0.06141 -0.916138,-1.136763 0.08004,-0.929 -0.122249,-1.376235 -1.106837,-2.447082 -0.662622,-0.720687 -1.417331,-1.310326 -1.677136,-1.310326 -0.627765,0 -0.823528,-0.642154 -0.479363,-1.572467 0.153978,-0.416225 0.198972,-1.079458 0.09998,-1.473865 -0.154587,-0.615925 0.07552,-0.829592 1.63086,-1.514374 0.99596,-0.438504 1.810834,-0.928868 1.810834,-1.089695 0,-0.160829 0.256943,-0.183477 0.570985,-0.05032 0.314044,0.133157 1.084876,0.334374 1.712959,0.447153 0.855398,0.153596 1.168137,0.388173 1.246235,0.934777 0.05734,0.401353 0.240875,0.729733 0.407847,0.729733 0.475201,0 0.355816,0.973217 -0.185831,1.514867 -0.69117,0.691173 -0.607346,1.421636 0.163138,1.421636 0.35891,0 0.652559,0.208236 0.652559,0.462735 0,0.254501 0.08912,0.694973 0.198047,0.978831 0.129666,0.337915 0.01803,0.516104 -0.323284,0.516104 -0.421043,0 -0.488649,0.260086 -0.351456,1.352009 0.09343,0.743607 0.247571,1.477732 0.342538,1.631392 0.09496,0.15365 0.0013,0.279377 -0.207778,0.279377 -0.209239,0 -0.295932,0.220234 -0.192635,0.489413 0.213354,0.556002 -0.293048,0.671786 -0.620542,0.141885 -0.141886,-0.229564 -0.411601,-0.169421 -0.794638,0.177225 -0.518429,0.469175 -0.600315,0.471431 -0.773061,0.02126 z"
       id="path1209" />
    <path
       style="fill:#000000;stroke-width:0.326276"
       d="m 14.309298,38.118827 c 0,-0.244041 0.367066,-0.719366 0.8157,-1.056271 0.448633,-0.336919 0.815691,-0.797953 0.815691,-1.024539 0,-0.226586 0.220242,-0.41198 0.489419,-0.41198 0.269177,0 0.48942,-0.19217 0.48942,-0.427055 0,-0.925836 0.879637,-1.570616 2.454747,-1.799359 1.462119,-0.212323 1.612958,-0.311646 1.515595,-0.998022 -0.06853,-0.483232 0.021,-0.682403 0.244715,-0.544163 0.194059,0.119929 0.352825,0.05919 0.352825,-0.134996 0,-0.204843 0.342418,-0.128687 0.8157,0.181408 0.459499,0.301077 0.81569,0.846822 0.81569,1.249765 0,0.600164 -0.16573,0.703816 -1.029662,0.644012 -1.184783,-0.08204 -2.222307,0.457106 -2.256962,1.17278 -0.01313,0.270867 -0.308476,0.932973 -0.656362,1.471329 -0.347875,0.538357 -0.721333,1.235783 -0.829896,1.549818 -0.240914,0.696879 -0.654206,0.714441 -1.871536,0.07955 -1.178161,-0.614454 -1.512525,-0.614011 -1.512525,0.0018 0,0.269179 -0.146823,0.48942 -0.326278,0.48942 -0.179455,0 -0.326281,-0.199672 -0.326281,-0.44371 z"
       id="path1207" />
    <path
       style="fill:#000000;stroke-width:0.326276"
       d="m 18.882183,38.154757 c 0.0038,-0.593644 0.06558,-0.640473 0.321285,-0.244706 0.408799,0.632574 0.408799,0.978829 0,0.978829 -0.179454,0 -0.324032,-0.330357 -0.321285,-0.734123 z"
       id="path1201" />
    <path
       style="fill:#000000;stroke-width:0.326276"
       d="m 20.40268,39.379743 c -0.679104,-0.496578 -0.712039,-1.905164 -0.05726,-2.448586 0.269178,-0.223406 0.494091,-0.278084 0.499797,-0.121521 0.0056,0.156554 0.225948,-2.5e-4 0.489411,-0.34869 0.26348,-0.348337 0.479042,-0.458463 0.479042,-0.244716 0,0.21375 0.146826,0.388647 0.32628,0.388647 0.179456,0 0.32628,-0.223915 0.32628,-0.497578 0,-0.292595 0.406024,-0.578772 0.985619,-0.694697 1.149953,-0.229991 1.56824,-0.723203 0.941725,-1.110415 -0.242107,-0.149627 -0.337878,-0.374374 -0.212826,-0.499428 0.371905,-0.371902 1.164575,0.492889 1.389202,1.515568 0.145335,0.661746 0.02368,1.227293 -0.398634,1.853559 -0.334289,0.49568 -0.792337,1.268298 -1.017888,1.71693 -0.335694,0.66772 -0.66352,0.822498 -1.8071,0.853179 -0.768354,0.02061 -1.643006,-0.142407 -1.943667,-0.362252 z"
       id="path1197" />
    <path
       style="fill:#000000;stroke-width:0.326276"
       d="m 35.519683,39.233891 c -0.806266,-0.696761 -1.466974,-1.46321 -1.46825,-1.703217 -0.0028,-0.488697 -1.63853,-2.205077 -2.211162,-2.3199 -0.2034,-0.04079 -0.613789,-0.513126 -0.911961,-1.049649 -0.482742,-0.868613 -0.487839,-1.015197 -0.04653,-1.337889 0.308346,-0.225476 0.424456,-0.634422 0.307311,-1.082387 -0.15306,-0.585293 -0.103893,-0.649953 0.262842,-0.345593 0.339543,0.281793 0.735088,0.280674 1.599342,-0.0046 0.63152,-0.208423 1.334615,-0.261094 1.56244,-0.117053 0.454951,0.287647 1.786336,0.491685 3.441367,0.527406 0.588197,0.01266 0.938348,0.107676 0.778094,0.211076 -0.481762,0.310845 -0.710939,1.460852 -0.392316,1.968687 0.164111,0.261575 0.698462,0.481809 1.187455,0.48942 0.816875,0.01276 0.889349,0.119826 0.892382,1.318944 0.0038,1.227699 -0.05809,1.311181 -1.031761,1.407356 -0.771074,0.07611 -1.035072,0.263407 -1.035072,0.734127 0,0.347534 -0.162531,0.631878 -0.361185,0.631878 -0.199517,0 -0.270019,0.237586 -0.157516,0.530771 0.192301,0.501122 -0.300246,1.438304 -0.744791,1.417162 -0.112622,-0.0056 -0.86443,-0.579818 -1.670687,-1.276579 z"
       id="path1195" />
    <path
       style="fill:#ffd700;fill-opacity:1;stroke-width:0.326276"
       d="m 37.719737,42.830645 c -0.758117,-0.757671 -0.721612,-1.59445 0.09853,-2.258561 0.368232,-0.298182 0.702718,-0.762185 0.743302,-1.031132 0.0406,-0.268946 0.188434,-0.672528 0.328572,-0.896841 0.140139,-0.224318 0.149757,-0.5778 0.02135,-0.785519 -0.158914,-0.257128 -0.01554,-0.320713 0.449048,-0.199203 0.375364,0.09816 0.966854,-0.02071 1.314434,-0.264183 0.347589,-0.243455 0.981089,-0.359241 1.407791,-0.25731 0.426704,0.101939 1.142886,0.207236 1.591518,0.234003 0.673012,0.04014 0.833856,0.237889 0.919528,1.13038 0.05716,0.594952 -0.08028,1.30356 -0.305303,1.574697 -0.312823,0.376938 -0.318066,0.549242 -0.02229,0.732053 0.747137,0.461757 -0.35535,1.343041 -1.867357,1.492677 -0.791198,0.07835 -1.536089,0.300199 -1.655307,0.493093 -0.391187,0.63296 -2.40253,0.656802 -3.023846,0.03588 z"
       id="path1187" />
    <path
       style="fill:#000000;stroke-width:0.326276"
       d="m 30.126816,42.796462 c -0.527146,-0.582491 -0.531362,-0.644864 -0.04366,-0.644864 0.773312,0 0.677357,-1.19308 -0.112568,-1.39965 -0.382827,-0.100111 -0.652559,-0.445046 -0.652559,-0.834496 0,-0.365108 -0.142135,-0.751689 -0.315856,-0.859057 -0.173729,-0.107362 -0.297007,-0.696834 -0.273959,-1.30993 0.03644,-0.968611 0.174043,-1.142941 1.04999,-1.32997 0.554438,-0.118396 1.183443,-0.35633 1.397793,-0.528756 0.266052,-0.214027 0.573787,-0.09853 0.969776,0.363949 0.319029,0.372607 0.767661,0.677469 0.996958,0.677469 0.229306,0 0.421793,0.256942 0.427766,0.570984 0.01322,0.696158 0.825856,1.679597 2.028379,2.454741 0.637151,0.410702 0.897265,0.850703 0.897265,1.517765 0,1.23088 -1.269354,1.715445 -2.936501,1.120978 -1.537876,-0.548364 -2.283941,-0.539825 -2.283941,0.02617 0,0.778778 -0.529402,0.859281 -1.148934,0.174704 z"
       id="path1185" />
    <path
       style="fill:#000000;stroke-width:0.326276"
       d="m 76.845887,43.565465 c -0.119636,-0.119634 -0.217518,-0.536544 -0.217518,-0.926454 0,-0.680418 -1.109898,-1.466242 -2.070902,-1.466242 -0.224845,0 -0.592343,-0.183535 -0.816656,-0.407856 -0.224318,-0.224312 -0.584041,-0.408567 -0.799385,-0.409446 -0.234665,-0.0011 -0.349496,-0.360444 -0.286612,-0.897265 0.06269,-0.53519 -0.05187,-0.895666 -0.284658,-0.895666 -0.297003,0 -0.294411,-0.114664 0.01087,-0.482556 0.29928,-0.360611 0.558447,-0.398023 1.025528,-0.148047 0.993153,0.531512 1.186135,0.136051 1.041894,-2.135107 -0.09361,-1.473847 -0.01889,-2.128451 0.242971,-2.128451 0.553722,0 0.05391,-2.309467 -0.618792,-2.859235 -0.400814,-0.327566 -0.436625,-0.489226 -0.136089,-0.61437 0.505767,-0.210607 0.534674,-1.489506 0.04475,-1.979434 -0.199709,-0.19971 -0.267562,-0.517693 -0.150788,-0.706637 0.217379,-0.351733 2.415178,0.473161 2.846478,1.06835 0.358911,0.495291 1.256471,-0.06956 1.256471,-0.790692 0,-0.375132 0.146824,-0.591305 0.326276,-0.480402 0.179452,0.110911 0.326277,0.474658 0.326277,0.808336 0,0.341412 0.499342,0.915302 1.141972,1.312474 1.132032,0.699627 1.449103,1.403055 0.810375,1.797814 -0.182381,0.112716 -0.233361,0.363895 -0.113295,0.558167 0.120071,0.194278 -0.05007,0.54949 -0.378119,0.789349 -0.515275,0.376777 -0.539723,0.542091 -0.179682,1.214832 0.473717,0.885148 0.06957,1.991058 -1.006752,2.754881 -0.330425,0.234486 -0.600776,0.638262 -0.600776,0.897265 0,0.259005 -0.220238,0.470914 -0.489417,0.470914 -0.62338,0 -0.618559,0.32298 0.01841,1.232349 0.474793,0.677854 0.454509,0.77272 -0.312029,1.459279 -0.777754,0.696603 -0.79742,0.797085 -0.383112,1.957829 0.400234,1.121316 0.294998,1.548724 -0.247696,1.006021 z"
       id="path1181" />
    <path
       style="fill:#ffd700;fill-opacity:1;stroke-width:0.326276"
       d="m 50.338166,43.681943 c -0.193112,-0.221376 -0.291296,-0.581951 -0.218186,-0.801278 0.07311,-0.219327 -0.23181,-0.53745 -0.677598,-0.706934 -0.445786,-0.169487 -0.898341,-0.45026 -1.005678,-0.623934 -0.107337,-0.173676 -0.496156,-0.237058 -0.864044,-0.140853 -0.941461,0.246194 -2.985849,-0.903296 -2.733217,-1.536792 0.108332,-0.271648 0.365715,-1.191332 0.571965,-2.04374 0.206249,-0.852399 0.487071,-1.549816 0.624055,-1.549816 0.136985,0 0.249062,-0.276531 0.249062,-0.6145 0,-0.361639 0.30209,-0.695196 0.734128,-0.810605 0.724109,-0.19343 0.86964,-0.08286 2.051292,1.55863 0.323794,0.449782 0.565824,0.530171 0.870748,0.289184 0.640374,-0.506097 1.679394,-0.386777 2.127654,0.244344 0.22013,0.30992 0.776727,0.65799 1.236887,0.77348 0.460156,0.115488 0.757086,0.338729 0.659841,0.496068 -0.09724,0.157353 -0.453742,0.213656 -0.792215,0.125147 -0.724284,-0.189408 -1.238046,0.456272 -0.750772,0.943547 0.23343,0.233431 0.16309,0.526175 -0.227034,0.944934 -0.394089,0.422994 -0.554002,1.102357 -0.528122,2.243578 0.02911,1.283977 -0.07226,1.634181 -0.470265,1.624454 -0.279066,-0.0064 -0.665387,-0.193541 -0.858501,-0.414914 z"
       id="path1179" />
    <path
       style="fill:#000000;stroke-width:0.326276"
       d="m 27.330102,43.982642 c 0.264693,-0.318926 0.279379,-0.535137 0.04615,-0.679279 -0.188167,-0.116294 -0.342113,-0.501038 -0.342113,-0.854979 0,-0.834578 -0.80943,-1.13127 -1.824487,-0.668783 -0.724738,0.330211 -0.837324,0.278796 -1.141527,-0.521309 -0.235613,-0.619726 -0.232858,-0.922526 0.0092,-1.003194 0.190647,-0.06354 0.346637,-0.273939 0.346637,-0.467537 0,-0.193595 0.398309,-1.025601 0.885139,-1.848912 0.486822,-0.823304 0.890589,-1.717155 0.897256,-1.986334 0.01545,-0.623451 1.787261,-0.878247 1.852354,-0.266373 0.02515,0.236233 0.07103,1.016815 0.10208,1.734625 0.07223,1.671927 0.975972,3.752202 1.630104,3.752202 0.278333,0 0.506067,0.146824 0.506067,0.326267 0,0.179455 -0.233412,0.326282 -0.518692,0.326282 -0.560783,0 -1.736725,1.234115 -1.754399,1.841189 -0.0056,0.205121 -0.251854,0.46543 -0.54642,0.57846 -0.434649,0.166784 -0.462404,0.117357 -0.147297,-0.262325 z"
       id="path1177" />
    <path
       style="fill:#ffd700;fill-opacity:1;stroke-width:0.326276"
       d="m 51.747235,44.680252 c 0.437563,-0.553938 0.748489,-3.181216 0.376483,-3.181216 -0.163895,0 -0.11461,-0.293648 0.109532,-0.65255 0.224137,-0.358909 0.597612,-0.652559 0.829938,-0.652559 0.31652,0 0.337741,-0.158209 0.08465,-0.631103 -0.458981,-0.857614 -0.442887,-0.892668 0.396368,-0.863052 0.617216,0.02183 0.734126,-0.144337 0.734126,-1.043167 0,-0.587992 0.157535,-1.175292 0.350075,-1.305108 0.491263,-0.33123 0.837183,-1.378011 0.455379,-1.378011 -0.173821,0 -0.316038,-0.133082 -0.316038,-0.29573 0,-0.162649 0.293651,-0.218948 0.652554,-0.125091 0.549474,0.143688 0.652556,0.01 0.652556,-0.846239 0,-0.867161 0.120104,-1.016888 0.815694,-1.016888 0.448635,0 0.815697,-0.176192 0.815697,-0.391533 0,-0.294241 0.09289,-0.298635 0.373859,-0.01766 0.210168,0.210171 0.78798,0.291044 1.31968,0.184701 0.520196,-0.10404 0.921875,-0.05937 0.892608,0.09924 -0.02926,0.158627 -0.02488,0.361823 0.0097,0.451546 0.308376,0.800015 0.243718,1.631955 -0.152382,1.960687 -0.263227,0.218456 -0.398133,0.527385 -0.299793,0.686512 0.09834,0.159115 -0.0501,0.289303 -0.32987,0.289303 -0.701288,0 -0.64998,1.271482 0.06231,1.544249 0.894828,0.342674 2.825112,1.71853 2.411048,1.71853 -0.204496,0 -0.371809,0.300088 -0.371809,0.66686 0,0.445524 -0.182325,0.635043 -0.549309,0.570985 -0.350094,-0.06112 -0.635375,0.19994 -0.786643,0.719825 l -0.237352,0.81569 -0.235068,-0.752578 c -0.153219,-0.490539 -0.404945,-0.68739 -0.72296,-0.565362 -0.268338,0.102978 -0.683088,0.02526 -0.92166,-0.172767 -0.653985,-0.542757 -1.017078,-0.134579 -1.249921,1.405129 -0.272604,1.802612 -0.722998,2.557158 -1.139912,1.909694 -0.162848,-0.252906 -0.221027,-0.655436 -0.12929,-0.894517 0.301369,-0.785347 -0.88393,-0.905663 -1.4175,-0.143894 -0.881466,1.258478 -1.973687,2.313936 -2.394529,2.313936 -0.282609,0 -0.310075,-0.126986 -0.08821,-0.407846 z"
       id="path1173" />
    <path
       style="fill:#000000;stroke-width:0.326276"
       d="m 66.043546,43.60947 c -0.34834,-0.263472 -0.894329,-0.479043 -1.213302,-0.479043 -0.391328,0 -0.516442,-0.165508 -0.384675,-0.508878 0.130254,-0.339451 -0.03489,-0.569072 -0.495991,-0.689648 -0.820471,-0.214563 -0.60563,-0.759132 0.299488,-0.759132 0.457998,0 0.633298,-0.225794 0.633298,-0.8157 0,-0.864765 0.623997,-1.158407 0.693342,-0.326282 0.02243,0.269187 0.05913,0.603154 0.08159,0.742155 0.0446,0.276345 0.6804,1.067285 1.625305,2.021884 1.062273,1.073177 0.01399,1.7624 -1.239035,0.814644 z"
       id="path1157" />
    <path
       style="fill:#000000;stroke-width:0.326276"
       d="m 67.166311,44.959874 c 0,-0.249988 0.220237,-0.539023 0.489414,-0.642323 0.512221,-0.196556 0.665357,-1.228696 0.24471,-1.649351 -0.134589,-0.134588 -0.24471,-0.379293 -0.24471,-0.543793 0,-0.164501 -0.146824,-0.311574 -0.326276,-0.326837 -0.742739,-0.06316 -1.191826,-0.783375 -1.02102,-1.637419 0.188367,-0.941835 -0.216954,-1.293753 -1.309376,-1.136846 -0.367501,0.05282 -0.644051,0.400842 -0.702497,0.884131 -0.05302,0.438395 -0.410579,0.939144 -0.79459,1.112771 -0.946181,0.427824 -1.12554,1.131391 -0.288422,1.131391 0.445035,0 0.60976,0.155702 0.491303,0.464391 -0.144553,0.376705 1.095944,1.44267 1.422227,1.222132 0.35678,-0.241155 0.800568,0.07713 1.060401,0.760557 0.332178,0.873689 0.978836,1.112313 0.978836,0.361196 z"
       id="path1155" />
    <path
       style="fill:#000000;stroke-width:0.326276"
       d="m 63.386765,46.689268 c -0.955973,-1.056337 -1.736366,-1.380362 -2.265952,-0.940848 -0.356881,0.296193 -0.675158,0.224026 -1.452149,-0.329241 -0.547301,-0.389709 -1.176478,-0.643469 -1.398183,-0.563911 -0.221699,0.07955 -0.636389,0.02514 -0.92153,-0.12089 -0.441792,-0.226292 -0.470094,-0.532261 -0.191449,-2.069571 0.31135,-1.717729 0.367361,-1.794687 1.170993,-1.608899 0.464206,0.107324 1.00702,0.397756 1.206255,0.645411 0.525226,0.652864 1.106003,0.552026 1.106003,-0.192041 0,-0.37605 0.169066,-0.580348 0.407846,-0.492845 0.636896,0.233413 1.123767,-0.244169 1.337439,-1.311916 0.171881,-0.858911 0.05421,-1.068784 -0.960465,-1.712963 -0.635994,-0.403768 -1.292992,-0.734126 -1.459999,-0.734126 -0.167011,0 -0.303654,-0.220232 -0.303654,-0.489413 0,-0.269177 0.146825,-0.489419 0.326277,-0.489419 0.179451,0 0.326276,-0.215072 0.326276,-0.477933 0,-0.646031 1.180323,-1.237037 1.969991,-0.986404 0.352131,0.111763 0.640233,0.403655 0.640233,0.648647 0,0.244992 0.29365,0.538642 0.652557,0.652551 0.358906,0.113917 0.652555,0.344046 0.652555,0.511404 0,0.167357 0.302878,0.304296 0.673065,0.304296 0.445622,0 0.653438,-0.192948 0.614984,-0.570995 -0.124082,-1.219819 0.02336,-1.690065 0.475501,-1.516557 0.309999,0.118957 0.529678,-0.14846 0.678478,-0.825936 0.268769,-1.223687 0.490226,-1.243395 1.591955,-0.141667 0.693582,0.693587 0.860183,1.167544 0.860183,2.44708 0,1.193062 0.121464,1.586905 0.489418,1.586905 0.26918,0 0.489418,-0.146825 0.489418,-0.326279 0,-0.179455 0.220237,-0.32628 0.489417,-0.32628 0.269179,0 0.489415,0.208006 0.489415,0.462226 0,0.254224 0.177528,0.521402 0.394499,0.593729 0.216975,0.07233 0.411958,0.561746 0.433305,1.087598 0.02806,0.691275 0.280275,1.07398 0.910612,1.381737 0.934925,0.456473 1.189804,1.36888 0.382392,1.36888 -0.269179,0 -0.489418,0.23615 -0.489418,0.524788 0,0.389975 -0.199734,0.474656 -0.777506,0.329645 -0.640392,-0.160725 -0.848758,-0.02313 -1.181557,0.780324 -0.222227,0.536505 -0.616367,0.975463 -0.875871,0.975463 -0.300719,0 -0.406239,0.207064 -0.290987,0.570985 0.149302,0.471436 -0.03177,0.575669 -1.038416,0.597828 -2.100275,0.04624 -3.666332,0.459196 -3.666332,0.96678 0,0.689907 -0.781278,0.581177 -1.495599,-0.208143 z"
       id="path1153" />
    <path
       style="fill:#ffd700;fill-opacity:1;stroke-width:0.326276"
       d="m 42.958778,50.390116 c -0.269724,-0.314041 -0.58152,-0.827935 -0.692894,-1.141967 -0.111365,-0.314046 -0.344027,-0.570988 -0.517019,-0.570988 -0.284419,0 -0.791716,-1.060646 -0.831885,-1.739258 -0.0092,-0.149065 -0.301049,-0.479414 -0.649387,-0.734127 -0.348339,-0.25472 -0.509119,-0.463114 -0.357272,-0.463114 0.151837,0 -0.0018,-0.306918 -0.341162,-0.68203 -0.605677,-0.669273 -0.605455,-0.690627 0.01175,-1.14197 0.345971,-0.252975 0.894621,-0.459955 1.219226,-0.459955 0.324605,0 0.590196,-0.127724 0.590196,-0.283847 0,-0.156109 0.671834,-0.359563 1.492972,-0.452118 1.036912,-0.116877 1.645014,-0.385343 1.990669,-0.878832 0.457891,-0.653724 0.54347,-0.669125 1.070061,-0.192559 0.314802,0.284891 0.80972,0.426896 1.099821,0.315576 0.70564,-0.270776 2.551064,0.570729 2.357546,1.07503 -0.08431,0.219722 0.09754,0.545735 0.40413,0.724477 0.306593,0.178744 0.388411,0.329453 0.18182,0.334911 -0.617592,0.01636 -1.745189,2.248315 -1.745189,3.454493 0,1.255748 0.02163,1.239452 -1.086411,0.818167 -0.707688,-0.269065 -0.95139,-0.135051 -2.060481,1.133074 -0.69182,0.791023 -1.345222,1.442231 -1.452,1.447125 -0.106778,0.0046 -0.41481,-0.248044 -0.684524,-0.562088 z"
       id="path1139" />
    <path
       style="fill:#000000;stroke-width:0.326276"
       d="m 73.95483,51.65716 c -0.420673,-0.60059 -0.611235,-0.637382 -1.718302,-0.33171 -1.452168,0.400965 -1.871383,0.0369 -1.588174,-1.37911 0.139393,-0.696954 -2.44e-4,-0.998301 -0.665718,-1.434177 -0.801063,-0.52487 -0.818693,-0.597253 -0.361005,-1.482319 0.26465,-0.511773 0.48118,-1.090565 0.48118,-1.286197 0,-0.195633 0.321938,-0.791136 0.71542,-1.323349 0.507113,-0.685904 0.89379,-0.911047 1.328007,-0.77323 0.44023,0.13972 0.662754,0.0028 0.790882,-0.487384 0.09807,-0.374996 0.381413,-0.681807 0.629664,-0.681807 0.248247,0 0.451361,-0.146824 0.451361,-0.326279 0,-0.362953 0.972368,-0.433483 1.76784,-0.128226 0.28386,0.108923 0.516106,0.463977 0.516106,0.789007 0,1.220346 0.349888,1.602127 1.295051,1.413091 0.947484,-0.189489 1.411495,0.200423 1.488904,1.251142 0.05108,0.693342 -0.619737,0.980878 -1.672149,0.716731 -0.436701,-0.109607 -0.997173,-0.03071 -1.245498,0.175433 -0.506308,0.420192 -0.318256,1.653098 0.253316,1.660821 0.220138,0.0028 0.190119,0.118837 -0.07418,0.286288 -0.244181,0.154713 -0.723123,0.208283 -1.064317,0.119059 -0.502355,-0.131361 -0.596383,-0.01518 -0.494318,0.610985 0.06932,0.425261 -0.02028,0.956726 -0.199172,1.181049 -0.217547,0.27282 -0.210145,0.546494 0.02234,0.826642 0.193669,0.233356 0.229855,0.609237 0.08174,0.84892 -0.205872,0.333105 -0.372575,0.277751 -0.738987,-0.24538 z"
       id="path1129" />
    <path
       style="fill:#000000;stroke-width:0.326276"
       d="m 66.105907,52.213264 c -0.493495,-0.180243 -0.897264,-0.53054 -0.897264,-0.778457 0,-0.557749 -0.953516,-1.09554 -1.808087,-1.019774 -0.489918,0.04347 -0.657656,-0.171714 -0.718969,-0.92218 -0.107279,-1.313056 0.687631,-2.373359 1.360593,-1.81485 0.555311,0.460867 1.166463,0.204999 1.166463,-0.488358 0,-0.258588 0.273157,-0.470154 0.607017,-0.470154 0.333855,0 1.294564,-0.09423 2.134898,-0.209419 l 1.527882,-0.209424 -0.414137,0.908928 c -0.373736,0.820261 -0.343283,0.955977 0.312188,1.39119 0.583291,0.387295 0.722247,0.779611 0.705636,1.992288 -0.01624,1.185413 -0.08145,1.359383 -0.30341,0.80928 -0.155501,-0.385406 -0.428009,-0.790522 -0.605567,-0.900258 -0.494192,-0.305426 -1.425356,0.804563 -1.247025,1.486498 0.178793,0.68371 -0.375941,0.752187 -1.820218,0.22469 z"
       id="path1127" />
    <path
       style="fill:#ffd700;fill-opacity:1;stroke-width:0.326276"
       d="m 56.835559,54.797355 c -0.758904,-1.208319 -0.06282,-3.775405 0.929582,-3.428212 0.457231,0.159964 3.094376,-2.015874 2.957181,-2.439886 -0.04486,-0.13865 0.224317,-0.252085 0.598176,-0.252085 0.404273,0 0.620481,-0.165285 0.533505,-0.407857 -0.217011,-0.605214 0.366006,-1.549814 0.956559,-1.549814 0.464243,0 0.466152,0.07529 0.01921,0.757339 -0.459589,0.701423 -0.676199,1.87948 -0.592227,3.220827 0.02313,0.369519 0.250491,0.510673 0.687129,0.426584 0.358907,-0.06908 0.652556,0.02839 0.652556,0.216783 0,0.188344 0.206957,0.263028 0.459908,0.16597 0.257282,-0.09873 0.722659,0.173395 1.056276,0.617646 0.418438,0.557195 0.913973,0.79413 1.660897,0.79413 0.585496,0 1.064534,0.146828 1.064534,0.326272 0,0.179455 -0.367064,0.326279 -0.815698,0.326279 -0.448629,0 -1.120694,0.305001 -1.493476,0.677792 -0.730217,0.730212 -1.606165,0.633072 -1.606165,-0.178131 0,-0.605689 -0.135084,-0.617777 -1.025888,-0.09184 -0.552609,0.32628 -0.720297,0.32628 -0.83846,0 -0.239929,-0.662522 -1.217735,-0.466058 -1.565767,0.314599 -0.255285,0.572632 -0.639164,0.7423 -1.851111,0.818178 -0.966905,0.06049 -1.62378,-0.05512 -1.786744,-0.314598 z"
       id="path1101" />
    <path
       style="fill:#ffd700;fill-opacity:1;stroke-width:0.326276"
       d="m 55.596862,55.22442 c -0.118288,-0.191386 -0.486308,-0.347989 -0.817822,-0.347989 -0.442117,0 -0.557276,-0.173904 -0.432105,-0.652548 0.142095,-0.54337 0.01,-0.65256 -0.789364,-0.65256 -0.91701,0 -2.306256,-1.05394 -2.36544,-1.794532 -0.01433,-0.179444 -0.280173,-0.335322 -0.590741,-0.346384 -0.60366,-0.02155 -1.517364,-0.328809 -2.436336,-0.819401 -0.311609,-0.166357 -0.853537,-0.302465 -1.204286,-0.302465 -0.765929,0 -1.073675,-0.413744 -0.813005,-1.093033 0.155231,-0.404535 0.342995,-0.430394 0.988739,-0.13617 1.009262,0.45984 1.434875,0.07075 1.545255,-1.412655 0.116704,-1.568389 1.070141,-3.231144 1.852762,-3.231144 0.355082,0 0.644177,0.21964 0.644177,0.489421 0,0.304526 0.30815,0.48942 0.815695,0.48942 0.448632,0 0.815694,-0.136939 0.815694,-0.304297 0,-0.167357 0.293649,-0.397486 0.652554,-0.511405 0.358907,-0.113906 0.652557,-0.399475 0.652557,-0.634589 0,-0.235113 0.228521,-0.617137 0.507826,-0.848939 0.279305,-0.231795 0.482156,-0.286483 0.450777,-0.121521 -0.183937,0.967095 0.05804,1.733202 0.494516,1.565712 0.260856,-0.100098 0.807411,0.05134 1.214573,0.336522 0.407154,0.285176 0.983285,0.518517 1.280286,0.518517 0.297006,0 0.704231,0.197877 0.904951,0.439727 0.422543,0.509129 2.222802,0.64245 2.505197,0.185523 0.105244,-0.170288 0.33069,-0.223498 0.500995,-0.118248 0.295773,0.182793 -0.86459,2.146672 -1.403349,2.375116 -0.141072,0.05985 -0.256495,0.252825 -0.256495,0.428916 0,0.430365 -2.012063,2.097197 -2.388083,1.978321 -0.163935,-0.05179 -0.658218,0.141767 -1.098415,0.4302 -0.70756,0.463606 -0.790861,0.729316 -0.718487,2.29173 0.08209,1.772223 -0.110775,2.448967 -0.512626,1.798755 z"
       id="path1097" />
    <path
       style="fill:#000000;stroke-width:0.326276"
       d="m 67.329449,58.120799 c -0.358908,-0.144103 -0.524459,-0.272324 -0.367897,-0.284928 0.156565,-0.01266 0.103221,-0.241561 -0.118537,-0.50876 -0.221761,-0.267198 -0.5355,-0.404052 -0.697201,-0.304119 -0.162467,0.100406 -0.255409,-0.484593 -0.207742,-1.307551 0.08021,-1.384827 0.157879,-1.502804 1.107494,-1.68251 1.065853,-0.201697 1.951022,-1.437322 1.414211,-1.974132 -0.388343,-0.388337 0.170152,-1.239898 0.627725,-0.957105 0.199513,0.123305 0.362755,0.439227 0.362755,0.70204 0,0.46973 0.425752,0.469222 3.15088,-0.0038 0.938161,-0.162835 2.371545,1.352805 2.461802,2.603088 0.03823,0.529551 0.22256,1.0707 0.409623,1.202541 0.197938,0.1395 0.09393,0.241802 -0.248773,0.244708 -0.787218,0.0064 -3.402966,1.213369 -3.543383,1.634626 -0.191299,0.5739 -3.35406,1.036136 -4.350957,0.635894 z"
       id="path1081" />
    <path
       style="fill:#ffd700;fill-opacity:1;stroke-width:0.326276"
       d="m 39.407592,59.795706 c -0.60591,-0.605919 -0.953729,-1.291331 -0.953729,-1.879434 0,-0.520839 -0.337001,-1.289129 -0.770521,-1.756667 -0.423789,-0.457038 -0.946607,-1.159986 -1.161817,-1.562106 -0.215211,-0.402122 -0.749422,-0.8673 -1.187142,-1.033715 -0.561015,-0.213294 -0.795861,-0.552062 -0.795861,-1.148029 0,-0.727483 -0.123583,-0.831041 -0.885824,-0.742198 -0.590907,0.0689 -1.137013,-0.149082 -1.640288,-0.654612 L 31.257947,50.261087 32.32725,49.19528 c 0.588122,-0.586189 1.236771,-1.009111 1.441446,-0.93981 0.431792,0.14618 1.748666,-1.412231 1.748666,-2.069397 0,-0.244982 0.146825,-0.445411 0.32628,-0.445411 0.547873,0 0.36396,-0.843599 -0.318585,-1.4613 -0.704243,-0.637316 -0.599222,-1.230231 0.165896,-0.936637 0.263425,0.101089 0.478959,0.02126 0.478959,-0.177383 0,-1.222462 2.205002,0.456448 3.060906,2.330601 0.307321,0.672958 0.68704,1.223548 0.843816,1.223548 0.156778,0 0.38205,0.441696 0.50063,0.981549 0.118571,0.539846 0.4973,1.132317 0.841615,1.316589 0.344324,0.184274 0.630919,0.513412 0.636892,0.731406 0.02183,0.79701 1.257785,1.920174 1.891625,1.718996 0.73936,-0.234661 1.20956,0.282062 1.501787,1.650377 0.134912,0.631722 0.51897,1.152985 1.016509,1.379683 0.439818,0.200393 0.799669,0.503841 0.799669,0.674324 0,0.5554 -1.034303,1.36235 -2.651004,2.068276 -0.930831,0.406441 -1.671864,0.970109 -1.796094,1.366209 -0.237603,0.75756 -1.608241,2.142535 -2.120367,2.142535 -0.184014,0 -0.763748,-0.429174 -1.288304,-0.953729 z"
       id="path1063" />
    <path
       style="fill:#000000;stroke-width:0.326276"
       d="M 63.904567,64.055445 C 63.475238,63.583032 62.82219,62.609224 62.453347,61.891413 62.084508,61.173594 61.511722,60.53612 61.180502,60.474791 60.540885,60.35636 59.33564,59.446351 59.33564,59.081844 c 0,-0.119597 0.513888,-0.313857 1.141974,-0.431687 0.628083,-0.117821 1.141974,-0.354406 1.141974,-0.525723 0,-0.171326 0.220235,-0.311499 0.489415,-0.311499 0.574736,0 0.667561,-1.322732 0.13051,-1.859782 -0.261022,-0.261019 -0.15723,-0.56058 0.380563,-1.09838 l 0.739472,-0.739463 0.269236,0.727818 c 0.189561,0.512432 0.487304,0.697474 1.006119,0.625267 0.618776,-0.08611 0.753265,0.06742 0.83912,0.957863 0.06332,0.656834 0.28064,1.060407 0.57099,1.060407 0.257806,0 0.468741,0.188046 0.468741,0.417878 0,0.229833 0.416246,0.575 0.924994,0.767032 0.791393,0.298719 0.919394,0.517927 0.886223,1.517733 -0.02134,0.642719 -0.290751,1.447015 -0.59872,1.787316 -0.715151,0.790227 -0.711392,1.295612 0.01103,1.484397 0.474762,0.124075 0.459505,0.155594 -0.09054,0.187067 -0.363843,0.02082 -1.023557,0.291422 -1.466039,0.60135 -1.137699,0.796879 -1.395612,0.774894 -2.276153,-0.193993 z"
       id="path1039" />
  </g>
</svg>
