<svg xmlns="http://www.w3.org/2000/svg" id="icon-drutex-logo" viewBox="0 0 128 32">
<path d="M0.006 16.092c-0.016-8.735 0.002-15.93 0.038-15.99 0.043-0.069 2.565-0.093 6.961-0.065 7.248 0.046 7.403 0.056 9.567 0.597 5.271 1.32 8.54 4.605 10.183 10.233 0.838 2.872 0.882 6.742 0.111 9.831-0.364 1.459-0.483 1.785-1.145 3.144-0.736 1.509-1.471 2.539-2.647 3.705-2.159 2.141-4.94 3.564-8.208 4.201-1.076 0.21-1.59 0.224-7.99 0.224h-6.84zM7.649 26.527c1.11-0.3 3.17-0.851 4.579-1.225 4.181-1.109 7.068-1.874 8.047-2.132 0.505-0.133 0.92-0.3 0.92-0.369 0.039-3.138-0.029-14.51-0.087-14.568-0.045-0.045-0.759-0.235-1.585-0.422s-2.405-0.544-3.508-0.794c-1.103-0.25-2.756-0.62-3.675-0.823s-2.823-0.63-4.232-0.95c-1.409-0.32-2.637-0.589-2.729-0.597-0.147-0.013-0.17 1.311-0.195 11.206l-0.028 11.221h0.238c0.131 0 1.146-0.246 2.256-0.546zM46.934 29.412c-1.83-0.432-2.543-3.060-1.214-4.472 0.862-0.916 2.376-0.991 3.255-0.162 0.454 0.428 0.485 0.568 0.166 0.739-0.193 0.103-0.265 0.077-0.456-0.166-0.252-0.32-0.869-0.617-1.282-0.617-0.441 0-1.112 0.411-1.38 0.845-0.669 1.083-0.344 2.582 0.675 3.109 0.927 0.479 2.416-0.175 2.319-1.019-0.034-0.293-0.079-0.322-0.593-0.374-0.396-0.040-0.557-0.104-0.557-0.223 0-0.134 0.167-0.167 0.835-0.167h0.835l0.063 2.506h-0.282c-0.227 0-0.282-0.055-0.282-0.278 0-0.315-0.129-0.358-0.334-0.112-0.119 0.144-1.148 0.523-1.329 0.49-0.035-0.006-0.233-0.051-0.439-0.1zM96.806 29.421c-1.618-0.32-2.484-2.278-1.684-3.809 0.807-1.544 2.583-1.887 3.747-0.724 1.007 1.007 1.104 2.553 0.231 3.697-0.468 0.613-1.506 0.991-2.293 0.835zM98.182 28.573c1.059-0.72 1.171-2.427 0.216-3.304-0.932-0.856-2.164-0.57-2.709 0.63-0.823 1.812 0.955 3.719 2.493 2.674zM117.345 29.398c-0.256-0.045-0.606-0.156-0.78-0.246-1.152-0.599-1.621-2.361-0.953-3.577 1.022-1.859 3.332-1.829 4.281 0.056 0.948 1.884-0.565 4.121-2.549 3.768zM118.598 28.627c1.091-0.674 1.238-2.559 0.264-3.379-0.792-0.666-1.685-0.61-2.371 0.149-0.853 0.944-0.641 2.602 0.415 3.246 0.463 0.283 1.22 0.275 1.692-0.016zM123.601 29.469c-0.061-0.020-0.248-0.067-0.416-0.104-0.417-0.092-1.061-0.681-1.276-1.166-0.128-0.29-0.192-0.885-0.23-2.139-0.046-1.528-0.031-1.746 0.127-1.806 0.458-0.176 0.514-0.010 0.515 1.523 0.001 1.715 0.113 2.212 0.612 2.712 0.315 0.315 0.445 0.367 0.907 0.367 0.67-0 1.162-0.283 1.412-0.811 0.148-0.312 0.186-0.733 0.186-2.061 0-1.619 0.007-1.671 0.242-1.732 0.133-0.035 0.284-0.038 0.334-0.006s0.092 0.818 0.091 1.749c-0.001 1.546-0.024 1.741-0.266 2.26-0.145 0.312-0.408 0.67-0.584 0.795-0.466 0.331-1.293 0.541-1.656 0.42zM34.027 26.836l0.030-2.581 0.613-0.027c0.337-0.015 1.104 0 1.704 0.034 1.018 0.057 1.089 0.076 1.058 0.287-0.032 0.215-0.1 0.225-1.323 0.199-0.957-0.021-1.32 0.010-1.409 0.118-0.066 0.080-0.106 0.472-0.090 0.87l0.029 0.724 1.212 0.056c1.12 0.051 1.212 0.073 1.212 0.278s-0.093 0.227-1.207 0.278l-1.207 0.056-0.035 1.671 1.448 0.056c1.355 0.052 1.448 0.070 1.448 0.278 0 0.212-0.084 0.224-1.756 0.253l-1.756 0.031zM39.013 26.864c0-1.419 0.045-2.59 0.101-2.625s0.176-0.034 0.266 0.001c0.152 0.058 2.379 2.757 2.958 3.585 0.139 0.199 0.3 0.362 0.357 0.362 0.060 0 0.104-0.819 0.104-1.949v-1.949h0.557v2.45c0 1.348 0.013 2.488 0.028 2.534s-0.103 0.099-0.264 0.117c-0.242 0.028-0.387-0.086-0.851-0.668-0.308-0.386-0.945-1.178-1.417-1.76s-0.884-1.121-0.915-1.197c-0.032-0.077-0.115-0.139-0.185-0.139-0.090-0-0.127 0.54-0.127 1.866v1.866l-0.613 0.070zM51.375 29.384c-0-0.015-0.011-1.176-0.024-2.58l-0.024-2.552 0.605-0.027v5.186h-0.278c-0.153 0-0.279-0.013-0.279-0.028zM53.937 26.858v-2.569h0.258c0.202 0 0.598 0.428 1.804 1.949 0.85 1.072 1.573 1.949 1.607 1.949s0.045-0.877 0.025-1.949l-0.037-1.949h0.687v5.123h-0.26c-0.3 0-0.366-0.071-2.061-2.2-0.695-0.873-1.311-1.587-1.369-1.587-0.063 0-0.1 0.75-0.090 1.866l0.016 1.866-0.579 0.070zM60.2 26.824l0.030-2.588 1.615 0.024c0.888 0.013 1.653 0.025 1.698 0.027s0.084 0.103 0.084 0.225c0 0.248 0.018 0.245-1.451 0.224-1.344-0.019-1.334-0.026-1.334 0.957v0.823h1.233c1.215 0 1.232 0.004 1.197 0.251-0.034 0.24-0.087 0.252-1.233 0.282l-1.197 0.032v1.774h2.896v0.557h-3.568zM65.236 29.27c-0.030-0.078-0.041-1.243-0.024-2.589l0.030-2.448h1.697c1.69 0 1.856 0.038 1.712 0.39-0.055 0.135-0.321 0.167-1.405 0.167h-1.336l-0.065 1.726h2.46v0.557h-2.45v1.782h2.896v0.557h-1.73c-1.298 0-1.743-0.035-1.784-0.142zM70.198 26.859v-2.553l0.306-0.067c0.168-0.037 0.797-0.040 1.397-0.008 1.21 0.065 1.492 0.184 1.868 0.793 0.407 0.658 0.234 1.839-0.315 2.153-0.531 0.304-0.532 0.282 0.017 1.114 0.706 1.072 0.72 1.12 0.319 1.12-0.29 0-0.405-0.114-0.963-0.952l-0.634-0.952-1.272 0.067-0.032 0.919-0.032 0.919h-0.659zM73.019 26.76c0.826-0.912 0.193-2.032-1.138-2.016-1.050 0.013-1.015-0.027-1.015 1.167v1.051h0.985c0.81 0 1.018-0.036 1.168-0.202zM75.728 29.328c-0.028-0.046-0.055-1.194-0.060-2.55-0.006-1.858 0.025-2.479 0.129-2.515 0.075-0.027 0.864-0.044 1.752-0.039l1.615 0.009v0.266c0 0.265-0.003 0.266-1.392 0.278l-1.392 0.013v1.671l1.225 0.056c1.216 0.055 1.243 0.065 1.186 0.445-0.010 0.067-0.512 0.111-1.246 0.111h-1.23l0.065 1.726 2.84 0.062v0.55h-1.72c-0.946 0-1.743-0.038-1.771-0.083zM80.667 26.863c0-2.38 0.014-2.552 0.205-2.602 0.454-0.119 2.419 0.050 2.87 0.247 0.905 0.395 1.386 1.505 1.221 2.818-0.1 0.797-0.576 1.476-1.287 1.835-0.427 0.216-0.67 0.251-1.753 0.251h-1.257zM83.52 28.57c0.567-0.423 0.753-0.783 0.802-1.548 0.056-0.874-0.244-1.601-0.803-1.946-0.398-0.246-1.447-0.411-1.897-0.298l-0.287 0.072v4.028l0.939-0.039c0.733-0.031 1.006-0.090 1.246-0.269zM90.356 26.85v-2.562l1.448-0.020c0.796-0.012 1.561-0.023 1.698-0.028 0.191-0.006 0.251 0.054 0.251 0.253 0 0.258-0.014 0.261-1.336 0.278l-1.336 0.018-0.065 1.718 1.146 0.032c1.093 0.030 1.148 0.044 1.182 0.282 0.035 0.246 0.016 0.251-1.142 0.251h-1.177v2.339h-0.668zM101.345 29.338c-0.102-0.102-0.091-4.851 0.011-5.004 0.074-0.111 0.835-0.133 2.333-0.066 0.639 0.029 1.21 0.526 1.342 1.169 0.177 0.865-0.116 1.553-0.83 1.953-0.173 0.097-0.165 0.139 0.089 0.479 0.153 0.205 0.438 0.636 0.633 0.958l0.355 0.585h-0.374c-0.343 0-0.414-0.065-0.862-0.791-0.689-1.116-0.692-1.118-1.42-1.080l-0.627 0.033-0.032 0.919c-0.031 0.874-0.045 0.919-0.288 0.919-0.14 0-0.289-0.033-0.33-0.074zM104.161 26.665c0.339-0.431 0.396-0.787 0.192-1.214-0.257-0.539-0.71-0.734-1.61-0.694l-0.748 0.033-0.032 1.086-0.032 1.086h0.998c0.948 0 1.010-0.015 1.232-0.297zM112.037 29.338c-0.041-0.041-0.074-0.471-0.074-0.956v-0.881l-0.947-1.6c-0.521-0.88-0.947-1.627-0.947-1.66 0-0.125 0.699 0.029 0.789 0.174 0.052 0.084 0.384 0.665 0.739 1.291s0.677 1.14 0.718 1.142c0.041 0.001 0.412-0.573 0.824-1.277s0.78-1.285 0.817-1.289c0.037-0.005 0.164-0.027 0.283-0.049 0.378-0.071 0.416 0.067 0.123 0.45-0.156 0.205-0.284 0.399-0.284 0.433s-0.326 0.587-0.724 1.231l-0.724 1.171v0.948c0 0.919-0.008 0.948-0.26 0.948-0.143 0-0.293-0.033-0.334-0.074zM60.036 20.455c-1.154-0.412-1.447-0.992-2.147-4.241-0.593-2.754-0.878-3.063-2.827-3.063h-1.125v5.579l0.273 0.273c0.15 0.15 0.395 0.273 0.543 0.273s0.427 0.032 0.619 0.070c0.325 0.065 0.347 0.098 0.308 0.473l-0.041 0.403-5.935 0.059v-0.887l0.579-0.077c0.382-0.051 0.667-0.164 0.835-0.333l0.256-0.256v-6.181c0-4.377-0.037-6.262-0.127-6.459-0.095-0.21-0.261-0.306-0.674-0.395-0.301-0.065-0.62-0.117-0.709-0.117-0.114 0-0.162-0.13-0.162-0.446v-0.446h3.403c3.84 0 4.659 0.086 5.8 0.611 1.415 0.65 2.174 1.704 2.248 3.121 0.091 1.721-0.791 3.191-2.404 4.008-0.534 0.27-0.679 0.501-0.315 0.501 0.079 0 0.341 0.143 0.581 0.317 0.674 0.488 1.058 1.355 1.597 3.601 0.477 1.987 0.678 2.43 1.1 2.43 0.21 0 0.558-0.282 0.835-0.678l0.169-0.241 0.796 0.492-0.196 0.337c-0.659 1.135-2.1 1.691-3.285 1.267zM56.592 11.977c1.225-0.364 1.805-1.22 1.887-2.786 0.128-2.428-0.839-3.523-3.131-3.548-0.823-0.009-0.888 0.008-1.142 0.303l-0.269 0.313v5.89h1.038c0.611 0 1.276-0.071 1.616-0.172zM71.59 20.536c-2.241-0.297-3.791-1.78-4.175-3.992-0.083-0.48-0.157-2.613-0.193-5.605-0.067-5.518 0.005-5.163-1.075-5.298l-0.627-0.078v-0.875h6.028l-0.035 0.418c-0.034 0.414-0.040 0.419-0.689 0.547-1.083 0.214-1.012-0.108-1.051 4.747-0.040 4.917 0.063 6.483 0.488 7.381 0.522 1.102 1.223 1.495 2.673 1.496 2.080 0.001 3.204-1.034 3.625-3.341 0.17-0.931 0.221-8.624 0.063-9.388-0.107-0.514-0.53-0.807-1.323-0.917l-0.547-0.075 0.034-0.436c0.019-0.24 0.071-0.435 0.117-0.434s1.086 0.002 2.311 0.002h2.227v0.883l-0.563 0.075c-0.31 0.041-0.673 0.164-0.807 0.272-0.242 0.196-0.245 0.232-0.315 5.024-0.039 2.655-0.123 5.102-0.187 5.439-0.238 1.252-0.608 2.030-1.341 2.819-1.003 1.080-2.756 1.585-4.638 1.335zM32.331 19.855v-0.442l0.69-0.122c0.38-0.067 0.768-0.199 0.863-0.294 0.152-0.152 0.173-0.935 0.173-6.527v-6.354l-0.253-0.205c-0.139-0.113-0.528-0.24-0.863-0.281l-0.61-0.076v-0.859l3.625-0.003c4.554-0.004 5.227 0.081 6.844 0.87 2.227 1.086 3.453 3.462 3.453 6.692 0 3.941-1.865 6.643-5.333 7.724-0.672 0.209-1.085 0.234-4.663 0.275l-3.926 0.045zM39.642 19.208c2.096-0.432 3.146-1.512 3.672-3.777 0.299-1.288 0.297-4.767-0.004-5.955-0.403-1.593-0.929-2.444-1.887-3.058-0.889-0.569-1.703-0.769-3.156-0.778-1.444-0.008-1.531 0.044-1.649 0.995-0.038 0.306-0.053 3.18-0.034 6.386l0.035 5.829 0.312 0.269c0.264 0.227 0.43 0.269 1.074 0.269 0.419 0 1.155-0.081 1.637-0.18zM85.678 19.841v-0.439l0.529-0.064c1.031-0.125 1.407-0.302 1.553-0.729 0.097-0.283 0.135-2.107 0.139-6.655l0.006-6.265h-0.871c-1.020 0-1.887 0.228-2.217 0.583-0.335 0.36-0.546 0.985-0.746 2.215-0.096 0.589-0.175 1.106-0.175 1.148s-0.203 0.061-0.452 0.042l-0.452-0.034-0.038-2.172c-0.021-1.194-0.074-2.31-0.118-2.478l-0.080-0.306h12.675l-0.088 0.919c-0.048 0.505-0.078 1.62-0.065 2.478l0.023 1.559h-0.992l-0.079-0.724c-0.125-1.147-0.426-2.215-0.723-2.568-0.358-0.425-1.175-0.662-2.285-0.662h-0.875l0.032 6.432c0.024 4.871 0.066 6.49 0.17 6.673 0.155 0.271 0.585 0.432 1.449 0.541l0.585 0.074v0.87h-6.905zM99.266 19.846c0-0.413 0.019-0.436 0.418-0.505 1.014-0.175 1.048-0.191 1.208-0.573 0.128-0.306 0.157-1.454 0.157-6.265 0-4.013-0.039-6.002-0.123-6.243-0.149-0.428-0.333-0.535-1.083-0.635l-0.576-0.076v-0.862h11.256l-0.087 0.585c-0.048 0.322-0.087 1.299-0.087 2.172l-0.001 1.587-0.918-0-0.119-0.64c-0.065-0.352-0.15-0.845-0.188-1.095-0.102-0.664-0.438-1.142-0.977-1.387-0.401-0.182-0.737-0.214-2.269-0.216-2.533-0.003-2.314-0.312-2.359 3.329l-0.036 2.906h0.838c0.461 0 0.974-0.062 1.14-0.137 0.34-0.155 0.823-1.114 0.823-1.634 0-0.174 0.031-0.474 0.070-0.665 0.065-0.325 0.101-0.348 0.547-0.348h0.478l0.008 2.812c0.004 1.547 0.040 3.028 0.079 3.292l0.071 0.48-1.082-0.069-0.117-0.891c-0.198-1.506-0.555-1.837-1.982-1.837l-0.871-0 0.036 2.948c0.032 2.652 0.056 2.968 0.235 3.146 0.166 0.166 0.44 0.205 1.644 0.238 3.126 0.084 3.862-0.35 4.221-2.489 0.231-1.376 0.178-1.281 0.705-1.281l0.471 0 0.007 2.088c0.004 1.148 0.042 2.226 0.086 2.394l0.079 0.306h-11.698v-0.433zM114.524 19.838c0-0.425 0.017-0.446 0.473-0.567 0.733-0.194 1.521-1.101 3.406-3.924l1.687-2.526-1.074-1.645c-0.591-0.905-1.549-2.372-2.129-3.26-1.161-1.778-1.528-2.227-1.818-2.227-0.417 0-0.545-0.13-0.545-0.554v-0.418l5.457-0.014v0.425c0 0.488-0.11 0.56-0.848 0.56-0.312 0-0.517 0.055-0.553 0.149-0.048 0.125 0.274 0.702 0.847 1.521 0.064 0.092 0.591 0.894 1.171 1.782s1.091 1.624 1.137 1.636c0.18 0.046 2.519-3.648 2.681-4.234 0.158-0.572-0.080-0.809-0.918-0.914l-0.622-0.078v-0.865h4.789v0.419c0 0.401-0.023 0.428-0.545 0.613-0.582 0.207-1.11 0.643-1.65 1.362-0.322 0.429-3.061 4.489-3.129 4.638-0.018 0.040 0.213 0.441 0.515 0.892s1.138 1.721 1.859 2.824c0.721 1.103 1.534 2.344 1.807 2.758 0.543 0.825 0.836 1.085 1.223 1.085 0.225 0 0.254 0.055 0.254 0.48v0.48l-5.358 0.027 0.068-0.932 0.613-0.031c0.936-0.047 0.94-0.054 0.485-0.773-0.701-1.106-2.957-4.537-3.049-4.638s-2.366 3.243-2.699 3.97c-0.41 0.894-0.172 1.25 0.964 1.438l0.737 0.122v0.858h-5.234v-0.441z"></path>
</svg>