<svg xmlns="http://www.w3.org/2000/svg"  id="icon-eko-okna-logo" viewBox="0 0 60 32">
<path d="M10.967 31.472c-0.066-0.172-0.019-1.27 0.105-2.44s0.307-2.945 0.406-3.945c0.1-1 0.292-2.765 0.427-3.923l0.246-2.105 5.454-0.047c3-0.026 5.551 0.017 5.669 0.096 0.217 0.144 0.186 0.73-0.292 5.501-0.106 1.053-0.291 2.947-0.413 4.21s-0.301 2.447-0.399 2.631c-0.163 0.307-0.633 0.335-5.631 0.335-4.875 0-5.466-0.033-5.574-0.314zM18.057 27.814c0.052-0.184 0.149-1.282 0.217-2.44s0.166-2.256 0.219-2.44c0.084-0.292-0.048-0.335-1.030-0.335h-1.126l-0.228 2.44c-0.319 3.416-0.399 3.11 0.814 3.11 0.827 0 1.059-0.069 1.133-0.335zM23.262 31.419c-0.064-0.103-0.029-0.945 0.076-1.872s0.282-2.589 0.392-3.694 0.285-2.751 0.387-3.658c0.103-0.907 0.187-1.96 0.187-2.341 0-0.866 0.198-0.927 2.775-0.851 2.201 0.064 1.982-0.269 1.729 2.639l-0.142 1.627 0.498-0.707c0.274-0.389 0.498-0.798 0.498-0.909s0.086-0.202 0.191-0.202c0.105 0 0.191-0.084 0.191-0.188s0.304-0.663 0.676-1.244l0.676-1.056h2.195c1.508 0 2.195 0.068 2.195 0.217 0 0.119-0.56 1.095-1.244 2.168s-1.244 2.009-1.244 2.079c0 0.071 0.476 0.128 1.057 0.128h1.057l-0.116 1.579c-0.064 0.868-0.195 2.047-0.292 2.619s-0.176 1.449-0.176 1.949c0 0.5-0.084 1.13-0.187 1.4-0.186 0.488-0.199 0.491-2.415 0.491h-2.228l0.157-1.483c0.086-0.816 0.161-1.828 0.166-2.249l0.009-0.765h-2.105l-0.146 1.608c-0.080 0.884-0.215 1.875-0.299 2.201l-0.153 0.593-2.126 0.054c-1.24 0.031-2.174-0.024-2.242-0.133zM35.68 29.926c0.066-0.924 0.2-2.37 0.298-3.212s0.271-2.564 0.386-3.827c0.114-1.263 0.268-2.641 0.342-3.062l0.134-0.765 5.518-0.096c3.842-0.067 5.57-0.033 5.69 0.112 0.102 0.123 0.094 0.902-0.020 1.914-0.106 0.938-0.279 2.567-0.385 3.62s-0.276 2.655-0.379 3.562c-0.103 0.907-0.187 2.003-0.187 2.436 0 0.975-0.143 1.024-2.775 0.947-1.905-0.056-1.914-0.058-1.894-0.534 0.041-0.984 0.658-7.392 0.768-7.99l0.115-0.622h-1.063c-0.584 0-1.103 0.066-1.153 0.146s-0.231 1.695-0.403 3.588-0.373 3.873-0.448 4.399l-0.135 0.957-4.533 0.108zM47.967 31.448c-0.087-0.14 0.040-1.839 0.441-5.882 0.104-1.053 0.28-2.861 0.39-4.019s0.241-2.234 0.291-2.392c0.078-0.247 0.881-0.287 5.69-0.287h5.599l-0.008 0.957c-0.004 0.526-0.119 2.033-0.254 3.349s-0.326 3.21-0.424 4.21c-0.098 1-0.242 2.335-0.32 2.966l-0.142 1.148h-4.402l0.061-1.483c0.033-0.816 0.017-1.483-0.036-1.483s-0.629 0.689-1.281 1.531l-1.184 1.531h-2.166c-1.191 0-2.206-0.066-2.256-0.146zM55.245 25.757c0.125-1.158 0.233-2.389 0.24-2.737l0.013-0.631-2.201 0.115-0.117 1.531c-0.064 0.842-0.181 2.074-0.259 2.737l-0.143 1.206 2.239-0.116 0.227-2.105zM12.363 18.038c-0.11-0.178 0.047-1.947 0.841-9.504 0.665-6.322 0.677-6.664 0.278-7.92-0.143-0.45-0.13-0.455 0.793-0.326 3.261 0.453 4.335 2.088 3.729 5.676-0.279 1.652-0.397 3.837-0.201 3.715 0.097-0.060 0.711-1.009 1.366-2.11l1.19-2.001h2.26c1.243 0 2.26 0.031 2.26 0.069s-0.431 0.722-0.957 1.52c-0.526 0.798-0.957 1.507-0.957 1.576s-0.17 0.363-0.377 0.654c-0.207 0.291-0.322 0.584-0.255 0.652s0.551 0.122 1.075 0.122h0.953l-0.121 1.387c-0.335 3.86-0.514 5.638-0.606 6.028-0.097 0.413-0.185 0.431-2.107 0.431-1.103 0-2.070-0.022-2.149-0.048-0.189-0.063-0.174-1.871 0.027-3.253l0.16-1.1h-1.146c-1.139 0-1.147 0.004-1.275 0.622-0.071 0.342-0.179 1.321-0.242 2.175l-0.113 1.553-1.438 0.122c-1.948 0.165-2.869 0.153-2.987-0.039zM24.764 16.284c0.121-1.8 0.343-4.025 0.697-6.985 0.101-0.842 0.183-1.89 0.183-2.329-0-1.504-0.421-1.403 5.857-1.403 4.376 0 5.623 0.053 5.618 0.239-0.007 0.228-0.177 1.98-0.563 5.789-0.096 0.947-0.27 2.713-0.387 3.923s-0.273 2.261-0.347 2.336c-0.074 0.074-2.619 0.16-5.658 0.191l-5.524 0.056zM31.817 13.509c0.080-0.632 0.213-1.902 0.295-2.823l0.15-1.675h-1.1c-1.091 0-1.1 0.004-1.204 0.622-0.233 1.384-0.493 4.762-0.381 4.944 0.066 0.107 0.564 0.168 1.108 0.137l0.988-0.057zM0 17.8c0-0.114 0.087-1.039 0.192-2.057s0.274-2.669 0.374-3.669c0.1-1 0.288-2.873 0.418-4.162l0.236-2.344h11.219v1.102c0 0.606-0.082 1.386-0.181 1.733-0.202 0.703-0.439 0.994-4.496 5.49l-0.518 0.574 0.108-1.627c0.059-0.895 0.164-2.122 0.232-2.727l0.124-1.1h-2.298l-0.114 0.828c-0.062 0.456-0.172 1.726-0.243 2.823l-0.129 1.994h6.653l-0.045 0.861c-0.025 0.474-0.095 1.227-0.155 1.674l-0.11 0.813h-5.634c-3.905 0-5.634-0.063-5.634-0.207z"></path>
</svg>
