<svg xmlns="http://www.w3.org/2000/svg" id="icon-ventus-trade-logo" viewBox="0 0 200 32">
<path d="M195.926 21.285l3.863 0.648q-0.745 2.125-2.359 3.242-1.601 1.104-4.015 1.104-3.822 0-5.657-2.497-1.449-2.001-1.449-5.050 0-3.643 1.904-5.698 1.904-2.070 4.815-2.070 3.27 0 5.16 2.166 1.89 2.152 1.808 6.609h-9.714q0.041 1.725 0.938 2.691 0.897 0.952 2.235 0.952 0.911 0 1.532-0.497t0.938-1.601zM196.147 17.366q-0.041-1.683-0.869-2.553-0.828-0.883-2.014-0.883-1.269 0-2.097 0.924t-0.814 2.511zM183.619 25.948h-3.601v-2.152q-0.897 1.256-2.125 1.877-1.214 0.607-2.456 0.607-2.525 0-4.333-2.028-1.794-2.042-1.794-5.685 0-3.725 1.752-5.657 1.752-1.945 4.429-1.945 2.456 0 4.25 2.042v-7.285h3.877zM173.27 18.304q0 2.346 0.648 3.394 0.938 1.518 2.622 1.518 1.338 0 2.277-1.131 0.938-1.145 0.938-3.408 0-2.525-0.911-3.629-0.911-1.118-2.332-1.118-1.38 0-2.318 1.104-0.924 1.090-0.924 3.27zM157.362 15.765l-3.518-0.635q0.593-2.125 2.042-3.146t4.305-1.021q2.594 0 3.863 0.621 1.269 0.607 1.78 1.559 0.524 0.938 0.524 3.463l-0.041 4.526q0 1.932 0.179 2.856 0.193 0.911 0.704 1.959h-3.836q-0.152-0.386-0.373-1.145-0.097-0.345-0.138-0.455-0.993 0.966-2.125 1.449t-2.415 0.483q-2.263 0-3.574-1.228-1.297-1.228-1.297-3.105 0-1.242 0.593-2.208 0.593-0.98 1.656-1.49 1.076-0.524 3.091-0.911 2.718-0.511 3.767-0.952v-0.386q0-1.118-0.552-1.587-0.552-0.483-2.083-0.483-1.035 0-1.614 0.414-0.579 0.4-0.938 1.421zM162.549 18.911q-0.745 0.248-2.359 0.593t-2.111 0.676q-0.759 0.538-0.759 1.366 0 0.814 0.607 1.407t1.545 0.593q1.049 0 2.001-0.69 0.704-0.524 0.924-1.283 0.152-0.497 0.152-1.89zM147.179 25.948h-3.877v-14.653h3.601v2.083q0.924-1.476 1.656-1.945 0.745-0.469 1.683-0.469 1.325 0 2.553 0.731l-1.2 3.38q-0.98-0.635-1.821-0.635-0.814 0-1.38 0.455-0.566 0.442-0.897 1.614-0.317 1.173-0.317 4.912zM132.346 25.948v-16.806h-6.002v-3.422h16.074v3.422h-5.988v16.806zM110.684 21.767l3.891-0.593q0.248 1.131 1.007 1.725 0.759 0.579 2.125 0.579 1.504 0 2.263-0.552 0.511-0.386 0.511-1.035 0-0.442-0.276-0.731-0.29-0.276-1.297-0.511-4.691-1.035-5.947-1.89-1.739-1.187-1.739-3.298 0-1.904 1.504-3.201t4.664-1.297q3.008 0 4.47 0.98t2.014 2.898l-3.656 0.676q-0.235-0.855-0.897-1.311-0.648-0.455-1.863-0.455-1.532 0-2.194 0.428-0.442 0.304-0.442 0.786 0 0.414 0.386 0.704 0.524 0.386 3.615 1.090 3.105 0.704 4.332 1.725 1.214 1.035 1.214 2.884 0 2.014-1.683 3.463t-4.981 1.449q-2.994 0-4.746-1.214-1.739-1.214-2.277-3.298zM104.433 25.948v-2.194q-0.8 1.173-2.111 1.849-1.297 0.676-2.746 0.676-1.476 0-2.649-0.648t-1.697-1.821-0.524-3.242v-9.272h3.877v6.733q0 3.091 0.207 3.794 0.221 0.69 0.786 1.104 0.566 0.4 1.435 0.4 0.993 0 1.78-0.538 0.786-0.552 1.076-1.352 0.29-0.814 0.29-3.96v-6.181h3.877v14.653zM92.098 11.295v3.091h-2.649v5.905q0 1.794 0.069 2.097 0.083 0.29 0.345 0.483 0.276 0.193 0.662 0.193 0.538 0 1.559-0.373l0.331 3.008q-1.352 0.579-3.063 0.579-1.049 0-1.89-0.345-0.842-0.359-1.242-0.911-0.386-0.566-0.538-1.518-0.124-0.676-0.124-2.732v-6.388h-1.78v-3.091h1.78v-2.911l3.891-2.263v5.174zM81.446 25.948h-3.877v-7.478q0-2.373-0.248-3.063-0.248-0.704-0.814-1.090-0.552-0.386-1.338-0.386-1.007 0-1.808 0.552t-1.104 1.463q-0.29 0.911-0.29 3.367v6.637h-3.877v-14.653h3.601v2.152q1.918-2.484 4.829-2.484 1.283 0 2.346 0.469 1.062 0.455 1.601 1.173 0.552 0.717 0.759 1.628 0.221 0.911 0.221 2.608zM60.888 21.285l3.863 0.648q-0.745 2.125-2.359 3.242-1.601 1.104-4.015 1.104-3.822 0-5.657-2.497-1.449-2.001-1.449-5.050 0-3.643 1.904-5.698 1.904-2.070 4.815-2.070 3.27 0 5.16 2.166 1.89 2.152 1.807 6.609h-9.714q0.041 1.725 0.938 2.691 0.897 0.952 2.235 0.952 0.911 0 1.532-0.497t0.938-1.601zM61.108 17.366q-0.041-1.683-0.869-2.553-0.828-0.883-2.014-0.883-1.269 0-2.097 0.924t-0.814 2.511zM40.301 25.948l-7.23-20.227h4.429l5.119 14.971 4.953-14.971h4.333l-7.244 20.227zM14.363 31.215c-0.368-0.282-2.934-2.228-5.704-4.325s-5.057-3.835-5.083-3.862c-0.026-0.027 0.006-0.017 0.072 0.023s2.67 1.529 5.787 3.309l5.668 3.237v1.067c0 0.587-0.016 1.066-0.036 1.065s-0.337-0.233-0.704-0.515zM15.341 30.665v-1.067l5.668-3.237c3.117-1.78 5.722-3.269 5.787-3.309s0.098-0.049 0.072-0.022c-0.078 0.082-11.469 8.702-11.499 8.702-0.016 0-0.028-0.48-0.028-1.067zM11.618 19.334c-4.252-6.828-4.11-6.599-4.084-6.599 0.012 0 1.72 2.062 3.795 4.583l3.774 4.583-0.024 2.991zM15.341 23.414l-0-1.516 3.774-4.582c2.075-2.52 3.783-4.582 3.795-4.582 0.026 0 0.216-0.307-3.989 6.444-1.872 3.006-3.443 5.53-3.492 5.608-0.087 0.141-0.088 0.12-0.088-1.372zM11.087 16.663c-2.189-2.643-4.010-4.85-4.048-4.904s0.092 0.052 0.287 0.236c0.196 0.184 2.026 1.889 4.066 3.789l3.71 3.455v1.116c0 0.614-0.008 1.116-0.018 1.116s-1.809-2.163-3.998-4.806zM15.341 20.366v-1.125l3.71-3.456c2.041-1.901 3.872-3.606 4.069-3.79s0.334-0.302 0.305-0.263c-0.101 0.137-7.905 9.571-7.994 9.664-0.088 0.092-0.090 0.073-0.090-1.031zM2.892 19.503c-0.044-0.179-2.728-17.787-2.718-17.835 0.008-0.035 0.654 2.976 1.436 6.692l1.423 6.756-0.053 2.019c-0.051 1.93-0.070 2.442-0.088 2.368zM27.513 19.055c0-0.26-0.023-1.252-0.052-2.203l-0.052-1.73 1.424-6.76c0.783-3.718 1.43-6.731 1.437-6.695 0.016 0.078-2.702 17.806-2.735 17.838-0.012 0.012-0.023-0.19-0.023-0.451zM7.574 6.585c-4.101-3.378-7.484-6.172-7.518-6.21-0.079-0.089-0.9-0.608 7.612 4.816l7.434 4.738v1.403c0 0.772-0.016 1.401-0.036 1.399s-3.391-2.768-7.493-6.145zM15.341 11.333v-1.402l7.028-4.479c8.3-5.29 8.242-5.253 8.15-5.164-0.139 0.134-15.129 12.446-15.154 12.446-0.014 0-0.025-0.631-0.025-1.401zM0.122 1.47c0-0.066 0.010-0.092 0.024-0.060s0.014 0.087 0 0.119c-0.014 0.033-0.024 0.006-0.024-0.060zM30.289 1.47c0-0.066 0.010-0.092 0.024-0.060s0.014 0.087 0 0.119c-0.014 0.033-0.024 0.006-0.024-0.060z"></path>
</svg>